<?xml version="1.0" encoding="UTF-8"?><svg xmlns="http://www.w3.org/2000/svg" width="300" height="300" viewBox="0 0 300 300"><defs><style>.cls-1{fill:#474747;}.cls-1,.cls-2,.cls-3,.cls-4,.cls-5,.cls-6,.cls-7{stroke-linecap:round;stroke-linejoin:round;stroke-width:.5px;}.cls-1,.cls-2,.cls-3,.cls-4,.cls-5,.cls-6,.cls-7,.cls-8{stroke:#000;}.cls-2{fill:#5c4d4a;}.cls-9{stroke:#58595b;stroke-width:.2px;}.cls-9,.cls-4{fill:#fff;}.cls-9,.cls-8{stroke-miterlimit:10;}.cls-3{fill:#c6b899;}.cls-5{fill:#b7d2f9;}.cls-6,.cls-8{fill:none;}.cls-10,.cls-11{stroke-width:0px;}.cls-11{fill:#27b04b;}</style></defs><g id="Grid"><rect class="cls-9" x="29.3" y="29.3" width="241.5" height="241.5"/><line class="cls-9" x1="29.3" y1="258.6" x2="270.7" y2="258.6"/><line class="cls-9" x1="29.3" y1="246.6" x2="270.7" y2="246.6"/><line class="cls-9" x1="29.3" y1="234.5" x2="270.7" y2="234.5"/><line class="cls-9" x1="29.3" y1="222.5" x2="270.7" y2="222.5"/><line class="cls-9" x1="29.3" y1="210.4" x2="270.7" y2="210.4"/><line class="cls-9" x1="29.3" y1="198.3" x2="270.7" y2="198.3"/><line class="cls-9" x1="29.3" y1="186.2" x2="270.7" y2="186.2"/><line class="cls-9" x1="29.3" y1="174.2" x2="270.7" y2="174.2"/><line class="cls-9" x1="29.3" y1="162.1" x2="270.7" y2="162.1"/><line class="cls-9" x1="29.3" y1="150" x2="270.7" y2="150"/><line class="cls-9" x1="29.3" y1="137.9" x2="270.7" y2="137.9"/><line class="cls-9" x1="29.3" y1="125.8" x2="270.7" y2="125.8"/><line class="cls-9" x1="29.3" y1="113.8" x2="270.7" y2="113.8"/><line class="cls-9" x1="29.3" y1="101.7" x2="270.7" y2="101.7"/><line class="cls-9" x1="29.3" y1="89.6" x2="270.7" y2="89.6"/><line class="cls-9" x1="29.3" y1="77.5" x2="270.7" y2="77.5"/><line class="cls-9" x1="29.3" y1="65.5" x2="270.7" y2="65.5"/><line class="cls-9" x1="29.3" y1="53.4" x2="270.7" y2="53.4"/><line class="cls-9" x1="29.3" y1="41.4" x2="270.7" y2="41.4"/><line class="cls-9" x1="258.6" y1="29.3" x2="258.6" y2="270.7"/><line class="cls-9" x1="246.6" y1="29.3" x2="246.6" y2="270.7"/><line class="cls-9" x1="234.5" y1="29.3" x2="234.5" y2="270.7"/><line class="cls-9" x1="222.5" y1="29.3" x2="222.5" y2="270.7"/><line class="cls-9" x1="210.4" y1="29.3" x2="210.4" y2="270.7"/><line class="cls-9" x1="198.3" y1="29.3" x2="198.3" y2="270.7"/><line class="cls-9" x1="186.2" y1="29.3" x2="186.2" y2="270.7"/><line class="cls-9" x1="174.2" y1="29.3" x2="174.2" y2="270.7"/><line class="cls-9" x1="162.1" y1="29.3" x2="162.1" y2="270.7"/><line class="cls-9" x1="150" y1="29.3" x2="150" y2="270.7"/><line class="cls-9" x1="137.9" y1="29.3" x2="137.9" y2="270.7"/><line class="cls-9" x1="125.8" y1="29.3" x2="125.8" y2="270.7"/><line class="cls-9" x1="113.8" y1="29.3" x2="113.8" y2="270.7"/><line class="cls-9" x1="101.7" y1="29.3" x2="101.7" y2="270.7"/><line class="cls-9" x1="89.6" y1="29.3" x2="89.6" y2="270.7"/><line class="cls-9" x1="77.5" y1="29.3" x2="77.5" y2="270.7"/><line class="cls-9" x1="65.5" y1="29.3" x2="65.5" y2="270.7"/><line class="cls-9" x1="53.4" y1="29.3" x2="53.4" y2="270.7"/><line class="cls-9" x1="41.4" y1="29.3" x2="41.4" y2="270.7"/><line class="cls-8" x1="23.9" y1="150" x2="276.1" y2="150"/><polygon class="cls-10" points="24.7 152.5 20.4 150 24.7 147.5 24.7 152.5"/><polygon class="cls-10" points="275.3 152.5 279.6 150 275.3 147.5 275.3 152.5"/><line class="cls-8" x1="150" y1="23.9" x2="150" y2="276.1"/><polygon class="cls-10" points="147.5 24.7 150 20.4 152.5 24.7 147.5 24.7"/><polygon class="cls-10" points="147.5 275.3 150 279.6 152.5 275.3 147.5 275.3"/></g><g id="Lines"><polygon class="cls-11" points="259.5 87.6 265.8 71.7 249 74.8 252.7 79.3 44.2 251.3 40.5 246.8 34.2 262.7 51 259.6 47.3 255 255.8 83 259.5 87.6"/></g><g id="Africa"><path class="cls-3" d="M141.2,122.1c-1.5,15.5-2.2,35.6-3.6,43.2h0c-1.1.6-1.9,1.2-2.1,1.7-2.7,2-7.6,4.9-12.4,4.9,1.2-18.2,1.5-16.2,3.9-36.4v-.4c-8,2-17.4,3.2-26.1,5.3-2.3,11.4-3.6,19.4-6.9,32-2.8,10.7-2.7,18-5.9,31.5-.6.1-1.3.3-2,.5-3.9,2.3-13.3.5-13,0,3.1-17.2,4.6-20.5,6.8-42.5,1.5-15.7,0-17.9-.2-28.9,0-.3.3-5.8,1.2-9.9,7.2,3.6,17.7,6.7,23.6,5.8.9-3.5,1.8-6.2,2.7-8.5,2.3-.8,5.7-1.2,9.4-1.5,4.8-.3,10.1,0,14.6.4,5.1.6,9.2,1.5,10,2.8Z"/><path class="cls-5" d="M121.4,79c-.3,2-.8,4.2-1.4,6.4-2.1,8.3-5.5,17.5-6.9,20.7-.5,1.2-1,2.2-1.4,3.2-.6,1.3-1.1,2.6-1.7,3.7-1.1,2.4-2,4.6-3,7.2-.9,2.4-1.7,5-2.7,8.5-5.9.9-16.4-2.2-23.6-5.8.1-.7.3-1.3.4-1.9,1.2,1.1,2.6,1.9,4.2,1.7,2.8-.3,5.1-1.4,5.3-4.2.2-2.8-1.6-4.9-4.1-5.6-.5-1.5-1-3.3-1.6-5.3h0c1.1-3,4.7-14.1,6-17.2v-.2c-2.3,1-4.4,1.8-6,2.4h0c-.3-.3-.5-.6-.7-1-1.9-2.9-3.3-6.6-3.5-10,0-.3,0-.7,0-1,1.3-.7,2.5-1.4,3.6-2,12.9-8,15.7-8.8,21.4-9.2.7-.9,1.3-2,1.7-3.2-.5,2,2.8,3.9,4.8,4.8,4.6,2.4,6.6,4.4,7.7,5.9.6.8,1,1.4,1.4,1.9Z"/><path class="cls-2" d="M136.4,56.8c2-5.1,2.8-9.3.6-13.5-1.6-3-5.1-6.4-10-8.2-7-2.5-12.5-.8-17.3,3.9-4.9,4.8-5.5,17.2-1.2,22.3,0,1.5-.4,3.1-.9,4.6h0s-.1.4-.1.4h0c-.5,2,2.8,4,4.8,4.8,4.6,2.4,6.6,4.4,7.7,5.9,0-1.1-.1-2-.1-2.9,0-1,0-2,.5-3,2.9,2.2,5.5,4,7,3.6,2.5-.7,5.3-4.5,5.2-4.8,0-.4-.1-.4-.3-.4s-.3,0-.5,0c-2.4-.5-2.8-1.8-3.6-3.7.3.2,2.9,1,5,1.8.2,0,.3.1.5.2.4-.8.2-1.4.8-3h0c.2,0,.5,0,.7,0,.9.1,2.3-1.5,1.9-3.5-.2-.8-.8-1.4-.6-4.6ZM134.2,53.2c-1,0-2.2,0-2.5-.4-.3-.3.2-.5.8-.7.7-.1,1.4-.1,2.1,0,.7,0,1.4.2,2.1.2h0c0,0,.1,0,.2,0,.1.3,0,.5-.3.8-.8,0-1.6,0-2.4,0Z"/><path class="cls-6" d="M102.1,134.7c-.4,2-.8,3.9-1.2,5.7"/><line class="cls-6" x1="100.9" y1="140.4" x2="100.9" y2="140.4"/><path class="cls-6" d="M132.8,133.2c-1.8.7-3.8,1.3-5.9,1.8"/><path class="cls-2" d="M90.8,118.7c-.2,2.8-2.5,3.9-5.3,4.2-1.6.2-3-.6-4.2-1.7-1.2-1.1-1.2-4-.8-5.5-2.7-9.1-5.4-15.8-7.3-22.3-1.9-6.6,3.1-9.1,7.5-11.6.2,3.4,1.6,7.1,3.5,10-1,.3-2.5.8-3,1,.9,4,2.4,9.9,3.8,15h0c.6,2,1.1,3.8,1.6,5.3,2.6.8,4.4,2.9,4.1,5.6Z"/><path class="cls-6" d="M80.9,81.7s0,0-.1,0"/><path class="cls-6" d="M91,90.4c6.9-3.1,15-7.2,15.4-7.7"/><path class="cls-6" d="M84.3,91.8s0,0,0,0"/><path class="cls-5" d="M118.7,108.1c-.2.3-.5.5-.8.7-1.7,1.2-4.1,1.2-6.1.5.4-1,.9-2,1.4-3.2,1.4-3.2,4.8-12.4,6.9-20.7.3-.6.6-1.2.9-1.8,1.6,10.6-1.5,15.1-2.3,24.5Z"/><line class="cls-6" x1="117.9" y1="108.9" x2="117.9" y2="108.9"/><path class="cls-1" d="M93.4,211.4c-2.3,2.4-7.2,4.2-9.9,4.8-5.3,1.3-8.3,2.3-9.7,1.1-4.9-4.3-2.4-11.1-.8-13.1-.3.5,9.1,2.3,13,0,.7-.2,1.4-.3,2-.5,8.6-1.6,9.7,3,5.3,7.5Z"/><path class="cls-4" d="M133.1,67.7h0c-.2.5-.4,1.1-.8,2-.1,0-.3,0-.5,0-2.4-.5-2.8-1.8-3.6-3.7.3.2,2.9,1,5,1.8Z"/><path class="cls-6" d="M132.3,69.6s0,0,0,0"/><path class="cls-6" d="M120.5,71.2s0,0,0,0"/><path class="cls-1" d="M145.8,165.3c-.7,5.2-4,6.4-8.4,9.7-3.1,2.3-5.9,4.7-8.6,5.9-3.7,1.7-6.8-7.9-5.7-9,4.8,0,9.7-3,12.4-4.9,1.2-.9,2-1.6,2.1-1.7,3.1-1.5,8.5-2.5,8.2,0Z"/><path class="cls-6" d="M135.5,167s0,0,0,0"/><path class="cls-6" d="M119.2,51.7c-.4-.9-1.6-.9-2.6-.7-2,.5-2.5,4.3-.7,7.3s1.3.7,2.3,1.5"/><path class="cls-6" d="M134.3,64.8c-.8-.1-1.6-.3-2.6-1.2"/><path class="cls-7" d="M136.6,53.2c-.8,0-1.6,0-2.4,0-1,0-2.2,0-2.5-.4-.3-.3.2-.5.8-.7.7-.1,1.4-.1,2.1,0,.7,0,1.4.2,2.1.2h0c0,0,.1,0,.2,0,.1.3,0,.5-.3.8Z"/><path class="cls-6" d="M120.4,71.2c-1.3-1-2.6-2.1-3.9-3.1"/><path class="cls-10" d="M134.7,57.2c-.2,1.1-.8,1.9-1.3,1.8-.5,0-.8-1-.6-2.1.2-1.1.8-1.9,1.3-1.8.5,0,.8,1,.6,2.1Z"/><path class="cls-2" d="M131.2,119.2h0c-4.5-.5-9.9-.6-14.6-.4h0c-2.2-1.4-5.5-2.9-6.5-5.8.5-1.2,1.1-2.4,1.7-3.7,2.1.7,4.4.8,6.1-.5,0,1.1-.2.8-.1,1.7,2.6,2.3,10.2,7.3,13.4,8.6Z"/><path class="cls-6" d="M136.7,52.5h-.3"/><path class="cls-6" d="M85.2,93.1c0,0-.1-.2-.2-.3"/><path class="cls-6" d="M107.6,66c0,.1-.1.3-.1.4"/><path class="cls-5" d="M123.8,78.3c-1,1.8-1.9,3.5-2.9,5.3-.3.6-.6,1.2-.9,1.8.6-2.2,1-4.4,1.4-6.4-.4-.5-.8-1.1-1.4-1.9,0-1.1-.1-2-.1-2.9,1.6,1.1,2.9,2.5,3.9,4.1Z"/><path class="cls-5" d="M120,85.4c0,.1-.1.2-.2.3"/><path class="cls-6" d="M119.9,74.2c0,0,0,0-.1,0"/></g></svg>