<?xml version="1.0" encoding="UTF-8"?><svg xmlns="http://www.w3.org/2000/svg" width="300" height="300" viewBox="0 0 300 300"><defs><style>.cls-1{fill:#acc16d;}.cls-1,.cls-2,.cls-3,.cls-4,.cls-5,.cls-6,.cls-7,.cls-8,.cls-9{stroke:#000;}.cls-1,.cls-2,.cls-3,.cls-4,.cls-5,.cls-7,.cls-8,.cls-9{stroke-linecap:round;stroke-linejoin:round;stroke-width:.6px;}.cls-2,.cls-10,.cls-11{fill:#fff;}.cls-3{fill:#ef6742;}.cls-4{fill:#ccada2;}.cls-5,.cls-6{fill:none;}.cls-10{stroke-width:.2px;}.cls-10,.cls-11{stroke:#58595b;}.cls-10,.cls-11,.cls-6{stroke-miterlimit:10;}.cls-12,.cls-13{stroke-width:0px;}.cls-13{fill:#27b04b;}.cls-8{fill:#2b2b2b;}.cls-9{fill:#566298;}</style></defs><g id="Grid"><rect class="cls-10" x="30" y="29.3" width="241.5" height="241.5"/><line class="cls-10" x1="30" y1="258.6" x2="271.5" y2="258.6"/><line class="cls-10" x1="30" y1="246.6" x2="271.5" y2="246.6"/><line class="cls-10" x1="30" y1="234.5" x2="271.5" y2="234.5"/><line class="cls-10" x1="30" y1="222.5" x2="271.5" y2="222.5"/><line class="cls-10" x1="30" y1="210.4" x2="271.5" y2="210.4"/><line class="cls-10" x1="30" y1="198.3" x2="271.5" y2="198.3"/><line class="cls-10" x1="30" y1="186.2" x2="271.5" y2="186.2"/><line class="cls-10" x1="30" y1="174.2" x2="271.5" y2="174.2"/><line class="cls-10" x1="30" y1="162.1" x2="271.5" y2="162.1"/><line class="cls-11" x1="30" y1="150" x2="271.5" y2="150"/><line class="cls-10" x1="30" y1="137.9" x2="271.5" y2="137.9"/><line class="cls-10" x1="30" y1="125.8" x2="271.5" y2="125.8"/><line class="cls-10" x1="30" y1="113.8" x2="271.5" y2="113.8"/><line class="cls-10" x1="30" y1="101.7" x2="271.5" y2="101.7"/><line class="cls-10" x1="30" y1="89.6" x2="271.5" y2="89.6"/><line class="cls-10" x1="30" y1="77.5" x2="271.5" y2="77.5"/><line class="cls-10" x1="30" y1="65.5" x2="271.5" y2="65.5"/><line class="cls-10" x1="30" y1="53.4" x2="271.5" y2="53.4"/><line class="cls-10" x1="30" y1="41.4" x2="271.5" y2="41.4"/><line class="cls-10" x1="259.4" y1="29.3" x2="259.4" y2="270.7"/><line class="cls-10" x1="247.3" y1="29.3" x2="247.3" y2="270.7"/><line class="cls-10" x1="235.3" y1="29.3" x2="235.3" y2="270.7"/><line class="cls-10" x1="223.2" y1="29.3" x2="223.2" y2="270.7"/><line class="cls-10" x1="211.1" y1="29.3" x2="211.1" y2="270.7"/><line class="cls-10" x1="199" y1="29.3" x2="199" y2="270.7"/><line class="cls-10" x1="186.9" y1="29.3" x2="186.9" y2="270.7"/><line class="cls-10" x1="174.9" y1="29.3" x2="174.9" y2="270.7"/><line class="cls-10" x1="162.8" y1="29.3" x2="162.8" y2="270.7"/><line class="cls-11" x1="150.8" y1="29.3" x2="150.8" y2="270.7"/><line class="cls-10" x1="138.7" y1="29.3" x2="138.7" y2="270.7"/><line class="cls-10" x1="126.6" y1="29.3" x2="126.6" y2="270.7"/><line class="cls-10" x1="114.6" y1="29.3" x2="114.6" y2="270.7"/><line class="cls-10" x1="102.5" y1="29.3" x2="102.5" y2="270.7"/><line class="cls-10" x1="90.4" y1="29.3" x2="90.4" y2="270.7"/><line class="cls-10" x1="78.3" y1="29.3" x2="78.3" y2="270.7"/><line class="cls-10" x1="66.2" y1="29.3" x2="66.2" y2="270.7"/><line class="cls-10" x1="54.2" y1="29.3" x2="54.2" y2="270.7"/><line class="cls-10" x1="42.1" y1="29.3" x2="42.1" y2="270.7"/><line class="cls-6" x1="24.7" y1="150" x2="276.8" y2="150"/><polygon class="cls-12" points="25.4 152.5 21.1 150 25.4 147.5 25.4 152.5"/><polygon class="cls-12" points="276.1 152.5 280.4 150 276.1 147.5 276.1 152.5"/><line class="cls-6" x1="150.8" y1="23.9" x2="150.8" y2="276.1"/><polygon class="cls-12" points="148.3 24.7 150.8 20.4 153.2 24.7 148.3 24.7"/><polygon class="cls-12" points="148.3 275.3 150.8 279.6 153.2 275.3 148.3 275.3"/></g><g id="Lines"><polygon class="cls-13" points="300 234.3 285.1 226 285.1 231.9 14.8 231.9 14.8 226 -.2 234.3 14.8 242.6 14.8 236.7 285.1 236.7 285.1 242.6 300 234.3"/></g><g id="Asia"><path class="cls-2" d="M59.7,222.2c-4,3-3.3,8.5-2.2,8.9,4.9,1.4,10,1.4,15.1,1.3.9,0,3.1-.2,3.9-.4s1.6-.8,1.9-1.6c.4-1.2,0-3.5-1.3-4.1-1.2-.5-6.2-1.6-7.9-2l-9.5-2Z"/><path class="cls-4" d="M82.6,195.4c-6.6,12.7-9.5,19.2-14.2,28.4l2.5.9c-4.1-1.2-7.4-.8-11.2-2.5,9.5-19.1,6.9-21.9,8.7-30.6l14.2,3.8Z"/><path class="cls-5" d="M77.7,118.2c-.2,2.8-.1,2.4-.5,5.2h0c-.3-1-.6-2.1-1-3.2.3-.5,1-1.3,1.6-2Z"/><path class="cls-5" d="M104.8,116.4s0,0,0,0c0-.2,0-.4.1-.6"/><path class="cls-4" d="M115.7,156.6c-3.4-4.9-7-9.4-10-13-2-9.2-3.3-15.7-.9-27.2-.6,5.3,5.8,26.7,9.3,30.1,8,6.8,2.3,11.3,1.6,10.2Z"/><path class="cls-4" d="M89.9,157.7c-.3.8-3.5,2.5-4.4,2.2-1.2-.5-2.8-.3-3-1.5-.7-3.8-1.4-5.5-2.1-9.3-1.2-2-2.9-4.6-4.6-7.3-2.3-3.6-4.5-7.3-5.6-10.1-1.8-4.6-3.5-8.6-3.5-12.3,0-2.9,1.4-5.6,2.6-8.3,0-.1.1-.3.2-.4,3.1,2.1,6.1,4.3,9.2,6.4h0c-.2.3-.5.7-.9,1.1h0c-.6.7-1.2,1.5-1.6,2,.4,1.1.7,2.2,1,3.3,2.2,7.4,3.4,13.8,8.1,23.2,3,2.8,5.1,4.6,5.3,7.2.1,1.1-.1,2.3-.7,3.9Z"/><path class="cls-4" d="M128.1,187.7l-11.9,5.2c-3.6,10,2.4,13.3,4,32.9,5.2,1,5.4.4,7.9-1.5.3-4,.4-21,0-36.6Z"/><path class="cls-2" d="M139.9,232.1c-3.9.1-19.4.6-20.8.3-1.4-.3.3-5.5,1.1-6.6,5.2,1,5.4.4,7.9-1.5,1.5.3,10.1,1.6,11,2.6,1,1,1.4,4.1.8,5.3Z"/><path class="cls-4" d="M92.3,75.5,88.8,74.2c-.8,2.8-.3,3.4-3,4.5.8,2.1.9,3.9.5,5.5-.4,1.6-1.4,2.9-2.7,4.1,5.6.7,10.7,5.3,12.3,10.3,1.2,1.2,2.3,1.5,3.9.9s3.3-1.5,3.3-3.2l-3.1-5h-.1c-1-1.4-1.1-5.1.2-7.4h0c1,.3,1.9.6,2.9,1,2.5.7,4.5,1.6,4.9-5.1,0,.2-1.6,1.4-4.4-3.1,1.4.7,3.4,1.1,5,1.1.3-.2.5-1.4.5-2.3.7,0,1.3-.4,1.7-1,.6-.9.7-1.8.2-2.8-.5-1-.8-1.4-1.6-3.3,1.2-6.8.8-10.4-.7-12.4-1.4.9-2.5,0-4.3.9-2.1,1-3.9,1.1-5.9,5.6-.5,1-2.2,6.5-4.2,6-.8-.2-2.3-1.6-2.5-2.4-1.5-1.1-3.7-.3-4.5,1.5-.9,1.7-.5,4,.6,5.6.3.4.7.8,1.1,1.1M92.3,75.5c-1.2-.1-2.5-.5-3.5-1.3M106.1,70.8c-.3,0-.5-1-.5-2.1s.2-2.1.5-2.1.5,1,.5,2.1-.2,2.1-.5,2.1ZM108.7,64.4c-.6.4-1.1-.2-2.1-.3-1.4-.1-2.6.5-3.8.1,2.2-1.7,2.3-2.1,4.6-1.8l.3.2s0,0,0,0c.4.2.8.5,1.1.7.3.3.4.8,0,1.1Z"/><path class="cls-5" d="M109,75.5h0"/><path class="cls-5" d="M94.1,78.8c1.8,2.8,3.8,4,6,4.9"/><path class="cls-8" d="M108.7,64.4c-.6.4-1.1-.2-2.1-.3-1.4-.1-2.6.5-3.8.1,2.2-1.7,2.3-2.1,4.6-1.8l.3.2s0,0,0,0c.4.2.8.5,1.1.7.3.3.4.8,0,1.1Z"/><path class="cls-5" d="M108.1,75.4c.3,0,.6.1.9.1"/><path class="cls-8" d="M108.6,55.7v.2c-1.5.9-2.6,0-4.4.9-2.1,1-3.9,1.1-5.9,5.6-.5,1-2.2,6.5-4.2,6-.8-.2-2.3-1.6-2.5-2.4-1.5-1.1-3.7-.3-4.5,1.5-.9,1.7-.5,4,.6,5.6.3.4.7.8,1.1,1.1-.8,2.8-.3,3.4-3,4.5h-.4c0,0-.2.1-.4.1-1.3.2-4.7-.6-6.6-2.9-.4-.5-.7-1-1-1.6-1.4-3.7-.2-6.3-.1-10.3,0-4,2.1-9,5.1-11.6,4.3-3.6,12-5.1,17.5-3.8,4,1,9.6,2.5,8.8,7.1Z"/><ellipse class="cls-7" cx="106.1" cy="68.6" rx=".5" ry="2.1"/><path class="cls-2" d="M108.5,77.7l-.6,2c0,.2-1.6,1.4-4.4-3.1,1.4.7,3.4,1.1,5,1.1Z"/><path class="cls-5" d="M91.4,68.2c-.9-.3-2,0-2.6.7s-.7,1.8-.3,2.7"/><path class="cls-5" d="M88.8,69.1c1,.6,1.8,1.5,2.4,2.5"/><path class="cls-5" d="M92.8,163.3s0,0,0,0"/><path class="cls-5" d="M85,78.7s0,0,0,0"/><path class="cls-2" d="M84.9,78.7c-.6,1.4-2.5,2-3.8,1.3-.6-.3-1.5-1-2.2-1.7-.7-.8-1.1-1.6-.8-2.3l.2-.2c1.9,2.2,5.3,3,6.6,2.9Z"/><path class="cls-8" d="M81.1,80c-.6-.3-1.5-1-2.2-1.7-2.7,2.3-4.4,5.9-4.5,9.9-.1,3.9-1.1,6.9.1,10.7.3-.5.6-1.1.9-1.7,1.5-2.4,3.6-6.6,6.4-7.8,0,0,0,0,0,0,.6-.4,1.2-.9,1.7-1.3,1.3-1.2,2.3-2.5,2.7-4.1,0,0,0,0,0,0-.3-1.8-1-2.9-2-4.4-.9.7-2.1.9-3.2.4Z"/><path class="cls-9" d="M95.2,135.1c-1.1,9.7-1.4,13.2,0,22.9.2,1.5.3,3.3-.8,4.4-.5.4-1.1.7-1.7.8-.3-3.7-.7-6.8-1-9.5-.8-7.1-1.3-11.9.4-20,1-5,2.1-11.9,3.1-16.9.9-5.1-.3-15.6-2.5-20.3-.2-.5-.5-1-.7-1.5-1.3-2.3-3-3.8-5.2-4.6-1.4-.5-3-.8-4.9-.9h0c.6-.5,1.2-.9,1.7-1.4,5.6.7,10.7,5.3,12.3,10.3,1.6,5,2.6,12.6,2.4,17.8-.4,7.7-2.4,13.7-3,18.9Z"/><path class="cls-3" d="M128.1,187.7c-3.8,2.1-7.8,3.8-11.9,5.2-10.7,3.5-22.4,4.4-33.6,2.6-4.9-.8-9.7-2-14.2-3.8,2.3-8,3.1-21.1,4.3-32.4h.4c4.8,3.2,10.4,2.6,16.1,3.8,1.1.2,2.4.4,3.5.2.6-.1,1.2-.4,1.7-.8,1.2-1.1,1.1-2.8.8-4.4-1.5-9.7-1.2-13.2,0-22.9.6-5.2,2.6-11.1,3-18.9.3-5.2-.8-12.8-2.4-17.8,1.2,1.2,2.3,1.5,3.9.9s3.3-1.5,3.3-3.2c2.2,4.8,4,11.5,2.9,15.7-.4,1.4-.7,2.7-.9,3.9,0,.2,0,.4-.1.6,0,0,0,0,0,0-2.4,11.6-1.1,18,.9,27.2,3,3.6,6.6,8.1,10,13,7.7,11,14.7,23.7,12.4,31Z"/><path class="cls-1" d="M95.2,116.8c.9-5.1-.3-15.6-2.5-20.3-.2-.5-.5-1-.7-1.5-1.3-2.3-3-3.8-5.2-4.6-1.4-.5-3-.8-4.9-.9h0c0,0,0,0,0,0-2.8,1.1-4.9,5.3-6.4,7.8-.4.6-.7,1.1-.9,1.7h0c-1.9,3.5-2.4,5.2-3.5,8.1,4.7,2.6,7.6,4.1,12.6,7.5-.8,1.1-1.7,2.3-3,3.9-.7-.5-1.3-.9-2-1.4-.2.3-.5.7-.9,1.1h0c-.2,2.8-.1,2.4-.5,5.2h0c2.2,7.5,3.4,13.8,8.1,23.3,3,2.8,5.1,4.6,5.3,7.2.1,1.1-.1,2.3-.7,3.9-.3.8-3.5,2.5-4.4,2.2-1.2-.5-2.8-.3-3-1.5-.7-3.8-1.4-5.5-2.1-9.3-1.2-2-2.9-4.6-4.6-7.3-1.5,4.1-2.3,10.4-3.1,17.4h.4c4.8,3.2,10.4,2.6,16.1,3.8,1.1.2,2.4.4,3.5.2-.3-3.7-.7-6.8-1-9.5-.8-7.1-1.3-11.9.4-20,1-5,2.1-11.9,3.1-16.9Z"/><path class="cls-5" d="M103,96.1l-3.1-5v-.2c.9,1,2,2.9,3.1,5.2Z"/><path class="cls-3" d="M83.6,114.6c-.8,1.1-1.7,2.3-3,3.9-.7-.5-1.3-.9-2-1.4h0c-3.1-2.1-6.1-4.3-9.2-6.4.7-1.5,1.2-2.6,1.6-3.7,4.7,2.6,7.6,4.1,12.6,7.5Z"/><path class="cls-5" d="M69.4,110.7s0,0-.1,0"/><path class="cls-5" d="M71,107.1s0,0-.1,0"/><path class="cls-5" d="M83.6,114.6c1.6-2.1,2.7-3.6,5-7"/></g></svg>