<?xml version="1.0" encoding="UTF-8"?><svg xmlns="http://www.w3.org/2000/svg" width="300" height="300" viewBox="0 0 300 300"><defs><style>.cls-1{fill:#2b2b2b;}.cls-1,.cls-2,.cls-3,.cls-4,.cls-5,.cls-6,.cls-7,.cls-8,.cls-9{stroke-linecap:round;stroke-linejoin:round;stroke-width:.5px;}.cls-1,.cls-2,.cls-3,.cls-4,.cls-5,.cls-6,.cls-7,.cls-8,.cls-9,.cls-10{stroke:#000;}.cls-2{fill:#25566b;}.cls-11{stroke-width:.2px;}.cls-11,.cls-7,.cls-12{fill:#fff;}.cls-11,.cls-12{stroke:#58595b;}.cls-11,.cls-12,.cls-10{stroke-miterlimit:10;}.cls-3{fill:#21272e;}.cls-4{fill:#0a7a8f;}.cls-5{fill:#a86c51;}.cls-6{fill:#bebebe;}.cls-8,.cls-10{fill:none;}.cls-13,.cls-14{stroke-width:0px;}.cls-14{fill:#27b04b;}</style></defs><g id="Grid"><rect class="cls-11" x="30" y="29.3" width="241.5" height="241.5"/><line class="cls-11" x1="30" y1="258.6" x2="271.5" y2="258.6"/><line class="cls-11" x1="30" y1="246.6" x2="271.5" y2="246.6"/><line class="cls-11" x1="30" y1="234.5" x2="271.5" y2="234.5"/><line class="cls-11" x1="30" y1="222.5" x2="271.5" y2="222.5"/><line class="cls-11" x1="30" y1="210.4" x2="271.5" y2="210.4"/><line class="cls-11" x1="30" y1="198.3" x2="271.5" y2="198.3"/><line class="cls-11" x1="30" y1="186.2" x2="271.5" y2="186.2"/><line class="cls-11" x1="30" y1="174.2" x2="271.5" y2="174.2"/><line class="cls-11" x1="30" y1="162.1" x2="271.5" y2="162.1"/><line class="cls-12" x1="30" y1="150" x2="271.5" y2="150"/><line class="cls-11" x1="30" y1="137.9" x2="271.5" y2="137.9"/><line class="cls-11" x1="30" y1="125.8" x2="271.5" y2="125.8"/><line class="cls-11" x1="30" y1="113.8" x2="271.5" y2="113.8"/><line class="cls-11" x1="30" y1="101.7" x2="271.5" y2="101.7"/><line class="cls-11" x1="30" y1="89.6" x2="271.5" y2="89.6"/><line class="cls-11" x1="30" y1="77.5" x2="271.5" y2="77.5"/><line class="cls-11" x1="30" y1="65.5" x2="271.5" y2="65.5"/><line class="cls-11" x1="30" y1="53.4" x2="271.5" y2="53.4"/><line class="cls-11" x1="30" y1="41.4" x2="271.5" y2="41.4"/><line class="cls-11" x1="259.4" y1="29.3" x2="259.4" y2="270.7"/><line class="cls-11" x1="247.3" y1="29.3" x2="247.3" y2="270.7"/><line class="cls-11" x1="235.3" y1="29.3" x2="235.3" y2="270.7"/><line class="cls-11" x1="223.2" y1="29.3" x2="223.2" y2="270.7"/><line class="cls-11" x1="211.1" y1="29.3" x2="211.1" y2="270.7"/><line class="cls-11" x1="199" y1="29.3" x2="199" y2="270.7"/><line class="cls-11" x1="186.9" y1="29.3" x2="186.9" y2="270.7"/><line class="cls-11" x1="174.9" y1="29.3" x2="174.9" y2="270.7"/><line class="cls-11" x1="162.8" y1="29.3" x2="162.8" y2="270.7"/><line class="cls-12" x1="150.8" y1="29.3" x2="150.8" y2="270.7"/><line class="cls-11" x1="138.7" y1="29.3" x2="138.7" y2="270.7"/><line class="cls-11" x1="126.6" y1="29.3" x2="126.6" y2="270.7"/><line class="cls-11" x1="114.6" y1="29.3" x2="114.6" y2="270.7"/><line class="cls-11" x1="102.5" y1="29.3" x2="102.5" y2="270.7"/><line class="cls-11" x1="90.4" y1="29.3" x2="90.4" y2="270.7"/><line class="cls-11" x1="78.3" y1="29.3" x2="78.3" y2="270.7"/><line class="cls-11" x1="66.2" y1="29.3" x2="66.2" y2="270.7"/><line class="cls-11" x1="54.2" y1="29.3" x2="54.2" y2="270.7"/><line class="cls-11" x1="42.1" y1="29.3" x2="42.1" y2="270.7"/><line class="cls-10" x1="24.7" y1="150" x2="276.8" y2="150"/><polygon class="cls-13" points="25.4 152.5 21.1 150 25.4 147.5 25.4 152.5"/><polygon class="cls-13" points="276.1 152.5 280.4 150 276.1 147.5 276.1 152.5"/><line class="cls-10" x1="150.8" y1="23.9" x2="150.8" y2="276.1"/><polygon class="cls-13" points="148.3 24.7 150.8 20.4 153.2 24.7 148.3 24.7"/><polygon class="cls-13" points="148.3 275.3 150.8 279.6 153.2 275.3 148.3 275.3"/></g><g id="Lines"><polygon class="cls-14" points="300 234.3 285.1 226 285.1 231.9 14.8 231.9 14.8 226 -.2 234.3 14.8 242.6 14.8 236.7 285.1 236.7 285.1 242.6 300 234.3"/></g><g id="Africa_Modest"><path class="cls-2" d="M127.4,183.2c-2.8-12.6-5.1-17.3-8.5-24.9-.8-1.9-1.7-3.9-2.7-6.2-.2-.8-.4-1.7-.7-2.5-.6-2.2-1.1-4.6-1.6-7h0c-.9-4.5-1.5-9.3-1.9-14.3-.5-7.2-.4-14.8.6-22.6-1.6,1.3-4.2,1.5-6.2.8,0,0,0,0-.1,0v.2c.8,6.6.4,13.5-1.3,20-1.5-1.2-3.1-2.4-4.6-3.6-.4-.3-.8-.6-1.1-1.1-.6-1-.3-2.4,0-3.6,1.4-6.1.6-12.6-2.2-18.1-3-1.8-6.3-2.9-9.8-3.3-1.2-.1-3.2,1.2-4.8,1.7-3.4,6.2-3.3,6.7-6.2,13.1-1.2,2.6-2.4,5.4-2.4,8.2,0,3.7,1.5,7.7,3.2,12.3,1,2.6,2.3,6.2,3.7,9.5-3.5,10.6-.2,28.3-1.8,42-7.9,15.7-11.2,30-14.5,36.7.2.2.4.4.6.6,3.5,3.4,10.4,5.6,18.5,6.8,11.4,1.7,25.2,1.3,35.7-.4h0c5.4-.9,9.9-2.2,12.6-3.8-2.5-14.5-2.9-26-4.6-40.6ZM95.1,158.1c-1.1,2.2-6.5,1.9-6.8.7-.6-3.7-1.3-5.5-1.9-9.2-1,.3-1.8.3-2.1-.2-.8-1.6-1.8-3.5-2.7-5.7,3.2.1,6.5-1.5,8.4-4.2.6,1.6,1.4,3.4,2.3,5.4.3.6-.4,1.5-1.4,2.3,3.8,3.9,6.6,6.1,4.2,11Z"/><path class="cls-8" d="M94.7,103.8c-3.5,5.8-6.8,11.5-10.4,17.4,2.2,7.2,2.8,11.2,5.7,18.3"/><path class="cls-8" d="M81.7,143.6c-.3-.6-.5-1.2-.8-1.8"/><path class="cls-5" d="M95.1,158.1c-1.1,2.2-6.5,1.9-6.8.7-.6-3.7-1.3-5.5-1.9-9.2,1.4-.4,3.3-1.4,4.5-2.4,3.8,3.9,6.6,6.1,4.2,11Z"/><path class="cls-6" d="M90.9,147.1c-1.3,1-3.1,2-4.5,2.4-1,.3-1.8.3-2.1-.2-.8-1.6-1.8-3.5-2.7-5.7,3.2.1,6.5-1.5,8.4-4.2.6,1.6,1.4,3.4,2.3,5.4.3.6-.4,1.5-1.4,2.3Z"/><path class="cls-6" d="M119.7,145.3c-.3.5-.8,1-1.3,1.7-.8.9-1.8,1.9-2.7,2.5h-.1c-.6-2.2-1.1-4.5-1.6-7h0c.1,0,1.9-1.5,2.6-2.5.8,1.5,1.9,3.2,3.1,5.2Z"/><path class="cls-2" d="M116.6,140.1c-.7,1-2.5,2.4-2.6,2.4-.9-4.5-1.5-9.3-1.9-14.3h0c.8,3.1,0,3.9,4.5,11.8Z"/><path class="cls-5" d="M118.9,158.3c-.8-1.9-1.7-3.9-2.7-6.2-.2-.8-.4-1.7-.7-2.5h.1c.9-.7,1.9-1.6,2.7-2.6,7.2,11.3,1.3,11.6.5,11.3Z"/><path class="cls-3" d="M83.5,230.5c-.2.8-.9,1.3-1.7,1.6-.8.3-1.6.3-2.4.3-4.6,0-9.3,0-13.7-1.3-1-.3-2.1-.8-2.5-1.8-.2-.6-.2-1.3,0-1.9.3-2.1,1-4.2,2-6.1h0c3.5,3.3,10.4,5.5,18.5,6.7.7.5.2,1.4-.1,2.5Z"/><path class="cls-8" d="M83.7,228c0,0-.2-.1-.3-.2"/><path class="cls-3" d="M140.5,232.1c-3.5.1-17.6.6-18.9.3-1.3-.3-2.9-3.7-2.2-4.8h0c5.4-.9,9.9-2.2,12.6-3.8v.2c1.4.3,6.9,2,7.8,2.9.9,1,1.3,4.1.7,5.2Z"/><path class="cls-8" d="M115.5,58.7c-.2-.4-.4-.8-.6-1"/><path class="cls-8" d="M115.7,59c0,0,0-.1,0-.2"/><path class="cls-5" d="M117.4,73.8c-.5-.9-.9-1.5-1.7-3.7,1.2-4.9.9-8.8,0-11.1-1.8-2.6-7-1.7-8.8-.5-1.8,1.2-3.8,3.9-4.5,6-1.6,4.7-1.4,7.6-1.4,11.1,0,2.7,4.4,9.6,7.1,10.3,1.6.4,2.8.8,3.9.6,1.3-.3,2.3-1.5,2.9-4.9,0,.2-1.8,1.6-4.4-2.5,1.3.6,3.2.7,4.6.7.3-.2.3-1.5.4-2.3.8,0,1.5-.4,1.9-1,.5-.9.6-1.8.1-2.7ZM112.7,73.2c-.3,0-.5-.9-.5-1.9s.2-2,.5-2,.5.9.5,2-.2,1.9-.5,1.9ZM115.2,67.5c-.5.4-1.5-.2-2.4-.3-1.2-.1-1.9.5-3,.2.9-1.2,2.1-1.9,4.2-1.6,0,0,.1,0,.2.1,0,0,0,0,0,0s0,0,0,0c.4.2.7.4,1,.7.3.3.3.7,0,1Z"/><path class="cls-1" d="M115.2,67.5c-.5.4-1.5-.2-2.4-.3-1.2-.1-1.9.5-3,.2.9-1.2,2.1-1.9,4.2-1.6-.4,0,0,0,.2.1,0,0,0,0,0,0s0,0,0,0c.4.2.7.4,1,.7.3.3.3.7,0,1Z"/><path class="cls-8" d="M114.2,65.9s0,0,0,0"/><path class="cls-8" d="M115.4,77.5c-.3,0-.6,0-.8,0"/><path class="cls-9" d="M113.2,71.3c0,1.1-.2,1.9-.5,1.9s-.5-.9-.5-1.9.2-2,.5-2,.5.9.5,2Z"/><path class="cls-7" d="M115,79.7l-.3,1.8c0,.2-1.8,1.6-4.4-2.5,1.3.6,3.2.7,4.6.7Z"/><path class="cls-4" d="M102.3,64.5c-1.6,4.7-1.4,7.6-1.4,11.1,0,2.7,4.4,9.6,7.1,10.3,1.6.4,2.8.8,3.9.6h.9c.2,1,.2,2.4,0,3.7,0,0,0,0,0,.1-.4,7.2,1.8,12.2,1.5,13.2-.2.9-.8,1.6-1.5,2.1-1.6,1.3-4.2,1.5-6.2.8,0,0,0,0-.1,0-2.8-1-5-3.3-7.5-5.1-.6-.4-1.2-.8-1.8-1.2-3-1.8-6.3-2.9-9.8-3.3-1.2-.1-3.2,1.2-4.8,1.7-.7.2-1.4.3-1.8,0-1.4-1.2,1.7-8.9,2.3-10.7,3.3-9.9-3.7-21.3,1.9-30.2,2.9-4.7,6.8-8.4,16.8-8.3,8.7,0,10.9,2.4,13.8,9.4,0,0,0,0,0,0,0,0,0,.2,0,.2-1.8-2.6-7-1.7-8.8-.5-1.8,1.2-3.8,3.9-4.5,6Z"/><path class="cls-8" d="M112.7,90.2s0,0,0,.1"/><path class="cls-4" d="M105.1,126.7c-1.5-1.2-3.1-2.4-4.6-3.6-.4-.3-.8-.6-1.1-1.1-.6-1-.3-2.4,0-3.6,1.4-6.1.6-12.6-2.2-18.1.6.4,1.2.7,1.8,1.2,2.5,1.8,4.7,4,7.5,5.1v.2c.8,6.6.4,13.5-1.3,20Z"/><path class="cls-8" d="M97.1,100.2s0,0,0,0"/><path class="cls-8" d="M96,66.2c-.9,9.9,2.8,23.2,8,31,1,1.5,2.4,3.1,4,2.9,1.2-.2,2.2-1.4,2.9-2.6.7-1.1,1.6-4.2,1.9-7.1"/><path class="cls-8" d="M90.1,139.3s0,0,0,.1"/><path class="cls-8" d="M81.7,143.6c0,0-.1,0-.2,0"/><path class="cls-8" d="M114,142.5s0,0,0,0"/><path class="cls-8" d="M116.7,140s0,0,0,0"/></g></svg>