<?xml version="1.0" encoding="UTF-8"?><svg xmlns="http://www.w3.org/2000/svg" width="300" height="300" viewBox="0 0 300 300"><defs><style>.cls-1{fill:#2b2b2b;}.cls-1,.cls-2,.cls-3,.cls-4,.cls-5,.cls-6,.cls-7,.cls-8,.cls-9,.cls-10,.cls-11,.cls-12,.cls-13,.cls-14,.cls-15{stroke-linecap:round;stroke-linejoin:round;stroke-width:.5px;}.cls-1,.cls-2,.cls-4,.cls-7,.cls-8,.cls-9,.cls-10,.cls-11,.cls-13,.cls-16{stroke:#000;}.cls-2{fill:#75af5a;}.cls-17{stroke:#58595b;stroke-width:.2px;}.cls-17,.cls-10,.cls-12{fill:#fff;}.cls-17,.cls-16{stroke-miterlimit:10;}.cls-3{fill:#db413e;}.cls-3,.cls-5,.cls-6,.cls-12,.cls-14,.cls-15{stroke:#231f20;}.cls-4{fill:#154593;}.cls-5{fill:#374f75;}.cls-6{fill:#71b2e2;}.cls-7{fill:#73523e;}.cls-8{fill:#fdffff;}.cls-9{fill:#eac36e;}.cls-11{fill:#ea5f3f;}.cls-13,.cls-14,.cls-16{fill:none;}.cls-18,.cls-19{stroke-width:0px;}.cls-19{fill:#27b04b;}</style></defs><g id="Grid"><rect class="cls-17" x="29.3" y="29.3" width="241.5" height="241.5"/><line class="cls-17" x1="29.3" y1="258.6" x2="270.7" y2="258.6"/><line class="cls-17" x1="29.3" y1="246.6" x2="270.7" y2="246.6"/><line class="cls-17" x1="29.3" y1="234.5" x2="270.7" y2="234.5"/><line class="cls-17" x1="29.3" y1="222.5" x2="270.7" y2="222.5"/><line class="cls-17" x1="29.3" y1="210.4" x2="270.7" y2="210.4"/><line class="cls-17" x1="29.3" y1="198.3" x2="270.7" y2="198.3"/><line class="cls-17" x1="29.3" y1="186.2" x2="270.7" y2="186.2"/><line class="cls-17" x1="29.3" y1="174.2" x2="270.7" y2="174.2"/><line class="cls-17" x1="29.3" y1="162.1" x2="270.7" y2="162.1"/><line class="cls-17" x1="29.3" y1="150" x2="270.7" y2="150"/><line class="cls-17" x1="29.3" y1="137.9" x2="270.7" y2="137.9"/><line class="cls-17" x1="29.3" y1="125.8" x2="270.7" y2="125.8"/><line class="cls-17" x1="29.3" y1="113.8" x2="270.7" y2="113.8"/><line class="cls-17" x1="29.3" y1="101.7" x2="270.7" y2="101.7"/><line class="cls-17" x1="29.3" y1="89.6" x2="270.7" y2="89.6"/><line class="cls-17" x1="29.3" y1="77.5" x2="270.7" y2="77.5"/><line class="cls-17" x1="29.3" y1="65.5" x2="270.7" y2="65.5"/><line class="cls-17" x1="29.3" y1="53.4" x2="270.7" y2="53.4"/><line class="cls-17" x1="29.3" y1="41.4" x2="270.7" y2="41.4"/><line class="cls-17" x1="258.6" y1="29.3" x2="258.6" y2="270.7"/><line class="cls-17" x1="246.6" y1="29.3" x2="246.6" y2="270.7"/><line class="cls-17" x1="234.5" y1="29.3" x2="234.5" y2="270.7"/><line class="cls-17" x1="222.5" y1="29.3" x2="222.5" y2="270.7"/><line class="cls-17" x1="210.4" y1="29.3" x2="210.4" y2="270.7"/><line class="cls-17" x1="198.3" y1="29.3" x2="198.3" y2="270.7"/><line class="cls-17" x1="186.2" y1="29.3" x2="186.2" y2="270.7"/><line class="cls-17" x1="174.2" y1="29.3" x2="174.2" y2="270.7"/><line class="cls-17" x1="162.1" y1="29.3" x2="162.1" y2="270.7"/><line class="cls-17" x1="150" y1="29.3" x2="150" y2="270.7"/><line class="cls-17" x1="137.9" y1="29.3" x2="137.9" y2="270.7"/><line class="cls-17" x1="125.8" y1="29.3" x2="125.8" y2="270.7"/><line class="cls-17" x1="113.8" y1="29.3" x2="113.8" y2="270.7"/><line class="cls-17" x1="101.7" y1="29.3" x2="101.7" y2="270.7"/><line class="cls-17" x1="89.6" y1="29.3" x2="89.6" y2="270.7"/><line class="cls-17" x1="77.5" y1="29.3" x2="77.5" y2="270.7"/><line class="cls-17" x1="65.5" y1="29.3" x2="65.5" y2="270.7"/><line class="cls-17" x1="53.4" y1="29.3" x2="53.4" y2="270.7"/><line class="cls-17" x1="41.4" y1="29.3" x2="41.4" y2="270.7"/><line class="cls-16" x1="23.9" y1="150" x2="276.1" y2="150"/><polygon class="cls-18" points="24.7 152.5 20.4 150 24.7 147.5 24.7 152.5"/><polygon class="cls-18" points="275.3 152.5 279.6 150 275.3 147.5 275.3 152.5"/><line class="cls-16" x1="150" y1="23.9" x2="150" y2="276.1"/><polygon class="cls-18" points="147.5 24.7 150 20.4 152.5 24.7 147.5 24.7"/><polygon class="cls-18" points="147.5 275.3 150 279.6 152.5 275.3 147.5 275.3"/></g><g id="Lines"><polygon class="cls-19" points="300.1 54.9 285.1 46.6 285.1 52.5 14.9 52.5 14.9 46.6 0 54.9 14.9 63.2 14.9 57.4 285.1 57.4 285.1 63.2 300.1 54.9"/></g><g id="Africa"><path class="cls-7" d="M152.5,86.4c0-.3-.1-.6-.3-.8-.2-.2-1.1,0-1.4,0h0c0-.4,0-.9.1-1.3h0c-.2-1.9-.8-5.3-1.9-6.7-6.9-.6-13.8,0-20.5,1.6-.2,0-.5.1-.7.2-.6,2-1.1,4-1,6.1h0c-.3-.3-.7-.5-1-.6-1.2-.4-2.1,1-1.5,3.7,0,.4.2.8.3,1.2.8,2.3,2.5,2.8,3.4,2.8.9,2.6,2.1,4.7,2.9,5.6.5.4,1,.8,1.5,1.2,5.1,3.8,6.4,3.3,7.9,3.3s2.2-.6,3.3-1.5c1.4-1.1,2.8-2.7,3.6-4.1.6-1,.9-1.9,1.5-3.5l.9-.2c2.2-.9,3.4-5.1,2.9-6.9ZM129.6,82.1c.1-1.2,2-1.9,2.5-2.1,1.2-.5,3.3,0,4.3.9-.2.9,0,1.7-.4,1.8-2.9-1.1-6.2.5-6.5-.7ZM133.8,88c-.4,0-.7-.7-.7-1.6,0-.9.3-1.6.7-1.6s.7.7.7,1.6-.3,1.6-.7,1.6ZM135.5,95.2c2.7.7,7,.6,7.6.4-1.6,2.9-4.8,3.2-7.6-.4ZM145.3,87.9c-.4,0-.6-.7-.6-1.5s.3-1.5.6-1.5.6.7.6,1.5-.3,1.5-.6,1.5ZM142.4,82.6c-.7-2.4,1.1-2.6,2.7-2.5,1.7,0,3.2,1.6,3.5,2.8-1.7-.7-4.8-.7-6.2-.3Z"/><path class="cls-6" d="M152.8,161.8c-1.6.7-1.5.8-12.1.8h-1.1c-6.4,0-15.7-.8-17.1-2.6,0-.8,0-2.7,0-5.2,9.2,2.2,21.1,2.6,30.1.8.1,2.1.2,4.2.1,6.2Z"/><path class="cls-5" d="M155.6,235.3c-1.1,1.3-2.1,2.2-3,2.8-2.2,1.3-4.3,1-8.4-.3-.8-.3-1.7-.5-2.6-.9,0-3.8-3.2-58.3-3.2-62.7h-.3c0,0,0,0,0,0-2.1,13.5-6.8,54.5-7.5,63.8-.7.3-1.6.4-2.4.5-2.3.2-5.1-.4-7.2-1.3-1.6-.7-2.8-1.6-3.3-2.5,0,0,.2-45.9,4.8-74.7,1.4,1.8,10.7,2.6,17.1,2.6h1.1c10.6,0,10.5-.1,12.1-.8.5,5.9.9,10.5,1.2,14.7.6,7.7,1.6,48.1,1.6,58.8Z"/><path class="cls-4" d="M160.3,88.6h0c-.2,1.5-.3,3.1-.5,4.8-1.1,11.6-6.8,19.1-7.1,29.5,0,3.4,0,5.3-.4,11.6-.7,8.4,0,15.1.3,21-9,1.7-20.9,1.4-30.1-.8,0-7.1-.2-18.5-.2-19.5-.1-1.3.4-10-.1-11.5-1.1-5.3-3.4-15.2-4.5-20.2-.6-2.8-1.6-7.6-2.3-11.5h0c2.2-2.4,5.2-5.9,7.7-8h0c0,1.1,0,2,.1,2.7,0,.6.2,1.3.4,1.9h0c.7,3.2,2.1,6.2,3.3,10.8-2,10.6-2,14,2.7,18.7-.2,5.3.8,8.1,2.1,13.3,1.2,5.2,5,11,9.4,14.1,3.6-4.9,4.7-7.1,6-14.1.4-1.9,1.4-13.3,1.4-13.3,0,0,3.9-8,.1-18.6,0,0,0,0,0,0t0,0c.5-1.1.9-4.8,1-6v-.2c2.1-.9,3.3-5.1,2.9-6.9,0-.3-.1-.6-.3-.8,0-.8,0-2,.1-3.6h0c2.9,1.3,6,4.1,8,6.6Z"/><path class="cls-10" d="M129.3,250.9c-.9,4.6-6.7,5.1-10.3,1.9-1-.9.5-9.9.7-11.1.2-1,.7-3,1.2-4.3v-.2c2.2.9,4.9,1.5,7.3,1.3.6,3.8,1.3,11.6,1.2,12.5Z"/><path class="cls-10" d="M154.3,252.4c-4,3.2-10.4,2.7-11.4-1.9-.2-1,.7-9.1,1.3-12.8,4.1,1.3,6.2,1.7,8.4.3.4,1.1.7,2.5.9,3.2.2,1.2,1.9,10.2.8,11.1Z"/><path class="cls-13" d="M144.3,237.7s0,0,0,0"/><path class="cls-13" d="M152.6,238.1c0,0,0-.1,0-.2"/><path class="cls-14" d="M149.7,90.4c-.4,1.3-.8,2.3-1.1,3.1"/><path class="cls-14" d="M142.4,92.1c-.6,1.7-3.2,1.4-4.2,1"/><path class="cls-14" d="M127.9,92.5c-.2-.7-.4-1.4-.6-2.1"/><path class="cls-12" d="M152.7,123c0-.8,0-1.7,0-2.8"/><path class="cls-3" d="M143.8,107.2c-.4,2.2-2.7,4.2-2.7,4.2-.2.4-.2,3-.2,6.2,0,2,0,4.3-.2,6.4-.1,2.5-.3,4.7-.7,5.9-1-1.5-1.6-3.6-2.1-5.9-.4-2.1-.7-4.4-.8-6.4-.3-3.2-.3-5.7-.6-6.2-.5-1-3.4-2.5-4.3-5.1-.3-.8-.4-1.7-.1-2.8h0c1.1,4.2,5.6,4,6.2,4s4.4.4,5.1-2.7h0c.5.7.6,1.5.5,2.3Z"/><path class="cls-14" d="M132,103.5c0,0,0,.1,0,.2"/><path class="cls-1" d="M148.6,82.9c-1.7-.7-4.8-.7-6.2-.3-.7-2.4,1.1-2.6,2.7-2.5,1.7,0,3.2,1.6,3.5,2.8Z"/><path class="cls-1" d="M136.4,81c-.2.9,0,1.7-.4,1.8-2.9-1.1-6.2.5-6.5-.7.1-1.2,2-1.9,2.5-2.1,1.2-.5,3.3,0,4.3.9Z"/><path class="cls-12" d="M143.2,95.6c-1.6,2.9-4.8,3.2-7.6-.4,2.7.7,7,.6,7.6.4Z"/><path class="cls-15" d="M145.9,86.4c0,.9-.3,1.5-.6,1.5s-.6-.7-.6-1.5.3-1.5.6-1.5.6.7.6,1.5Z"/><path class="cls-15" d="M134.5,86.4c0,.9-.3,1.6-.7,1.6s-.7-.7-.7-1.6c0-.9.3-1.6.7-1.6s.7.7.7,1.6Z"/><line class="cls-13" x1="125.6" y1="84.8" x2="125.6" y2="84.8"/><path class="cls-13" d="M150.7,85.6c0,.4-.1.8-.2,1.1"/><path class="cls-10" d="M149.5,93.3c-.3.1-.6.2-.9.2"/><path class="cls-14" d="M138.1,174.1h0c.2-1.6.5-2.8.6-3.5"/><path class="cls-13" d="M140.7,162.6c-.1,2.5-1,3.4-1.1,5.9"/><path class="cls-9" d="M149.7,69.6h0c-8.4-1-17-.3-25.1,2.1h-.2c-.2-1.5-.3-2.8-.4-3.6,8.5-3.1,16.5-3.5,25.4-2.2,0,1.2.2,2.4.4,3.7Z"/><path class="cls-8" d="M150.3,73.4c-4.4-1-22.9,0-25.5,2.3-.2-1.3-.3-2.8-.5-4h.2c8.1-2.4,16.7-3.1,25.1-2.1h0c.2,1.2.4,2.5.6,3.8Z"/><path class="cls-9" d="M150.9,77.8c-.2,0-.3,0-.5,0-.5,0-1-.1-1.4-.2-6.9-.6-13.8,0-20.5,1.6-.2,0-.5.1-.7.2-.7.2-1.3.5-1.8.9-.2.1-.3.3-.5.5,0-1-.3-2.9-.6-5,2.6-2.4,21.1-3.4,25.5-2.3.2,1.5.5,3.1.5,4.4Z"/><line class="cls-13" x1="150.4" y1="73.4" x2="150.4" y2="73.4"/><path class="cls-13" d="M127.7,79.3s0,0,0,0"/><path class="cls-1" d="M150.8,84.2c-.2-1.9-.8-5.3-1.9-6.7.5,0,1,.1,1.4.2.2,1.9.5,4.3.5,6.5Z"/><line class="cls-13" x1="148.6" y1="99.5" x2="148.6" y2="99.5"/><line class="cls-13" x1="148.6" y1="99.5" x2="148.6" y2="99.5"/><path class="cls-13" d="M149.2,107.2h-.2"/><path class="cls-10" d="M139.9,130.1s0,0,0-.1"/><path class="cls-10" d="M132.6,122.5h0"/><line class="cls-10" x1="137" y1="117.6" x2="137" y2="117.6"/><line class="cls-10" x1="145.9" y1="121.2" x2="145.8" y2="121.2"/><line class="cls-10" x1="140.9" y1="117.6" x2="140.9" y2="117.6"/><path class="cls-13" d="M122.5,154.7c0,0-.1,0-.2,0"/><line class="cls-13" x1="152.8" y1="60.4" x2="152.8" y2="60.4"/><path class="cls-7" d="M159.9,83.9c-1.8-2.6-4.4-4.7-7.5-5.3.3-6,.6-13.9.4-18.2-1.3-.9-1.6-7-.7-8.3,1-1.3,2-2,3.6-1.9,1.1.1,2.2.6,2.8,1.5.9,1.3,1.3,6.4-.3,8.6.2,13.5,1.9,15,1.7,23.5Z"/><path class="cls-13" d="M159.9,83.9h0"/><path class="cls-6" d="M123.1,84.1h0c-2.5,2.1-5.5,5.6-7.7,8-.5-2.7-.9-4.9-.9-5.6.3-.3.7-.5,1-.8,2.4-2,4.8-4,7.5-5.5,0,1.4.1,2.8.2,3.9Z"/><path class="cls-2" d="M143.9,135.3c-.7,2.4-1.6,4.3-2.9,6.6-1.6-1.9-3.1-3.8-4.4-5.8,1.1-2.1,1.9-3.3,3.3-6.1,1,1.3,2,2.8,4,5.2Z"/><path class="cls-11" d="M140,130s0,0,0,.1c-1.4,2.8-2.2,4-3.3,6.1-1.2-1.9-2.2-3.9-2.8-6.2-.1-.4-.2-.8-.3-1.2,1.6-2,2.8-3,4.3-4.7.5,2.3,1.1,4.5,2.1,5.9Z"/><path class="cls-9" d="M137.9,124c-1.5,1.7-2.7,2.8-4.3,4.7-.4-2.1-.7-4.1-.9-6.2,1.4-1.4,3-3.5,4.4-4.9.2,2,.4,4.3.8,6.4Z"/><path class="cls-2" d="M137,117.6c-1.4,1.4-3,3.5-4.4,4.9-.2-2.3-.4-4.5-.6-6.8,1.7-1.5,2.6-2.4,4.4-4.3.2.5.3,3,.6,6.2Z"/><path class="cls-11" d="M136.4,111.4c-1.9,1.9-2.7,2.8-4.4,4.3-2-.9-3.8-4.5-4.7-8.6,2.3-.4,2.8-.4,4.8-.8.9,2.6,3.8,4.1,4.3,5.1Z"/><path class="cls-11" d="M145.3,127c-.4,3.6-.8,6.2-1.4,8.2-2-2.4-3-4-4-5.2,0,0,0,0,0-.1.4-1.3.6-3.5.7-5.9,1.9,1.3,2.5,1.9,4.6,3h0Z"/><path class="cls-9" d="M145.8,121.2h0c-.2,2.3-.4,4.6-.5,5.5,0,.1,0,.2,0,.3h0c-2.1-1.2-2.7-1.7-4.6-3,.1-2.1.2-4.4.2-6.4,1.5,1.3,3.1,2.5,5,3.6Z"/><path class="cls-2" d="M146.4,115.2s-.3,3-.6,6c-1.9-1.1-3.5-2.3-5-3.6,0-3.2,0-5.8.2-6.2,1.7,1.4,3.7,2.4,5.3,3.8Z"/><path class="cls-11" d="M149,107.2c-.7,4.6-2.6,8-2.6,8-1.7-1.4-3.6-2.4-5.3-3.8,0,0,2.3-2.1,2.7-4.2h0c1.3,0,2.9.4,5.1,0Z"/><path class="cls-6" d="M148.5,118.1s-1.1,11.4-1.4,13.3c-1.4,7-2.4,9.2-6,14.1-4.4-3.1-8.2-8.9-9.4-14.1-1.2-5.2-2.2-8-2.1-13.3-4.7-4.7-4.7-8.1-2.7-18.7-.3,2.3-.1,5.1.4,7.6.9,4.1,2.7,7.8,4.7,8.6.2,2.3.3,4.6.6,6.8.2,2.1.5,4.2.9,6.2,0,.4.2.8.3,1.2.5,2.3,1.5,4.3,2.8,6.2,1.3,2,2.8,3.8,4.4,5.8,1.3-2.3,2.2-4.2,2.9-6.6.6-2.1,1-4.6,1.4-8.2,0-.1,0-.2,0-.3,0-.9.3-3.2.5-5.5h0c.3-3,.6-6,.6-6,0,0,1.9-3.4,2.6-8,.3-2.3.3-5-.4-7.7,3.8,10.6-.1,18.6-.1,18.6Z"/><path class="cls-7" d="M122.9,80.2c-2.7,1.5-5.1,3.5-7.5,5.5l-.2-.2c-.1-7.4.5-16.1,1.6-25.1-.5-.9-1.3-6.6-1.4-7.6-.1-1,.2-2.2,1.1-2.7.6-.4,1.3-.4,2-.4,1.5,0,2.8-.4,4,.4,1.1.7,1.8,1.9,1.9,3.2.1,1.2-1.4,7-2.3,7.9,0,2.3.4,11.9.8,19Z"/><path class="cls-9" d="M132.1,106.3c-2,.4-2.6.4-4.8.8-.6-2.5-.8-5.3-.4-7.6,1.7,1.2,3.3,3,5.1,4.1-.2,1-.2,2,.1,2.8Z"/><path class="cls-1" d="M127.7,79.3c-.6,2-1.1,4-1,6.1h0c-.3-.3-.7-.5-1-.6,0-1.8,0-2.7.2-4.6.5-.4,1.2-.7,1.8-.9Z"/><path class="cls-7" d="M143.5,101.1c0,1,0,2.1,0,3,0,.2,0,.4,0,.6,0,0,0,.1,0,.2-.7,3.1-4.4,2.7-5.1,2.7s-5.2.1-6.2-4h0c0-.9.2-2.9.2-4.3h0c5.1,3.8,6.4,3.3,7.9,3.3s2.2-.6,3.3-1.5Z"/><path class="cls-9" d="M149,107.2c-2.3.4-3.8,0-5.1,0h0c.1-.8,0-1.6-.5-2.3h0c0,0,0-.1,0-.2,0-.2,0-.4,0-.6,1.5-2.3,4.9-4.4,5.1-4.6,0,0,0,0,0,0,.7,2.7.7,5.4.4,7.7Z"/><path class="cls-13" d="M143.5,104.1c0,.1-.1.2-.2.3"/><path class="cls-13" d="M114.4,86.5c0,0-.2.1-.3.2"/><path class="cls-13" d="M123,80.1s0,0-.1,0"/><path class="cls-6" d="M160.6,85c0,1-.1,2.3-.3,3.7-2-2.5-5.1-5.3-8-6.6h0c0-1,0-2.2.2-3.4,3.1.6,5.7,2.7,7.5,5.3.2.3.5.7.7,1.1Z"/><path class="cls-13" d="M152.4,78.6s0,0,0,0"/><line class="cls-13" x1="115.3" y1="92.1" x2="115.3" y2="92.1"/><line class="cls-13" x1="160.4" y1="88.6" x2="160.4" y2="88.6"/></g></svg>