<?xml version="1.0" encoding="UTF-8"?><svg xmlns="http://www.w3.org/2000/svg" width="300" height="300" viewBox="0 0 300 300"><defs><style>.cls-1{stroke-width:.2px;}.cls-1,.cls-2,.cls-3{fill:#fff;}.cls-1,.cls-3{stroke:#58595b;}.cls-1,.cls-3,.cls-4{stroke-miterlimit:10;}.cls-5{fill:#d24841;}.cls-5,.cls-6,.cls-7,.cls-2,.cls-8,.cls-9,.cls-10,.cls-11{stroke-linecap:round;stroke-linejoin:round;stroke-width:.5px;}.cls-5,.cls-6,.cls-7,.cls-2,.cls-8,.cls-9,.cls-10,.cls-11,.cls-4{stroke:#000;}.cls-6{fill:#8e6a38;}.cls-7{fill:#e9e9e9;}.cls-8{fill:#f07e2e;}.cls-9{fill:#ffad6c;}.cls-10,.cls-4{fill:none;}.cls-12,.cls-13{stroke-width:0px;}.cls-13{fill:#27b04b;}</style></defs><g id="Grid"><rect class="cls-1" x="30" y="29.3" width="241.5" height="241.5"/><line class="cls-1" x1="30" y1="258.6" x2="271.5" y2="258.6"/><line class="cls-1" x1="30" y1="246.6" x2="271.5" y2="246.6"/><line class="cls-1" x1="30" y1="234.5" x2="271.5" y2="234.5"/><line class="cls-1" x1="30" y1="222.5" x2="271.5" y2="222.5"/><line class="cls-1" x1="30" y1="210.4" x2="271.5" y2="210.4"/><line class="cls-1" x1="30" y1="198.3" x2="271.5" y2="198.3"/><line class="cls-1" x1="30" y1="186.2" x2="271.5" y2="186.2"/><line class="cls-1" x1="30" y1="174.2" x2="271.5" y2="174.2"/><line class="cls-1" x1="30" y1="162.1" x2="271.5" y2="162.1"/><line class="cls-3" x1="30" y1="150" x2="271.5" y2="150"/><line class="cls-1" x1="30" y1="137.9" x2="271.5" y2="137.9"/><line class="cls-1" x1="30" y1="125.8" x2="271.5" y2="125.8"/><line class="cls-1" x1="30" y1="113.8" x2="271.5" y2="113.8"/><line class="cls-1" x1="30" y1="101.7" x2="271.5" y2="101.7"/><line class="cls-1" x1="30" y1="89.6" x2="271.5" y2="89.6"/><line class="cls-1" x1="30" y1="77.5" x2="271.5" y2="77.5"/><line class="cls-1" x1="30" y1="65.5" x2="271.5" y2="65.5"/><line class="cls-1" x1="30" y1="53.4" x2="271.5" y2="53.4"/><line class="cls-1" x1="30" y1="41.4" x2="271.5" y2="41.4"/><line class="cls-1" x1="259.4" y1="29.3" x2="259.4" y2="270.7"/><line class="cls-1" x1="247.3" y1="29.3" x2="247.3" y2="270.7"/><line class="cls-1" x1="235.3" y1="29.3" x2="235.3" y2="270.7"/><line class="cls-1" x1="223.2" y1="29.3" x2="223.2" y2="270.7"/><line class="cls-1" x1="211.1" y1="29.3" x2="211.1" y2="270.7"/><line class="cls-1" x1="199" y1="29.3" x2="199" y2="270.7"/><line class="cls-1" x1="186.9" y1="29.3" x2="186.9" y2="270.7"/><line class="cls-1" x1="174.9" y1="29.3" x2="174.9" y2="270.7"/><line class="cls-1" x1="162.8" y1="29.3" x2="162.8" y2="270.7"/><line class="cls-3" x1="150.8" y1="29.3" x2="150.8" y2="270.7"/><line class="cls-1" x1="138.7" y1="29.3" x2="138.7" y2="270.7"/><line class="cls-1" x1="126.6" y1="29.3" x2="126.6" y2="270.7"/><line class="cls-1" x1="114.6" y1="29.3" x2="114.6" y2="270.7"/><line class="cls-1" x1="102.5" y1="29.3" x2="102.5" y2="270.7"/><line class="cls-1" x1="90.4" y1="29.3" x2="90.4" y2="270.7"/><line class="cls-1" x1="78.3" y1="29.3" x2="78.3" y2="270.7"/><line class="cls-1" x1="66.2" y1="29.3" x2="66.2" y2="270.7"/><line class="cls-1" x1="54.2" y1="29.3" x2="54.2" y2="270.7"/><line class="cls-1" x1="42.1" y1="29.3" x2="42.1" y2="270.7"/><line class="cls-4" x1="24.7" y1="150" x2="276.8" y2="150"/><polygon class="cls-12" points="25.4 152.5 21.1 150 25.4 147.5 25.4 152.5"/><polygon class="cls-12" points="276.1 152.5 280.4 150 276.1 147.5 276.1 152.5"/><line class="cls-4" x1="150.8" y1="23.9" x2="150.8" y2="276.1"/><polygon class="cls-12" points="148.3 24.7 150.8 20.4 153.2 24.7 148.3 24.7"/><polygon class="cls-12" points="148.3 275.3 150.8 279.6 153.2 275.3 148.3 275.3"/></g><g id="Lines"><polygon class="cls-13" points="300 234.3 285.1 226 285.1 231.9 14.8 231.9 14.8 226 -.2 234.3 14.8 242.6 14.8 236.7 285.1 236.7 285.1 242.6 300 234.3"/></g><g id="Africa"><path class="cls-8" d="M102.6,118.5c-6.5,1.9-14.4.5-20.6-2.1,0-.1,0-.3,0-.4-.8,1.1-1.5,2.1-2.1,3.2.5,1.6.9,3.1,1.4,4.5,1.4,4.2,2.9,7.7,4.9,12.2h0c-.6-.9-1.8-.6-2.8-.3-1,.3-1.8,1.3-1.9,2.3,0,.5,0,1-.2,1.4-.3.5-.9.6-1.5.5-.5-.1-1-.4-1.5-.5-1.8-.5-4,2.4-4,2.3h0c-.9-2.8-1.5-5.9-2.1-8.9-.8-4.8-1-10.4-1-14.1,0-2.9,1.2-5.7,2.4-8.4,2.9-6.5,4.7-11.1,8-16.1,1.5-2.4,3.4-5,7.5-6.8,4.2,0,8.8,5.4,10.9,9,1.1,1.9,2.2,5.4,2.2,5.4.6-.1,1.2-.2,1.9-.2h0c-1.1,1-1.2,2.6-.7,4.2.3.9.8,1.7.9,2.7,0,1.4-1,2.3-1.6,3.4-1,1.9-1.2,5.4.1,6.8Z"/><path class="cls-10" d="M82,116c3.3-4.7,7.2-9.1,10.1-13.9"/><path class="cls-7" d="M88.6,141.4h0c-1.1,1.4-2.9,2.1-4.7,2-.7,0-1.4-.3-2.1,0-1,.3-1.4,1.4-2,2.2-.9,1.1-2.3,1.7-3.7,1.5-.7-1.7-1.4-3.5-2-5.5h0c0,.1,2.3-2.8,4-2.3.5.1,1,.4,1.5.5.5,0,1.2,0,1.5-.5.2-.4.2-.9.2-1.4,0-1.1.9-2,1.9-2.3,1-.3,2.2-.6,2.8.3h0c.7,1.7,1.6,3.5,2.5,5.5Z"/><path class="cls-6" d="M77.6,208.2h0c-3.8,6.9-6.1,9.1-8.5,15.1-2.6-.6-5.2-1.2-7.1-2.1,1.8-3.6,3.4-9.4,5.6-16.4,3.2,1.4,6.5,2.5,9.9,3.5Z"/><path class="cls-10" d="M75,224.6c-.3-.1-.7-.2-1-.3"/><path class="cls-10" d="M122.3,225.8s0,0,0,0"/><path class="cls-8" d="M128.1,205.9h0c-3.6,1.4-7.3,2.5-11.1,3.3-12.9,2.9-26.6,2.5-39.4-1-3.4-.9-6.7-2.1-9.9-3.5,2.1-6.5,4.7-13.9,8.6-21.5,1.6-13.9-2.5-23.1,0-35.7.4.8.7,1.6,1.1,2.3.5.8,3.4,0,6.2-1.4h0c.6,3.8.8,5.8,1.9,9.4.8,2.4,6.1,1.3,6.8-.7,1.8-5.2-.4-7.2-4.2-11.1l-.2-.2c1.1-.9,1.8-1.6,1.6-2.1-.4-.8-.7-1.5-1-2.2-.9-2-1.8-3.8-2.5-5.5-2-4.5-3.5-7.9-4.9-12.2.3-.7.6-1.4.8-2.2,6.2,2.9,14.7,4.1,21.9,1.9h.3c-.1,4,.3,8.8,1.7,14.7.4.6.8,1.1,1.2,1.7.9,1.2,1.7,2.5,2.6,3.9.9,1.4,1.7,2.9,2.5,4.4,1.4,2.6,2.8,5.3,4,8,3.7,7.9,6.9,16.1,10.4,23.9,1,8.8,1,17.3,1.4,25.9Z"/><path class="cls-6" d="M129,223.8c-3.6,1.1-2.9,1.4-6.7,1.8-.9-5.5-4.7-10.2-5.2-16.5h0c3.8-.8,7.5-2,11.1-3.3.3,5.9-.2,12,.9,18Z"/><path class="cls-8" d="M88.1,145.7c-1.2.9-2.8,1.8-4.4,2.6-2.9,1.4-5.8,2.3-6.2,1.4-.4-.7-.8-1.5-1.1-2.3,0-.1-.1-.3-.2-.5,1.4.2,2.8-.4,3.7-1.5.6-.8,1-1.9,2-2.2.7-.2,1.4,0,2.1,0,1.7.2,3.5-.6,4.7-1.9h0c.3.7.7,1.4,1,2.2.2.5-.5,1.3-1.6,2.1Z"/><path class="cls-8" d="M111.4,135.5h0c-1.1-.5-2.5.2-3.1,1.3-.6,1-1,3.1-1,3.1-.4-.6-.8-1.1-1.2-1.7-1.4-6-1.8-10.8-1.7-14.7,0-2,.2-3.8.5-5.5h0c.6-1,1.1-2,1.5-3h0c1.1,7.2,1.5,12.7,5,20.5Z"/><path class="cls-7" d="M113.9,140.5h0c-.5,1.6-2.5,3.2-4.2,3.3-.8-1.3-1.7-2.6-2.6-3.9,0,0,.4-2.1,1-3.1.6-1.1,2-1.8,3.1-1.2h0c.7,1.5,1.5,3.2,2.5,5Z"/><path class="cls-8" d="M116,144.1c-.3.4-.6.8-1,1.3-.8,1-1.7,2-2.8,2.7-.8-1.5-1.7-3-2.5-4.4,1.7,0,3.7-1.6,4.2-3.2.6,1.2,1.3,2.4,2.1,3.6Z"/><path class="cls-6" d="M116.3,156.1h0c-1.3-2.7-2.6-5.4-4-8,1-.7,2-1.8,2.8-2.7h0c7.6,9.2,1.9,11.9,1.2,10.7Z"/><path class="cls-6" d="M92.4,157.1c-.7,2-6.1,3.1-6.8.7-1.1-3.7-1.3-5.6-1.9-9.4h0c1.7-.8,3.3-1.8,4.4-2.6l.2.2c3.9,4,6.1,5.9,4.2,11.1Z"/><path class="cls-7" d="M80.7,230.4c-.2.8-.9,1.4-1.7,1.6-.8.3-1.6.3-2.4.3-4.7,0-9.4,0-13.9-1.3-1-.3-2.2-.8-2.6-1.8-.2-.6-.2-1.3,0-1.9.3-2.1,1-4.2,2-6.2,1.9,1,4.5,1.6,7.1,2.1,1.6.3,3.2.7,4.7,1.1,0,0,0,0,0,0,1.7.5,4.6,1.5,5.6,2,1.1.5,1.5,2.9,1.2,4.1Z"/><path class="cls-10" d="M73.8,224.3c-.2,0-.3-.1-.4-.1"/><path class="cls-7" d="M140.8,232.4c-3.6.1-17,.3-18.4,0-1.3-.3-1.6-5.5-.9-6.6.3,0,.5,0,.8,0,3.8-.5,3.1-.8,6.7-1.8.1,0,.3,0,.4-.1h.5c1.4.4,9.7,2.3,10.6,3.3.9,1,.8,4.2.2,5.4Z"/><path class="cls-10" d="M112,75.3s0,0,0,0"/><path class="cls-10" d="M97.8,79c1.2,1.6,1.6,2.1,3.1,3.3"/><path class="cls-10" d="M96.1,65.9c0,0-.2-.1-.2-.2"/><path class="cls-6" d="M114.1,72.6c-.3-1-.9-2.6-1.7-4.8-.2-4,.5-5.4.4-7.2,0-.5,0-1-.1-1.5-1.3-1.6-5.8-3.5-13.8,2.2h0c-1,1.4-1.9,3-2.5,4.6l-.4-.2c-1.2-.8-2.1-.8-2.8.7-.8,1.6.1,2.8.7,4.4.2.7.7,1.6,1.3,2.2.4.4.8.6,1.2.5v-1c0,.7.3,1.3.6,1.9.3.6.7,1.3.7,2,0,.7-.2,1.5-.9,1.8-.8.3-1.6-.3-1.9-1-.3-.8-.2-1.6,0-2.4.1-.5.1-1.2,0-1.5-2.1,1.9-1.4,4.3-2.2,6.9,0,.6-.4,1.4-.7,2.3,3.8,2.9,6.4,5.9,8.9,10,.5.9,1.5,3.3,2.2,3.2.5,0,.7-.8.3-2-.2-.5-.8-1.8-1-2.2-.5-.8-1-1.6-1.5-2.4,0-.5,0-3,0-4.9,0-.9,0-1.6,0-1.9.7.5,1.6,1.1,2.9,2,2.2,1.6,4.5,1.8,6.9-4.1,0,.2-1.6,1.3-4.2-2.9,1.3.6,3.4.5,4.8.5.3-.7.4-1.9.7-2.5,1.2,0,2.8-.6,2-2.7ZM109.3,71c-.3,0-.5-.9-.5-2s.2-2,.5-2,.5.9.5,2-.2,2-.5,2ZM111.3,64.7c-.3,0-.6,0-1,0-.3,0-.6-.2-.9-.3-.5,0-1,0-1.5.2-.5.2-.9.4-1.3.7.1-.7.6-1.4,1.3-1.8.7-.4,1.6-.6,2.4-.5.8.1,2.2,1.3.9,1.8Z"/><path class="cls-10" d="M112,75.3c-.3,0-.6,0-.8-.1"/><path class="cls-11" d="M109.8,69c0,1.1-.2,2-.5,2s-.5-.9-.5-2,.2-2,.5-2,.5.9.5,2Z"/><path class="cls-2" d="M111.3,77.8l-.6,2.4c0,.2-1.6,1.3-4.2-2.9,1.3.6,3.4.5,4.8.5Z"/><path class="cls-10" d="M128.1,205.9s0,0,0,0"/><path class="cls-10" d="M96.3,66s0,0,0,0"/><path class="cls-5" d="M112.8,59.3s0-.1-.1-.2c-.3-2.1-1-3.4-2.8-4.2-2.7-.7-4.6.3-7.1,2.2-1.4,1.1-2.7,2.5-3.9,4.2-1,1.4-1.9,3-2.5,4.6l-.4-.2c-1.2-.8-2.1-.8-2.8.7-.8,1.6.1,2.8.7,4.4.2.7.7,1.6,1.3,2.2,0,0,0,0-.1.1-2.1,1.9-1.4,4.3-2.2,6.9,0,.6-.4,1.4-.7,2.3-.2.5-.5,1.1-.8,1.6-.8,1.5-1.7,2.8-2.4,3.1-1.5.7-6.4-1.7-7.4-3.1-2.4-3.4-2.3-6.3-2.5-8.5-.6-9.8.6-14.1,5.7-20.2,5-6.1,9.8-7.1,18.3-5.8,1.3.2,5.9,0,8.3,3.3,1.6,2.1,2.1,5.3,1.4,6.4Z"/><path class="cls-6" d="M106.8,100.7h-.1c-.8.4-1.8.6-2.8.8-.7,0-1.3.1-1.9.2,0,0-1.1-3.5-2.2-5.4-2.1-3.6-6.8-9-10.9-9,.8-.4,1.7-1.7,2.4-3.1h.2c4.2,3.4,7.6,7.6,10.1,12.2.3.5.5,1,1,1.4.4.4,1.1.5,1.6.2.5-.4.8-1,.5-2.8,1,1.9,1.9,3.8,2.2,5.5Z"/><path class="cls-5" d="M106.3,115c-.5,1-1,2-1.5,3h0s0,0,0,0c.5-2.9,1.1-5.4,1.6-7.6.6-2.7,1.1-3.5.6-8.6,0-.3,0-.7-.2-1-.3-1.7-1.2-3.7-2.2-5.5-.7-1.3-1.5-2.6-2.2-3.8-.5-.8-1-1.6-1.5-2.4,0-.5,0-3,0-4.9h0c4.2,4.4,6.9,10.2,7.6,16.3.5,4.9-.2,10-2.2,14.6Z"/><path class="cls-7" d="M112.7,59.1c-1.3-1.6-5.8-3.5-13.8,2.2h0c1.2-1.7,2.5-3.1,3.9-4.2,2.6-2,4.4-3,7.1-2.2,1.8.8,2.5,2.1,2.8,4.2Z"/><path class="cls-12" d="M111.3,64.7c-.3,0-.6,0-1,0-.3,0-.6-.2-.9-.3-.5,0-1,0-1.5.2-.5.2-.9.4-1.3.7.1-.7.6-1.4,1.3-1.8.7-.4,1.6-.6,2.4-.5.8.1,2.2,1.3.9,1.8Z"/><path class="cls-10" d="M109.7,143.8c0,0-.1,0-.2,0"/><path class="cls-7" d="M104.7,117.9s0,0,0,0c-.2,1.6-.4,3.5-.5,5.5h-.3c-7.2,2.2-15.7,1-21.9-1.9.3-1.3.4-2.8,0-5.1,6.2,2.5,14.1,4,20.6,2.1.6-.2,1.3-.4,1.9-.6h.2Z"/><path class="cls-7" d="M106.3,110.3c-.5,2.2-1.2,4.7-1.6,7.6h-.2c-.6.2-1.2.4-1.9.6-1.3-1.4-1.1-4.9-.1-6.8.6-1.1,1.6-2,1.6-3.4,0-1-.6-1.8-.9-2.7-.5-1.6-.4-3.2.7-4.2h0c1-.2,2-.4,2.8-.8h.1c0,.3.1.7.2,1,.4,5.1,0,5.9-.6,8.6Z"/><path class="cls-9" d="M95,73.2h0s0,0,0,0Z"/><path class="cls-9" d="M97.7,76.5c0,.7-.2,1.5-.9,1.8-.8.3-1.6-.3-1.9-1-.3-.8-.2-1.6,0-2.4.1-.5.1-1.2,0-1.5,0,0,0,0,0,0h.1c.4.3.8.6,1.2.5v-1c0,.7.3,1.3.6,1.9.3.6.7,1.3.7,2Z"/><path class="cls-9" d="M104.1,98c-.5.3-1.1.2-1.6-.2-.4-.4-.7-.9-1-1.4-2.4-4.7-5.9-8.8-10.1-12.1h-.2c.3-.7.5-1.2.8-1.8,3.8,2.9,6.4,5.9,8.9,10,.5.9,1.5,3.3,2.2,3.2.5,0,.7-.8.3-2-.2-.5-.8-1.8-1-2.2.7,1.2,1.5,2.5,2.2,3.8.3,1.8,0,2.4-.5,2.8Z"/><path class="cls-10" d="M92.1,82.5s0,0,0,0"/></g></svg>