<?xml version="1.0" encoding="UTF-8"?><svg xmlns="http://www.w3.org/2000/svg" width="300" height="300" viewBox="0 0 300 300"><defs><style>.cls-1{fill:#5095b1;}.cls-1,.cls-2,.cls-3,.cls-4,.cls-5,.cls-6,.cls-7,.cls-8,.cls-9{stroke-linecap:round;stroke-linejoin:round;stroke-width:.5px;}.cls-1,.cls-2,.cls-3,.cls-4,.cls-5,.cls-6,.cls-7,.cls-8,.cls-9,.cls-10{stroke:#000;}.cls-11{stroke:#58595b;stroke-width:.2px;}.cls-11,.cls-7{fill:#fff;}.cls-11,.cls-10{stroke-miterlimit:10;}.cls-2{fill:#c99070;}.cls-3{fill:#064059;}.cls-4{fill:#064c72;}.cls-5{fill:#211f1e;}.cls-6{fill:#e6e6e6;}.cls-8,.cls-10{fill:none;}.cls-12,.cls-13{stroke-width:0px;}.cls-13{fill:#27b04b;}</style></defs><g id="Grid"><rect class="cls-11" x="29.3" y="29.3" width="241.5" height="241.5"/><line class="cls-11" x1="29.3" y1="258.6" x2="270.7" y2="258.6"/><line class="cls-11" x1="29.3" y1="246.6" x2="270.7" y2="246.6"/><line class="cls-11" x1="29.3" y1="234.5" x2="270.7" y2="234.5"/><line class="cls-11" x1="29.3" y1="222.5" x2="270.7" y2="222.5"/><line class="cls-11" x1="29.3" y1="210.4" x2="270.7" y2="210.4"/><line class="cls-11" x1="29.3" y1="198.3" x2="270.7" y2="198.3"/><line class="cls-11" x1="29.3" y1="186.2" x2="270.7" y2="186.2"/><line class="cls-11" x1="29.3" y1="174.2" x2="270.7" y2="174.2"/><line class="cls-11" x1="29.3" y1="162.1" x2="270.7" y2="162.1"/><line class="cls-11" x1="29.3" y1="150" x2="270.7" y2="150"/><line class="cls-11" x1="29.3" y1="137.9" x2="270.7" y2="137.9"/><line class="cls-11" x1="29.3" y1="125.8" x2="270.7" y2="125.8"/><line class="cls-11" x1="29.3" y1="113.8" x2="270.7" y2="113.8"/><line class="cls-11" x1="29.3" y1="101.7" x2="270.7" y2="101.7"/><line class="cls-11" x1="29.3" y1="89.6" x2="270.7" y2="89.6"/><line class="cls-11" x1="29.3" y1="77.5" x2="270.7" y2="77.5"/><line class="cls-11" x1="29.3" y1="65.5" x2="270.7" y2="65.5"/><line class="cls-11" x1="29.3" y1="53.4" x2="270.7" y2="53.4"/><line class="cls-11" x1="29.3" y1="41.4" x2="270.7" y2="41.4"/><line class="cls-11" x1="258.6" y1="29.3" x2="258.6" y2="270.7"/><line class="cls-11" x1="246.6" y1="29.3" x2="246.6" y2="270.7"/><line class="cls-11" x1="234.5" y1="29.3" x2="234.5" y2="270.7"/><line class="cls-11" x1="222.5" y1="29.3" x2="222.5" y2="270.7"/><line class="cls-11" x1="210.4" y1="29.3" x2="210.4" y2="270.7"/><line class="cls-11" x1="198.3" y1="29.3" x2="198.3" y2="270.7"/><line class="cls-11" x1="186.2" y1="29.3" x2="186.2" y2="270.7"/><line class="cls-11" x1="174.2" y1="29.3" x2="174.2" y2="270.7"/><line class="cls-11" x1="162.1" y1="29.3" x2="162.1" y2="270.7"/><line class="cls-11" x1="150" y1="29.3" x2="150" y2="270.7"/><line class="cls-11" x1="137.9" y1="29.3" x2="137.9" y2="270.7"/><line class="cls-11" x1="125.8" y1="29.3" x2="125.8" y2="270.7"/><line class="cls-11" x1="113.8" y1="29.3" x2="113.8" y2="270.7"/><line class="cls-11" x1="101.7" y1="29.3" x2="101.7" y2="270.7"/><line class="cls-11" x1="89.6" y1="29.3" x2="89.6" y2="270.7"/><line class="cls-11" x1="77.5" y1="29.3" x2="77.5" y2="270.7"/><line class="cls-11" x1="65.5" y1="29.3" x2="65.5" y2="270.7"/><line class="cls-11" x1="53.4" y1="29.3" x2="53.4" y2="270.7"/><line class="cls-11" x1="41.4" y1="29.3" x2="41.4" y2="270.7"/><line class="cls-10" x1="23.9" y1="150" x2="276.1" y2="150"/><polygon class="cls-12" points="24.7 152.5 20.4 150 24.7 147.5 24.7 152.5"/><polygon class="cls-12" points="275.3 152.5 279.6 150 275.3 147.5 275.3 152.5"/><line class="cls-10" x1="150" y1="23.9" x2="150" y2="276.1"/><polygon class="cls-12" points="147.5 24.7 150 20.4 152.5 24.7 147.5 24.7"/><polygon class="cls-12" points="147.5 275.3 150 279.6 152.5 275.3 147.5 275.3"/></g><g id="Lines"><polygon class="cls-13" points="192.2 25.7 197.7 27.9 195.6 10.9 182.3 21.6 187.7 23.9 86.1 274.3 80.7 272.1 82.7 289.1 96 278.4 90.6 276.1 192.2 25.7"/></g><g id="Africa"><path class="cls-4" d="M135.6,155.6c-.5,2.1-3,8.1-3.6,8.5-.7.5-.7-.7-2.6.2-2.1.9-2.6,1.6-3.8,4.2,0,1.3-.1,2.6-.2,3.8-1.2,15-5.3,23.8-10.8,35.2-1.1,0-2.4-.3-3.7-.6-3.8-1-8.1-3.1-10.9-5.2-.3-.2-.7-.5-.9-.8,3.7-19.6,5-37.2,1.7-49-1.9-6.7-1.2-19.4,1.4-30.4,1.4,6.5,15.6,21.8,24.5,30.5.2-1,.4-1.8.7-2.6h.4c0,.1,4.6,5.2,6.6,6,.4.1.9.3,1.3.4Z"/><path class="cls-4" d="M147.7,123.5c-1.2,5.3-5.7,15-6.9,20.3-1.4-1.4-2.3-.9-4.4-.8-2,0-2.9.8-4.9.7-3.9-3.1-7.2-7.4-10-11.2-3.2-4.3-6.2-7.9-7.8-10.5,2.1.5,8.3,1.7,12.5.7.3-1.6.6-3.2.8-4.7h.2c1.8-2.8,12.6-8.4,16.1-8.2,1.7,0,4.3,3,5.3,4.3.8,1,0,6.6-1,9.5Z"/><path class="cls-2" d="M141.7,149.6c-.3,1.8-.8,3.7-2,5.2-.9,1.2-2.5,1.1-4.1.7-.5-.1-.9-.2-1.3-.4-2.1-.7-6.6-5.9-6.6-5.9h-.4c.7-2.6,1.4-4.3,4.3-5.7,2,.1,2.8-.6,4.9-.7,2.1,0,3-.6,4.4.8,1.4,1.5,1.3,3.8.9,5.8Z"/><path class="cls-2" d="M175.4,66.6c-.2,2-6,3.5-8.1,4.3h0c-.1-1.6-.5-3.1-1.9-4.2,1.7-2.2.3-3.6,2.4-5.4,1.2-1,5.5-1.1,6.8.5.8,1,1,3.6.8,4.9Z"/><path class="cls-8" d="M165.4,66.7s0,0,0,.1"/><path class="cls-6" d="M131.5,143.6c-2.9,1.4-3.7,3.1-4.3,5.6-.2.8-.4,1.7-.7,2.6-8.9-8.7-23.1-23.9-24.5-30.5-.4-1.9.4-6.8,2.5-15.3.3-1,.6-2.1.8-3.3,0,0,0,0,0,0,1.1-5.4,1.5-11.7,6.8-11.7s2.9.4,3.9,1c0,0,.2.1.3.2,0,0,.2.1.2.2,3.3,2.9.6,9.6.4,10.2-3.7,10.8-4.8,15.3-4.5,16.6.1.7.6,1.5,1.2,2.6,1.6,2.6,4.6,6.2,7.8,10.5,2.8,3.8,6,8.2,10,11.2Z"/><path class="cls-8" d="M105.5,102.4c0,0,0,.2,0,.2"/><path class="cls-1" d="M129.1,106.2c-.6,3.3-1.3,7.3-2,11.7-.3,1.5-.5,3.1-.8,4.7-4.2,1-10.4-.3-12.5-.7-.6-1-1.1-1.9-1.2-2.6-.3-1.3.8-5.8,4.5-16.6.2-.7,2.9-7.3-.4-10.2,4.9,4.1,2.5,15.3,12.4,13.7Z"/><path class="cls-3" d="M110.9,217c0,1.8-1.2,2.1-3,2.8-1.4.5-3,0-4.3-.5-1.2-.5-5.1-4.5-5.2-6.2-.5-4.7.5-6.8,1.6-11.4h0c2.8,2,7.1,4.1,10.9,5.2-.6,2.3,0,8.6,0,10.2Z"/><path class="cls-8" d="M111,206.2c0,.1-.2.4-.2.6"/><path class="cls-6" d="M167.3,72.8c-7.3,6.3-18.3,12.5-21.8,14.7-2.3,1.5-8.4,2.4-14.9,5.8h0c-.6-2.8-1.2-5.9-1-10.8,5.9-1.7,12.8-3.5,14.6-4.5,5.3-3,12.7-7,20.6-11.7.2.1.4.3.5.4,1.4,1.1,1.8,2.7,1.9,4.2,0,.6,0,1.3,0,1.9Z"/><path class="cls-2" d="M131.2,64.6c-1-1.5-3-2.9-3.8-5.3-.2-.7-.6-1.4-1-2,0,0,0,0,0,0-.3-.4-.6-.8-1.1-1.4,0-.1-.2-.2-.2-.3,0,0,0,0,0,0-.2-.2-.3-.3-.5-.5,0,0,0,0,0,0-1.4-1.1-4.1-1.8-7.8-.3-4.3,1.8-4.4,9.2-2.2,14.1,3.4,7.7,5.9,11.9,9.3,11.8,1,.2,2.4,0,4.1-.3.6-.1,1.3-.3,2-.5,1.3-.4,2.5-1.3,3.2-3.3,1-3-.2-9.3-1.8-11.9ZM127.5,61.3c.4.8.6,1.5.3,1.7-.3.2-.9-.3-1.3-1-.4-.7-.6-1.5-.3-1.6.3-.2.9.3,1.3,1ZM117.6,62.8c0,.2,0,.4-.2.6,0,.2-.2.4-.5.4-.2,0-.4,0-.6-.3-.1-.2-.2-.4-.2-.6,0-1.4,1.4-2.9,2.8-2.1,1.4.8-1.1.9-1.5,1.9ZM121.1,67c-.3.2-1-.2-1.4-1-.4-.7-.5-1.5-.2-1.7.3-.2,1,.2,1.4,1s.5,1.5.2,1.7ZM124,59.1c-.3,0-.5-.3-.6-.5-.2-1,1.8-2.4,2.5-1.4.3.5-.2.4-.6.7-.4.3-.7,1.2-1.3,1.2ZM129.6,74.4c-1.8,1.2-4.7-.7-4.8-1.1,1.6-.4,5.4-2.5,6.4-3.5.6.9.6,3.1-1.6,4.5Z"/><path class="cls-8" d="M127.4,59.4c-.3-.9-.5-1.4-1-2"/><path class="cls-3" d="M129.9,169.7c-.6,1.8-2.6,2.1-4.6,2.6,0-1.2.2-2.5.2-3.8,1.2-2.7,1.7-3.3,3.8-4.2,1.4,1.8,1.2,3.3.6,5.5Z"/><path class="cls-8" d="M126.6,64.9c.9.6,2.1.7,2.7,2.2s-2.1,3.1-2.7,3.1"/><path class="cls-9" d="M121.1,67c-.3.2-1-.2-1.4-1-.4-.7-.5-1.5-.2-1.7.3-.2,1,.2,1.4,1s.5,1.5.2,1.7Z"/><path class="cls-9" d="M127.8,63c-.3.2-.9-.3-1.3-1-.4-.7-.6-1.5-.3-1.6.3-.2.9.3,1.3,1,.4.8.6,1.5.3,1.7Z"/><path class="cls-7" d="M129.6,74.4c-1.8,1.2-4.7-.7-4.8-1.1,1.6-.4,5.4-2.5,6.4-3.5.6.9.6,3.1-1.6,4.5Z"/><path class="cls-8" d="M125,55.6c-.1-.2-.3-.3-.5-.5"/><path class="cls-8" d="M124.8,154.8c1,2.9,1.9,8.5.8,13.7"/><path class="cls-5" d="M117.6,62.8c0,.2,0,.4-.2.6,0,.2-.2.4-.5.4-.2,0-.4,0-.6-.3-.1-.2-.2-.4-.2-.6,0-1.4,1.4-2.9,2.8-2.1,1.4.8-1.1.9-1.5,1.9Z"/><path class="cls-5" d="M125.3,57.9c-.4.3-.7,1.2-1.3,1.2-.3,0-.5-.3-.6-.5-.2-1,1.8-2.4,2.5-1.4.3.5-.2.4-.6.7Z"/><path class="cls-7" d="M129.1,106.2c-9.9,1.5-7.5-9.7-12.4-13.7,0,0-.2-.1-.2-.2,0,0-.2-.2-.3-.2-1-.7-2.2-1-3.9-1-5.3,0-5.8,6.3-6.8,11.7,0,0,0,0,0,0-.3,1.2-.6,2.2-.8,3.3,0,0,0,0,0,.1-3.7-1.4-4.8-13.2-4.8-21.8s-3.2-5.3-3-14.5c.2-7.9,8-16.6,15.7-17.7,5.2-.8,9.3.5,12.1,2.9-1.4-1.1-4.1-1.8-7.8-.3-4.3,1.8-4.4,9.2-2.2,14.1,3.4,7.7,5.9,11.9,9.3,11.8,1,.2,2.4,0,4.1-.3.6-.1,1.3-.3,2-.5,0,.9-.1,1.7-.2,2.5-.2,4.9.4,8,1,10.8.3,1.6.7,3,.9,4.7.7,5.8,0,8.3-2.5,8.3Z"/><path class="cls-8" d="M126.4,57.3c-.4-.6-.8-1.2-1.3-1.7"/><path class="cls-8" d="M134.5,124.7c-3.1-.3-5.4-.8-8.2-2.1"/></g></svg>