<?xml version="1.0" encoding="UTF-8"?><svg xmlns="http://www.w3.org/2000/svg" width="300" height="300" viewBox="0 0 300 300"><defs><style>.cls-1{stroke:#58595b;stroke-width:.2px;}.cls-1,.cls-2{fill:#fff;}.cls-1,.cls-3{stroke-miterlimit:10;}.cls-4{fill:#3e4245;}.cls-4,.cls-5,.cls-6,.cls-2,.cls-7,.cls-8,.cls-9{stroke-linecap:round;stroke-linejoin:round;stroke-width:.5px;}.cls-4,.cls-5,.cls-6,.cls-2,.cls-7,.cls-8,.cls-9,.cls-3{stroke:#000;}.cls-5{fill:#c6a78c;}.cls-6{fill:#a7cbef;}.cls-7{fill:#edd2c0;}.cls-8,.cls-3{fill:none;}.cls-10,.cls-11{stroke-width:0px;}.cls-11{fill:#27b04b;}</style></defs><g id="Grid"><rect class="cls-1" x="29.3" y="29.3" width="241.5" height="241.5"/><line class="cls-1" x1="29.3" y1="258.6" x2="270.7" y2="258.6"/><line class="cls-1" x1="29.3" y1="246.6" x2="270.7" y2="246.6"/><line class="cls-1" x1="29.3" y1="234.5" x2="270.7" y2="234.5"/><line class="cls-1" x1="29.3" y1="222.5" x2="270.7" y2="222.5"/><line class="cls-1" x1="29.3" y1="210.4" x2="270.7" y2="210.4"/><line class="cls-1" x1="29.3" y1="198.3" x2="270.7" y2="198.3"/><line class="cls-1" x1="29.3" y1="186.2" x2="270.7" y2="186.2"/><line class="cls-1" x1="29.3" y1="174.2" x2="270.7" y2="174.2"/><line class="cls-1" x1="29.3" y1="162.1" x2="270.7" y2="162.1"/><line class="cls-1" x1="29.3" y1="150" x2="270.7" y2="150"/><line class="cls-1" x1="29.3" y1="137.9" x2="270.7" y2="137.9"/><line class="cls-1" x1="29.3" y1="125.8" x2="270.7" y2="125.8"/><line class="cls-1" x1="29.3" y1="113.8" x2="270.7" y2="113.8"/><line class="cls-1" x1="29.3" y1="101.7" x2="270.7" y2="101.7"/><line class="cls-1" x1="29.3" y1="89.6" x2="270.7" y2="89.6"/><line class="cls-1" x1="29.3" y1="77.5" x2="270.7" y2="77.5"/><line class="cls-1" x1="29.3" y1="65.5" x2="270.7" y2="65.5"/><line class="cls-1" x1="29.3" y1="53.4" x2="270.7" y2="53.4"/><line class="cls-1" x1="29.3" y1="41.4" x2="270.7" y2="41.4"/><line class="cls-1" x1="258.6" y1="29.3" x2="258.6" y2="270.7"/><line class="cls-1" x1="246.6" y1="29.3" x2="246.6" y2="270.7"/><line class="cls-1" x1="234.5" y1="29.3" x2="234.5" y2="270.7"/><line class="cls-1" x1="222.5" y1="29.3" x2="222.5" y2="270.7"/><line class="cls-1" x1="210.4" y1="29.3" x2="210.4" y2="270.7"/><line class="cls-1" x1="198.3" y1="29.3" x2="198.3" y2="270.7"/><line class="cls-1" x1="186.2" y1="29.3" x2="186.2" y2="270.7"/><line class="cls-1" x1="174.2" y1="29.3" x2="174.2" y2="270.7"/><line class="cls-1" x1="162.1" y1="29.3" x2="162.1" y2="270.7"/><line class="cls-1" x1="150" y1="29.3" x2="150" y2="270.7"/><line class="cls-1" x1="137.9" y1="29.3" x2="137.9" y2="270.7"/><line class="cls-1" x1="125.8" y1="29.3" x2="125.8" y2="270.7"/><line class="cls-1" x1="113.8" y1="29.3" x2="113.8" y2="270.7"/><line class="cls-1" x1="101.7" y1="29.3" x2="101.7" y2="270.7"/><line class="cls-1" x1="89.6" y1="29.3" x2="89.6" y2="270.7"/><line class="cls-1" x1="77.5" y1="29.3" x2="77.5" y2="270.7"/><line class="cls-1" x1="65.5" y1="29.3" x2="65.5" y2="270.7"/><line class="cls-1" x1="53.4" y1="29.3" x2="53.4" y2="270.7"/><line class="cls-1" x1="41.4" y1="29.3" x2="41.4" y2="270.7"/><line class="cls-3" x1="23.9" y1="150" x2="276.1" y2="150"/><polygon class="cls-10" points="24.7 152.5 20.4 150 24.7 147.5 24.7 152.5"/><polygon class="cls-10" points="275.3 152.5 279.6 150 275.3 147.5 275.3 152.5"/><line class="cls-3" x1="150" y1="23.9" x2="150" y2="276.1"/><polygon class="cls-10" points="147.5 24.7 150 20.4 152.5 24.7 147.5 24.7"/><polygon class="cls-10" points="147.5 275.3 150 279.6 152.5 275.3 147.5 275.3"/></g><g id="Lines"><polygon class="cls-11" points="192.2 25.7 197.7 27.9 195.6 10.9 182.3 21.6 187.7 23.9 86.1 274.3 80.7 272.1 82.7 289.1 96 278.4 90.6 276.1 192.2 25.7"/></g><g id="Asia"><path class="cls-7" d="M174.5,67.6c-.2,2-4.1,2.2-6.2,2.9-4.9,3.6-6.9,6.2-10.1,8.1-5.9,5.1-14,8.7-18.7,11h0c0-3.5-2-6.8-5-8.3h0c7.2-2.4,16.8-5.7,21.5-8.6,4.8-2.5,3.6-1.9,8.4-5.1,1.8-2.2.3-3.6,2.5-5.5,1.2-1.1,5.5-1.1,6.8.5.8,1,1,3.6.8,4.8Z"/><line class="cls-8" x1="102.2" y1="121.9" x2="102.2" y2="121.9"/><path class="cls-7" d="M140.8,150.5c-.3,1.9-.8,3.7-2.1,5.2-1.2,1.5-3.6,1-5.4.3-.4-.1-.9-.5-1.4-.9-2.3-1.9-5.5-5.9-5.5-5.9-3.5-2.3-9-7.7-12-10.2-7.2-7.7-10.6-11.2-12.2-17.1h0c0-.4-.2-.7-.2-1-.4-2,.6-4.4,2.1-12.3h0c3.4-.2,6.8.4,9.9,1.7-1.3,5.8-1,5.7-2.1,9.1.8,1.6,4.5,6.8,7.1,12,.2.3.3.7.5,1,2.4,4.3,7.4,9,11.3,12.1,1.8.9,1.4-.5,3.5-.6s4.4-.7,5.8.7c1.4,1.5,1.3,3.8.9,5.8Z"/><path class="cls-6" d="M129.9,102.8c-.9.5-6.2,1.2-6.3.2-.1-.6-.2,1.3,0-2.1h0c.7-1,1.5-2.1,1.5-3,.3-4.2,0-6.9-2.6-10.1.8.5,1.8.7,2.7.5,1-.2,1.8-.6,2.3-1.5,0,0,0,0,0-.1h0c1.8,3.2,2.8,5.9,3.2,8.3.5,2.8,0,5.3-.8,7.8Z"/><path class="cls-2" d="M129.9,102.8c-.2.7-.5,1.3-.7,2h0c-2,.6-4.1.9-6.2,1-.4,0-.9,0-1.2-.2-.5-.3-.7-1-.6-1.6h0c.6-.4,1-.9,1.4-1.5.3-.4.7-1,1.2-1.5-.2,3.4,0,1.5,0,2.1.2,1,5.5.2,6.3-.2Z"/><path class="cls-6" d="M146.8,124.4c-1.2,5.1-5.4,14.4-6.8,19.8,0,.2,0,.4-.1.5-1.3-1.4-3.7-.8-5.8-.7s-1.6,1.4-3.5.6c-3.9-3.1-8.9-7.8-11.3-12.1-.2-.4-.3-.7-.5-1-2.6-5.2-6.3-10.4-7.1-12,1.1-3.4.8-3.2,2.1-9.1.1-.6.3-1.2.5-2,2.3-2.5,3.3-5.3,3.2-8.4,0,1.8.2,3.6,1.3,4.9.7-.2,1.4-.5,2-.9h0c0,.6.1,1.3.6,1.6.4.2.8.2,1.2.2,2.1,0,4.2-.4,6.2-1h0c-1.8,4.7-4.8,10-6.7,18.9h0s.2,0,.2,0c1.8-2.8,16.4-13.3,19.9-13.1,1.7,0,4.3,3,5.3,4.3.8,1,0,6.6-1,9.5Z"/><path class="cls-8" d="M122.4,123.7c-.4,2-.8,4.2-1.1,6.5"/><path class="cls-6" d="M131.9,155.2c-2,2.3-4.8,5.3-5.7,8.2,0,.3-.1.5-.2.8-.6,3.2-2.3,7.8-3.5,10.9-.4.4-.8.7-1.3,1-4.1,2.9-9.4,4-14.3,2.8,1.3-3.1,2.5-6.5,3-10.2-1.7-7.3-5.9-10.9-8.5-18-2.6-7.1-3.2-11.2-1-21.5,0,0,0,0,0,0,0-.3,1.5-6.6,1.6-7.1,1.6,5.9,5,9.5,12.2,17.1,3.1,2.4,8.5,7.8,12,10.2,0,0,3.2,4,5.5,5.9Z"/><path class="cls-8" d="M102.2,121.9h0"/><path class="cls-8" d="M100.5,200.5c0,.2-.2.3-.3.5"/><path class="cls-7" d="M121.3,176c-5.3,14.8-8,15.5-13.9,27.8-4.6-.2-3.7-.5-6.9-3.3.4-.7.8-1.3,1.1-1.9t0,0c3.8-7.5,2.3-12.7,5-18.6.2-.4.3-.7.5-1.1,4.9,1.2,10.2,0,14.3-2.8Z"/><path class="cls-2" d="M109.2,215.5c0,1.8-1.2,2.1-3,2.8-1.4.5-2.9,0-4.3-.5-1.2-.5-5.1-4.5-5.2-6.2-.5-4.1.7-7.5,3.6-11.4.1,0,.2.2.3.3,3.1,2.8,2.3,3.1,6.9,3.3-.9,1.5,1.8,9.9,1.8,11.7Z"/><path class="cls-8" d="M101.6,198.6c-.5.6-.9,1.1-1.4,1.7"/><path class="cls-2" d="M139.6,89.6c-1.2.6-2.1,1.1-2.8,1.5h0c.5-2.6-2-7-4-9.2.6-.2,1.2-.4,1.8-.6h0c3.1,1.5,5.1,4.8,5,8.2h0Z"/><path class="cls-8" d="M132.7,81.9s0,0,0,0"/><path class="cls-6" d="M117.6,99.9c.1,3.1-.9,5.9-3.2,8.4-2.9-1.4-6.8-2-10-1.8,0-.9-.1-1.8-.1-2.6,0-6.3,1.5-9.8,2.6-11.2,1.9-.6,4.1-.7,6,0,1.9.7,3.6,2.2,4.2,4.1.2.6.3,1.2.4,1.8,0,.1,0,.3,0,.4,0,.3,0,.6,0,.8,0,0,0,0,0,.1Z"/><path class="cls-7" d="M129.6,63.6c-.5-.8-1.2-1.5-2-2.3-.7-.8-1.4-1.8-1.8-3-.4-1.2-.7-1.7-1.6-2.8,0,.1-.3.3-.7.7-.2.2-1.3,1.3-1.4,1.4-.5.3-1,0-1.1-.6,0-.6,2.4-1.7,2.8-1.7.1,0,.2,0,.3,0-.1-.2-.3-.3-.4-.5-2.7-3-15.7-7.7-13.5,11.7,0,.6,3.5,9.5,2.9,9.2,2.2,6.1,4.2,7.3,6.4,9.2,1.2,1,2.2,1.9,2.9,2.8,0,0,0,0,0,0,.8.5,1.8.7,2.7.5,1-.2,1.8-.6,2.3-1.5,0,0,0,0,0-.1-.3-1.3-.6-2.3-.9-3.4-.2-1.1-.4-2.3-.4-4l-1.4-.5c.7,0,1.3,0,1.7-.1,1.9-.4,3.7,0,4.7-3.2,1-3,0-9.3-1.6-11.9ZM116.8,60.9c-.4.2-3.3,2.1-3.3,2.1-.5-.4,2-2.9,2.6-3.5.7-.5,2.2-1.1,1.9.3,0,.4-.8.8-1.2,1ZM119.4,65.9c-.3.2-.9-.2-1.4-1-.4-.7-.5-1.5-.2-1.7.3-.2,1,.2,1.4,1s.5,1.5.2,1.7ZM124.5,59.3c.3-.2.9.3,1.3,1,.4.7.6,1.5.3,1.7-.3.2-.9-.3-1.3-1-.4-.7-.6-1.5-.3-1.7ZM127.9,73.3c-1.8,1.2-4.7-.6-4.8-1.1,1.6-.4,5.3-2.5,6.5-3.5.6.9.6,3.1-1.7,4.5Z"/><path class="cls-8" d="M117.5,78.2c1.2.3,4.9.6,7.3.6"/><path class="cls-4" d="M128.3,61.1l-.7.2c-.7-.8-1.4-1.8-1.8-3-.4-1.2-.7-1.7-1.6-2.8,0,0,0-.1-.1-.2-.1-.2-.3-.3-.4-.5-2.7-3-15.7-7.7-13.5,11.7,0,.6,3.5,9.5,2.9,9.2,2.2,6.1,4.2,7.3,6.4,9.2,1.2,1,2.2,1.9,2.9,2.8,0,0,0,0,0,0,2.7,3.1,2.9,5.8,2.6,10.1,0,.9-.8,2-1.5,3h0c-.4.6-.9,1.1-1.2,1.5-.4.6-.9,1.1-1.4,1.5-.6.5-1.3.8-2,.9-1.1-1.3-1.2-3.1-1.3-4.9,0,0,0,0,0-.1,0-.3,0-.6,0-.8,0-.1,0-.3,0-.4,0-.6-.2-1.2-.4-1.8-.7-1.9-2.3-3.4-4.2-4.1-1.9-.7-4-.6-6,0-1.2,1.4-2.7,4.9-2.6,11.2-4.1-.6-3.9-21.3-4.7-26-.2-1.1-.4-2.3-.6-3.4-.2-1.2-.3-2.3-.5-3.5-.4-3.6,2.1-8.8,4-11.9,1.7-2.8,9.7-8.5,11.7-9.5,1.9-1,3.2-1.1,5.2-.1,3,1.5,5.3,4.1,7,7,.8,1.5,1.5,3,1.9,4.6Z"/><path class="cls-8" d="M128.4,61.5c0-.1,0-.3-.1-.4"/><path class="cls-8" d="M104.4,103.9s0,0-.1,0"/><path class="cls-8" d="M122.5,87.9s0,0-.1,0"/><path class="cls-8" d="M127.7,66c.9,1.6-2.1,3.1-2.7,3.1"/><path class="cls-9" d="M119.4,65.9c-.3.2-.9-.2-1.4-1-.4-.7-.5-1.5-.2-1.7.3-.2,1,.2,1.4,1s.5,1.5.2,1.7Z"/><path class="cls-9" d="M126.1,61.9c-.3.2-.9-.3-1.3-1-.4-.7-.6-1.5-.3-1.7.3-.2.9.3,1.3,1,.4.7.6,1.5.3,1.7Z"/><path class="cls-2" d="M127.9,73.3c-1.8,1.2-4.7-.6-4.8-1.1,1.6-.4,5.3-2.5,6.5-3.5.6.9.6,3.1-1.7,4.5Z"/><path class="cls-4" d="M118.1,59.9c0,.4-.8.8-1.2,1-.4.2-3.3,2.1-3.3,2.1-.5-.4,2-2.9,2.6-3.5.7-.5,2.2-1.1,1.9.3Z"/><path class="cls-4" d="M124.2,55.5c0,.1-.3.3-.7.7-.2.2-1.3,1.3-1.4,1.4-.5.3-1,0-1.1-.6,0-.6,2.4-1.7,2.8-1.7.1,0,.2,0,.3,0,0,0,0,.1.1.2Z"/><path class="cls-8" d="M124.2,55.5s0,0-.1-.2c.1,0,.2,0,.1.2Z"/><path class="cls-8" d="M123.5,173.7c0,0-.1,0-.2,0"/><path class="cls-2" d="M129.1,170.6c-.7,2.1-3.3,2.1-5.5,2.9v.3c.1,0,.2,0,.3,0-.4.4-.8.9-1.3,1.2,1.2-3.1,2.9-7.6,3.5-10.9,0-.3.1-.5.2-.8h.3c1.4,1.9,3.2,5,2.5,7.2Z"/><path class="cls-6" d="M136.7,91.1c0,.5-.3.9-.6,1.2-2.3,1.5.8-.1-5.5,2.6-.4-2.4-1.4-5-3.2-8.3h0c-.3-1.2-.6-2.3-.9-3.4h.2c3.8-3.7,4.6-2.5,4.6-2.5.4.2.8.6,1.2,1.1,2,2.2,4.5,6.6,4,9.2Z"/><path class="cls-2" d="M114.4,108.4c-.2.7-.3,1.4-.5,2-3.1-1.3-6.5-1.9-9.9-1.7h0c.1-.7.2-1.4.4-2.1,3.2-.2,7.1.4,10,1.8Z"/><line class="cls-8" x1="113.9" y1="110.3" x2="113.9" y2="110.3"/><path class="cls-5" d="M126.5,56.4h-.1c-1.6-2.9-4-5.4-7-7-2-1-3.2-.9-5.2.1-2.1,1-10.1,6.7-11.7,9.5-1.9,3.2-4.4,8.3-4,11.9.1,1.2.3,2.4.5,3.5-4.1.6-7.5-.1-9.2-2.3-4.2-5.2,1.4-16.8,12.6-25.8,11.2-9,23.6-12.1,27.8-6.9,2.9,3.6,1.4,10.1-3.7,16.9Z"/></g></svg>