<?xml version="1.0" encoding="UTF-8"?><svg xmlns="http://www.w3.org/2000/svg" width="300" height="300" viewBox="0 0 300 300"><defs><style>.cls-1{fill:#3c2e1e;}.cls-1,.cls-2,.cls-3,.cls-4,.cls-5,.cls-6{stroke-width:.5px;}.cls-1,.cls-2,.cls-3,.cls-4,.cls-5,.cls-6,.cls-7{stroke:#000;}.cls-1,.cls-2,.cls-4,.cls-5,.cls-6{stroke-linecap:round;stroke-linejoin:round;}.cls-8{stroke:#58595b;stroke-width:.2px;}.cls-8,.cls-3,.cls-7{stroke-miterlimit:10;}.cls-8,.cls-4{fill:#fff;}.cls-2,.cls-3{fill:#e0c6af;}.cls-5{fill:#f0efed;}.cls-6,.cls-7{fill:none;}.cls-9,.cls-10{stroke-width:0px;}.cls-10{fill:#27b04b;}</style></defs><g id="Grid"><rect class="cls-8" x="29.3" y="29.3" width="241.5" height="241.5"/><line class="cls-8" x1="29.3" y1="258.6" x2="270.7" y2="258.6"/><line class="cls-8" x1="29.3" y1="246.6" x2="270.7" y2="246.6"/><line class="cls-8" x1="29.3" y1="234.5" x2="270.7" y2="234.5"/><line class="cls-8" x1="29.3" y1="222.5" x2="270.7" y2="222.5"/><line class="cls-8" x1="29.3" y1="210.4" x2="270.7" y2="210.4"/><line class="cls-8" x1="29.3" y1="198.3" x2="270.7" y2="198.3"/><line class="cls-8" x1="29.3" y1="186.2" x2="270.7" y2="186.2"/><line class="cls-8" x1="29.3" y1="174.2" x2="270.7" y2="174.2"/><line class="cls-8" x1="29.3" y1="162.1" x2="270.7" y2="162.1"/><line class="cls-8" x1="29.3" y1="150" x2="270.7" y2="150"/><line class="cls-8" x1="29.3" y1="137.9" x2="270.7" y2="137.9"/><line class="cls-8" x1="29.3" y1="125.8" x2="270.7" y2="125.8"/><line class="cls-8" x1="29.3" y1="113.8" x2="270.7" y2="113.8"/><line class="cls-8" x1="29.3" y1="101.7" x2="270.7" y2="101.7"/><line class="cls-8" x1="29.3" y1="89.6" x2="270.7" y2="89.6"/><line class="cls-8" x1="29.3" y1="77.5" x2="270.7" y2="77.5"/><line class="cls-8" x1="29.3" y1="65.5" x2="270.7" y2="65.5"/><line class="cls-8" x1="29.3" y1="53.4" x2="270.7" y2="53.4"/><line class="cls-8" x1="29.3" y1="41.4" x2="270.7" y2="41.4"/><line class="cls-8" x1="258.6" y1="29.3" x2="258.6" y2="270.7"/><line class="cls-8" x1="246.6" y1="29.3" x2="246.6" y2="270.7"/><line class="cls-8" x1="234.5" y1="29.3" x2="234.5" y2="270.7"/><line class="cls-8" x1="222.5" y1="29.3" x2="222.5" y2="270.7"/><line class="cls-8" x1="210.4" y1="29.3" x2="210.4" y2="270.7"/><line class="cls-8" x1="198.3" y1="29.3" x2="198.3" y2="270.7"/><line class="cls-8" x1="186.2" y1="29.3" x2="186.2" y2="270.7"/><line class="cls-8" x1="174.2" y1="29.3" x2="174.2" y2="270.7"/><line class="cls-8" x1="162.1" y1="29.3" x2="162.1" y2="270.7"/><line class="cls-8" x1="150" y1="29.3" x2="150" y2="270.7"/><line class="cls-8" x1="137.9" y1="29.3" x2="137.9" y2="270.7"/><line class="cls-8" x1="125.8" y1="29.3" x2="125.8" y2="270.7"/><line class="cls-8" x1="113.8" y1="29.3" x2="113.8" y2="270.7"/><line class="cls-8" x1="101.7" y1="29.3" x2="101.7" y2="270.7"/><line class="cls-8" x1="89.6" y1="29.3" x2="89.6" y2="270.7"/><line class="cls-8" x1="77.5" y1="29.3" x2="77.5" y2="270.7"/><line class="cls-8" x1="65.5" y1="29.3" x2="65.5" y2="270.7"/><line class="cls-8" x1="53.4" y1="29.3" x2="53.4" y2="270.7"/><line class="cls-8" x1="41.4" y1="29.3" x2="41.4" y2="270.7"/><line class="cls-7" x1="23.9" y1="150" x2="276.1" y2="150"/><polygon class="cls-9" points="24.7 152.5 20.4 150 24.7 147.5 24.7 152.5"/><polygon class="cls-9" points="275.3 152.5 279.6 150 275.3 147.5 275.3 152.5"/><line class="cls-7" x1="150" y1="23.9" x2="150" y2="276.1"/><polygon class="cls-9" points="147.5 24.7 150 20.4 152.5 24.7 147.5 24.7"/><polygon class="cls-9" points="147.5 275.3 150 279.6 152.5 275.3 147.5 275.3"/></g><g id="Lines"><polygon class="cls-10" points="259.5 87.6 265.8 71.7 249 74.8 252.7 79.3 44.2 251.3 40.5 246.8 34.2 262.7 51 259.6 47.3 255 255.8 83 259.5 87.6"/></g><g id="Asia"><path class="cls-6" d="M72.4,139.2h0"/><path class="cls-6" d="M83.9,118h0"/><path class="cls-6" d="M72.4,139.2h0"/><path class="cls-5" d="M138.9,128.5c-1.1-1.4-5.1-2.6-9.9-3.3-5.8-.8-12.8-.7-17.7.7.4-1.9,1.1-4.9,2.2-9.8,1.3-6.1,3.7-10.3,4.9-15,1.1-4.3,1.3-8.9-1.1-15.6h0c-1.1-.6-2.9-2.2-3.6-2.6-2.7-1.8-5.9-3.9-10.3-5-.7-.2-1.3-.8-1.4-1.5-8.2,3.5-17.1,9.1-29,16.1-3,2.3-7,3-4.4,11.1,2,6.2,3.3,10.8,6.1,19.5.1.4.5.6,1.1.7,2.1.3,6.5-1.2,8.2-4.3,2.6.7,3.3,3.2,3.1,5.8-.2,2.6-2.6,3.7-5.5,3.9-1.7.2-3.1-.5-4.3-1.6-1.2,4-4.8,11.5-4.9,11.5-2.3,13.8,3.2,20.2,0,34.8-3.9,18.2-1.3,14.9-4,33.5h-.3c-.6.6-1.2,1.7-1.7,3.1,3.4,2.3,10.8.4,19.5-3.8,13.2-6.4,29.4-18,39.7-28.1,5-4.9,8.5-9.4,9.6-12.8-.4-14.6,3.8-24.1,3.7-37.2ZM83.9,118c-1.6-5-2.3-12-3.6-16.9,2.3-.2,6.8-1.9,11.2-3.7,0,3.5-6.5,17.8-7.7,20.6Z"/><path class="cls-6" d="M84.2,118.9c0,.2-.2.4-.3.6"/><path class="cls-6" d="M109.7,134.3c.7-4.5.7-4.3,1.6-8.3"/><path class="cls-6" d="M101,93.7c-2.4.8-5.9,2.3-9.4,3.7"/><path class="cls-6" d="M83.9,118h0c0,.3.2.6.3.9"/><path class="cls-5" d="M129,124.9v.3c-5.8-.8-12.9-.7-17.8.7.4-1.9,1.1-4.9,2.2-9.8,1.3-6.1,3.7-10.3,4.9-15h0c-1.8,7.1-1.1,10.4-2.8,17.7,2.7,2.2,10.1,4.8,13.4,6Z"/><path class="cls-6" d="M118.5,100.6c0,.2-.1.4-.1.6"/><path class="cls-1" d="M89,214.1c-2.4,2.2-7.5,3.9-10.2,4.5-5.4,1.3-8.5,2.2-9.9,1.1-3.4-2.7-3.4-6.5-2.4-9.2,3.4,2.3,10.8.4,19.5-3.8,6.1,0,6.9,3.8,3,7.4Z"/><path class="cls-6" d="M85.9,206.7c-.1,0-.2,0-.4,0"/><path class="cls-4" d="M131.9,77.9v.2c-.3.4-1,.9-1.4,1.7-.1,0-.3,0-.6,0-2.5-.5-1.4-.8-2.3-3,.3.2.7.4,1.1.6,2.1.6,1.5,0,3.2.6Z"/><path class="cls-6" d="M130.5,79.7s0,0,0,0"/><path class="cls-2" d="M87,125.3c-.2,2.6-2.6,3.7-5.5,3.9-1.7.2-3.1-.5-4.3-1.6-1.2-1.1-2-2.4-1.5-3.8,2.1.3,6.5-1.2,8.2-4.3,2.6.7,3.3,3.2,3.1,5.8Z"/><path class="cls-1" d="M145.8,166.9c-.9,3.8-4.7,5.7-9.4,8.6-2.2,1.4-5.8,2.9-8.5,4-1.1.4-1.8,0-2.3-1,5-4.9,8.5-9.4,9.6-12.8,2.3-1,11.3-1.9,10.6,1.2Z"/><path class="cls-6" d="M125.6,178.5s0,0,0,0"/><path class="cls-3" d="M134.3,66.5h0c0,0,0,0,0-.1-.3-.1-.4-.3-.5-.6-.2-.7-.5,0-.9-.7-.4-.6-.5-1.6-1.2-1.6-.7,0-1.1-1.1-1.5-.6-.4.7-.4,1.8-1.3,2.2-.9.4-2.1-.6-3-.1-.7.3-.7,1.2-.9,1.9-.2.8-.9,1.5-1.7,1.8-.8.3-1.9.1-2.5-.5-.3-.4-.6-.9-1.1-1-.5,0-.8.3-1.2.5-.9.4-2.2-.1-2.4-1-.1-.6-.9-1-1.2-1.5-.4-.7-1.5-.9-2.2-.5-.8.4-1.2,1.1-1.6,1.8-.4.8-.4.7-.4,1.6,0,.9.3,1.8,1,2.4.3.2.6.4,1,.4-1.8,1.9-2.6,3-5.1,2.6-.4,0-.8-.1-1.2-.4v.2c1.2.6,3.3,2.2,3.9,2.6,2,1.1,3.4,2.2,5.2,3.4.8.5,3.8,2,4.3,2.7,3.7,3.4,6.1,3.1,7.2,3.3,1.4.4,1.2-1.5,2.1-2.5.8-.9,1.7-2.6,1.7-2.9,0-.3-.1-.4-.4-.4-.1,0-.3,0-.6,0-2.5-.5-1.4-.8-2.3-3,.3.2.7.4,1.1.6,2.1.6,1.5,0,3.2.6.1,0,.3,0,.4.2.4-.8.1-1.3.7-2.8h0c1-.2,2-.9,2-1.8,0-1.2-.3-2.8-.7-6.9Z"/><path class="cls-9" d="M132,67.9c-.2,1.3-.9,2.2-1.6,2.1-.6-.1-1-1.2-.7-2.5.2-1.3.9-2.2,1.6-2.1.6.1,1,1.2.7,2.5Z"/><path class="cls-5" d="M118.6,84.3c-.5.8,0,1.4-1,1.3-.1,0-.3,0-.4-.1-1.1-.5-2.9-2.1-3.6-2.6-2.7-1.8-5.9-3.9-10.3-5-.7-.2-1.3-.8-1.4-1.5-.1-.7.5-1.4,1.2-1.9.8-.5,1.5-1.4,2.4-1.4.2,0,.5,0,.8.2,1.3.6,3.4,2.2,4.1,2.6,2,1.1,3.4,2.2,5.2,3.4.8.5,3.8,2,4.3,2.7.6.7-.8,1.4-1.3,2.2Z"/><path class="cls-1" d="M138.4,58.8c.4.8.7,1.7.2,2.4-.7,1.1-2.1.6-1.8,2.3.1.6.3,1.2.3,1.8,0,.6-.3,1.3-1,1.4-.5.1-1.3,0-1.8-.2,0,0,0,0,0,0-.3-.1-.4-.3-.5-.6-.2-.7-.5,0-.9-.7-.4-.6-.5-1.6-1.2-1.6-.7,0-1.1-1.1-1.5-.6-.4.7-.4,1.8-1.3,2.2-.9.4-2.1-.6-3-.1-.7.3-.7,1.2-.9,1.9-.2.8-.9,1.5-1.7,1.8-.8.3-1.9.1-2.5-.5-.3-.4-.6-.9-1.1-1-.5,0-.8.3-1.2.5-.9.4-2.2-.1-2.4-1-.1-.6-.9-1-1.2-1.5-.4-.7-1.5-.9-2.2-.5-.8.4-1.2,1.1-1.6,1.8-.4.8-.4.7-.4,1.6,0,.9.3,1.8,1,2.4.3.2.6.4,1,.4-1.8,1.9-2.6,3-5.1,2.6-.4,0-.8-.1-1.2-.4-1.2-.7-2.6-2.1-3.5-2.3-1.3-.3-2.5-1-2.9-2.2-.2-.6-.2-1.2-.5-1.8-.7-1-2.8-1.1-3-2.3-.3-1.4,2.3-2,2.6-3.4.2-1.3-1.5-2.1-2.2-3.3-.6-1.1,2-1.9,2.8-2.9.8-1,1.5-2.8,2.7-3.4.4-.2.9-.5,1.2-.8.3-.4.4-.9.1-1.2-.2-.3-.5-.4-.8-.7-.6-.6-.2-1.6.6-2.1s1.7-.5,2.5-.6c.9-.1,1.8-.3,2.4-.9.9-.9.7-2.6,1.9-3.3,1.2-.8,3,0,4.1.3,1.6.5,3.2,1.3,4.7.5,1.2-.7,2.7-1.5,4-1,1.3.6,1.6,2.1,2.7,2.8.9.6,2.1.6,3.2.4,1.1-.1,2.2-.4,3.3-.2,1.1.2,2.1,1,2,2,0,.7-.7,1.4-.5,2.1.2.8,1.2,1,2.1,1.3,1,.3,2,.8,2.6,1.7.5.8.5,2.1-.3,2.7-.9.8-.4,3.2,0,4.1Z"/><path class="cls-6" d="M112.8,70.9c.6.1,1.2,0,1.6-.3"/><path class="cls-6" d="M112.8,70.9s0,0,0,0"/><path class="cls-6" d="M133,75.2c-.6,0-1.1,0-1.6-.2"/></g></svg>