<?xml version="1.0" encoding="UTF-8"?><svg xmlns="http://www.w3.org/2000/svg" width="300" height="300" viewBox="0 0 300 300"><defs><style>.cls-1{stroke:#58595b;stroke-width:.2px;}.cls-1,.cls-2{fill:#fff;}.cls-1,.cls-3{stroke-miterlimit:10;}.cls-4{fill:#c5a479;}.cls-4,.cls-5,.cls-6,.cls-7,.cls-2,.cls-8,.cls-9{stroke-linecap:round;stroke-linejoin:round;stroke-width:.5px;}.cls-4,.cls-5,.cls-6,.cls-7,.cls-2,.cls-8,.cls-9,.cls-3{stroke:#000;}.cls-5{fill:#deb796;}.cls-6{fill:#b3cfd2;}.cls-7{fill:#65483a;}.cls-8,.cls-3{fill:none;}.cls-10,.cls-11{stroke-width:0px;}.cls-11{fill:#27b04b;}</style></defs><g id="Grid"><rect class="cls-1" x="29.3" y="29.3" width="241.5" height="241.5"/><line class="cls-1" x1="29.3" y1="258.6" x2="270.7" y2="258.6"/><line class="cls-1" x1="29.3" y1="246.6" x2="270.7" y2="246.6"/><line class="cls-1" x1="29.3" y1="234.5" x2="270.7" y2="234.5"/><line class="cls-1" x1="29.3" y1="222.5" x2="270.7" y2="222.5"/><line class="cls-1" x1="29.3" y1="210.4" x2="270.7" y2="210.4"/><line class="cls-1" x1="29.3" y1="198.3" x2="270.7" y2="198.3"/><line class="cls-1" x1="29.3" y1="186.2" x2="270.7" y2="186.2"/><line class="cls-1" x1="29.3" y1="174.2" x2="270.7" y2="174.2"/><line class="cls-1" x1="29.3" y1="162.1" x2="270.7" y2="162.1"/><line class="cls-1" x1="29.3" y1="150" x2="270.7" y2="150"/><line class="cls-1" x1="29.3" y1="137.9" x2="270.7" y2="137.9"/><line class="cls-1" x1="29.3" y1="125.8" x2="270.7" y2="125.8"/><line class="cls-1" x1="29.3" y1="113.8" x2="270.7" y2="113.8"/><line class="cls-1" x1="29.3" y1="101.7" x2="270.7" y2="101.7"/><line class="cls-1" x1="29.3" y1="89.6" x2="270.7" y2="89.6"/><line class="cls-1" x1="29.3" y1="77.5" x2="270.7" y2="77.5"/><line class="cls-1" x1="29.3" y1="65.5" x2="270.7" y2="65.5"/><line class="cls-1" x1="29.3" y1="53.4" x2="270.7" y2="53.4"/><line class="cls-1" x1="29.3" y1="41.4" x2="270.7" y2="41.4"/><line class="cls-1" x1="258.6" y1="29.3" x2="258.6" y2="270.7"/><line class="cls-1" x1="246.6" y1="29.3" x2="246.6" y2="270.7"/><line class="cls-1" x1="234.5" y1="29.3" x2="234.5" y2="270.7"/><line class="cls-1" x1="222.5" y1="29.3" x2="222.5" y2="270.7"/><line class="cls-1" x1="210.4" y1="29.3" x2="210.4" y2="270.7"/><line class="cls-1" x1="198.3" y1="29.3" x2="198.3" y2="270.7"/><line class="cls-1" x1="186.2" y1="29.3" x2="186.2" y2="270.7"/><line class="cls-1" x1="174.2" y1="29.3" x2="174.2" y2="270.7"/><line class="cls-1" x1="162.1" y1="29.3" x2="162.1" y2="270.7"/><line class="cls-1" x1="150" y1="29.3" x2="150" y2="270.7"/><line class="cls-1" x1="137.9" y1="29.3" x2="137.9" y2="270.7"/><line class="cls-1" x1="125.8" y1="29.3" x2="125.8" y2="270.7"/><line class="cls-1" x1="113.8" y1="29.3" x2="113.8" y2="270.7"/><line class="cls-1" x1="101.7" y1="29.3" x2="101.7" y2="270.7"/><line class="cls-1" x1="89.6" y1="29.3" x2="89.6" y2="270.7"/><line class="cls-1" x1="77.5" y1="29.3" x2="77.5" y2="270.7"/><line class="cls-1" x1="65.5" y1="29.3" x2="65.5" y2="270.7"/><line class="cls-1" x1="53.4" y1="29.3" x2="53.4" y2="270.7"/><line class="cls-1" x1="41.4" y1="29.3" x2="41.4" y2="270.7"/><line class="cls-3" x1="23.9" y1="150" x2="276.1" y2="150"/><polygon class="cls-10" points="24.7 152.5 20.4 150 24.7 147.5 24.7 152.5"/><polygon class="cls-10" points="275.3 152.5 279.6 150 275.3 147.5 275.3 152.5"/><line class="cls-3" x1="150" y1="23.9" x2="150" y2="276.1"/><polygon class="cls-10" points="147.5 24.7 150 20.4 152.5 24.7 147.5 24.7"/><polygon class="cls-10" points="147.5 275.3 150 279.6 152.5 275.3 147.5 275.3"/></g><g id="Lines"><polygon class="cls-11" points="300.1 54.9 285.1 46.6 285.1 52.5 14.9 52.5 14.9 46.6 0 54.9 14.9 63.2 14.9 57.4 285.1 57.4 285.1 63.2 300.1 54.9"/></g><g id="Asia"><path class="cls-6" d="M152.4,238.5c-.2,0-.5,0-.9.1-2.2.3-6.8.7-9.6.6-.9,0-1.7,0-2.1-.3-1.9-14.2-1.5-30.5-2-39.1-.7-11.5,0-16.9-2.6-27.8-1.4,9.6-1.9,20-2.6,28.3-.8,10.2.2,24.2-2.4,38.1-.3,0-1.1,0-2.2,0-2.5,0-6.4-.3-8.8-.4-.9,0-1.7,0-2,0,.5-9.4-4.3-29.3-.8-37.8,2.4-5.9-1.6-18.1-.4-24.9h0c3.1.2,6.1.5,9.2.7,3.1-15.1,4.5-18.2,5.1-27.2,3.8,1.2,6.9,1.5,9.4,1.5s1.2,0,1.7,0c3.4-.2,5.4-1.2,6.6-1.4,0,9.2.7,14.1,2,26,1.7.1,3.4-.1,4.9-.8,1,6.6-2,19.3-.2,25.8,2.2,8.4-2.5,28.5-2.1,38.5Z"/><path class="cls-5" d="M150.8,89c-1.8,0-3.2,0-4.8-.1-1.1,0-2.4-1-2.5-2.1,0-.8-.2-1.5-.2-2.2h0c-1.1,0-1.4,0-3.7-.1h0c0,.8-.2,1.5-.2,2.3-.1,1.1-1.4,2-2.5,2.1-1.6,0-3,.1-4.8.1-1.8,0-3.3-1.3-3.4-3,0-.6,0-1.3-.1-1.8,0,.4,0,.8,0,1.2.4,4.4.9,11.7,4.1,14.5,9.6,7.5,12.5,2.6,15.8-1.6,2.3-2.9,3.1-6.4,3.2-9.2-.2,0-.4,0-.6,0ZM141.5,97.4c-1.2.2-2.7,0-4.1-.5-1-.3-1.6-1-2.4-2.3-.2-.2,0-.5.3-.4,2.1.8,7.1,1.6,9.9.4-.9,1.6-1.8,2.5-3.8,2.8Z"/><path class="cls-8" d="M147.9,148.9s0,0,.1,0c0,0,.2,0,.2,0"/><path class="cls-8" d="M139.4,164.9c-1.3,1.2-3.1,3.4-3.8,4.1"/><path class="cls-8" d="M150.5,79.1c0-.2-.2-.3-.4-.4"/><path class="cls-8" d="M132,78.6c-1,.2-1.8.6-1.9.9"/><path class="cls-8" d="M132,78.6c2-.5,4.9-.7,5.7,0"/><path class="cls-8" d="M144.8,90.1c-1,1.9-2.3,1.9-5.6,1.4"/><path class="cls-8" d="M135.6,169.1c-.2,1-.3,2-.4,3"/><path class="cls-8" d="M135.2,172c0,0,0-.1,0-.2"/><path class="cls-7" d="M156.8,173c-.6.5-1.4.8-2.1,1.1-1.5.6-3.2.9-4.9.8-1.2-12-1.9-16.8-2-26,0-2.3,0-4.8,0-7.8h-.1c1.3-3.7,2.3-8.1,3-12.2l.7.2c-.4,2.3-.6,4-.7,4.7,0,6.7.1,6.9.2,13.2,1.9,11.4,1.7,8.8,5.8,26.1Z"/><path class="cls-4" d="M153.1,94.6c-3.3,13.8-.2,12.7-.6,20,0,1.4-.5,7.5-1.6,14.2-.7,4.1-1.7,8.4-3,12.1-1.6,4.4-3.8,7.9-6.7,8.8-.5.2-1,.2-1.5.2s-.3,0-.5,0c-2.6-.2-5.7-6.4-8.5-13.6-3.2-8.3-6.1-17.9-7.3-21.2-1.8-4.9-2-4.1-2.3-5.6-1.2-5.1-3.8-18.6.7-33.4.7-2.5,1.7-4.9,2.9-7.4,2.7-5.8,14.5-7.9,20.2-4.8,4.6,2.5,6.8,6.4,8.3,11.3.3,1.2.6,2.6.8,4.2l-1.4-.4c-.8-.2-1.6-.4-2.4-.5h0c-.1,0-.3-.2-.5-.2-2.1-5.3-7.3-9.7-10.4-7.6-2.7,1.8-6.6,4.4-8.9,8-.6.1-1.2.3-1.9.4h-.5c0,.1,0,.4,0,.4,0,.6.3,2.2.4,4.4,0,.4,0,.8,0,1.2.4,4.4.9,11.7,4.1,14.5,9.6,7.5,12.5,2.6,15.8-1.6,2.3-2.9,3.1-6.4,3.2-9.2,1.2-.2,2.2-1,2.6-2.1-.1,2.9-.4,5.8-.9,7.8Z"/><path class="cls-9" d="M139,79c-2.3-.5-4.7-.7-7-.4h0c-.6,0-1.1.2-1.7.3-.6.1-1.2.3-1.9.4h-.5c0,.1,0,.4,0,.4,0,.6.3,2.2.4,4.4,0,.6,0,1.2.1,1.8.1,1.7,1.6,3,3.4,3,1.8,0,3.2,0,4.8-.1,1.1,0,2.4-1,2.5-2.1,0-.8.2-1.6.2-2.3,0-.8.2-1.7.2-2.6,0-.8.1-1.7.2-2.7l-.8-.2ZM137.9,86.2c0,.8-.8,1.4-1.6,1.4-1.6,0-3,.1-4.8,0-1.1,0-2-.8-2.1-1.8-.1-1.9-.2-4.5-.3-5,3.8-1.1,7.5-.9,9.3-.4-.2,2.4-.4,3.9-.6,5.7Z"/><path class="cls-8" d="M149.6,78.5c-1.7-.6-5.2-.2-5.7.4,2-.4,4.1-.5,6.2-.2-.1,0-.3-.2-.5-.2Z"/><path class="cls-5" d="M149.6,78.5c-1.7-.6-5.2-.2-5.7.4l-1.1.3c0,1,.1,1.9.2,2.7h-.1s-3.1,0-3.1,0h0c0-.8.1-1.7.2-2.7l-.8-.2c-2.3-.5-4.7-.7-7-.4h0c-.6,0-1.1.2-1.7.3,2.3-3.6,6.2-6.3,8.9-8,3.1-2,8.3,2.4,10.4,7.6Z"/><path class="cls-2" d="M129.2,80.9c0,.5.1,3.1.3,5,0,1,1,1.8,2.1,1.8,1.8,0,3.2,0,4.8,0,.8,0,1.5-.6,1.6-1.4.2-1.9.4-3.4.6-5.7-1.8-.4-5.5-.7-9.3.4ZM134.8,85.2c-.4,0-.8-.6-.8-1.5s.4-1.5.8-1.5.8.7.8,1.5-.4,1.5-.8,1.5Z"/><path class="cls-8" d="M153.4,80.9q0-.1,0,0h0Z"/><path class="cls-2" d="M145.3,94.6c-.9,1.6-1.8,2.5-3.8,2.8-1.2.2-2.7,0-4.1-.5-1-.3-1.6-1-2.4-2.3-.2-.2,0-.5.3-.4,2.1.8,7.1,1.6,9.9.4Z"/><path class="cls-8" d="M141.3,150c.7,3.7.6,7.6-.3,11.3"/><path class="cls-8" d="M138.3,152.2c.6,1.7.7,3.6.2,5.3"/><path class="cls-8" d="M125.6,107c3,.8,5.3,3.3,7.3,5.6,2.1,2.3,4.4,4.7,7.5,5.3,3.1.6,6.8-1.8,6.3-4.9"/><path class="cls-8" d="M135.2,127.9c.3,3.5,4.9,5.9,7.9,4.2"/><path class="cls-9" d="M143.2,84.6h0c-1.1,0-1.4,0-3.7-.1h0c0-.8.2-1.7.2-2.6h0s3.1,0,3.1,0h.1c0,.9.2,1.8.2,2.7Z"/><path class="cls-9" d="M135.6,83.7c0,.8-.4,1.5-.8,1.5s-.8-.6-.8-1.5.4-1.5.8-1.5.8.7.8,1.5Z"/><path class="cls-8" d="M129.2,80.9h0s0,0,0,0h0"/><path class="cls-7" d="M160.4,69.8c-2.5.2-5.1.2-7.6,0-.3-3.7-.7-7.9-.7-10.5.2,0,.4,0,.5,0,2.1.1,4.1,0,6.1-.4.1,0,.3,0,.4,0,.5,3.7,1,7.3,1.2,10.9Z"/><path class="cls-9" d="M153.8,79.5l-1.4-.4c-.8-.2-1.6-.4-2.4-.5h0c-2.1-.3-4.1-.2-6.2.2l-1.1.3c0,1,.1,1.9.2,2.7,0,1,.2,1.8.2,2.7,0,.7.2,1.4.2,2.2.1,1.1,1.4,2,2.5,2.1,1.6,0,3,.1,4.8.1.2,0,.4,0,.6,0,1.2-.2,2.2-1,2.6-2.1,0-.3.2-.6.2-.9.2-3,.4-5.3.5-6.2l-.9-.2ZM153.4,80.9h0c0,.4-.1,3.1-.2,5,0,1-1,1.8-2.1,1.8-1.8,0-3.2,0-4.8,0-.8,0-1.5-.6-1.6-1.4-.2-1.9-.4-3.4-.6-5.7,1.6-.4,6.1-.4,9.3.4,0,0,0,0,0,0h0Z"/><path class="cls-2" d="M144.1,80.5c.2,2.4.4,3.9.6,5.7,0,.8.8,1.4,1.6,1.4,1.6,0,3,.1,4.8,0,1.1,0,2-.8,2.1-1.8.1-1.9.2-4.6.2-5-3.2-.9-7.7-.8-9.3-.4ZM148.4,85.5c-.4,0-.7-.7-.7-1.5s.3-1.5.7-1.5.7.7.7,1.5-.3,1.5-.7,1.5Z"/><path class="cls-9" d="M149.2,84c0,.8-.3,1.5-.7,1.5s-.7-.7-.7-1.5.3-1.5.7-1.5.7.7.7,1.5Z"/><path class="cls-7" d="M159.4,99c-.6,4.7-4.2,10.1-5,15.2-1.2,5.6-2.2,11.1-2.9,14.9l-.7-.2c1.1-6.8,1.5-12.9,1.6-14.2.4-7.3-2.6-6.2.6-20,.5-2,.8-4.8.9-7.8,0-.3.2-.6.2-.9.2-3,.4-5.3.5-6.2l-.9-.2c-.2-1.6-.4-3.1-.8-4.2,0-1.4,0-3.3-.2-5.5,2.5.2,5.1.2,7.6,0,.7,8.7.5,17.5-1,29.1Z"/><path class="cls-8" d="M159.2,59c0,0,0-.1,0-.2"/><path class="cls-9" d="M148,141.1c0,3-.1,5.6,0,7.8-1.2.2-3.2,1.1-6.6,1.4-.5,0-1.1,0-1.7,0v-.3c.5,0,1.1,0,1.6-.2,2.9-.9,5-4.4,6.7-8.8h.1Z"/><path class="cls-9" d="M139.6,150v.3c-2.5,0-5.6-.4-9.4-1.5.2-3.1.3-7,.4-12.4h0c2.8,7.2,5.9,13.4,8.5,13.6.2,0,.3,0,.5,0Z"/><path class="cls-7" d="M130.6,136.4h0c0,5.4-.2,9.2-.4,12.4-.6,9-2,12.2-5.1,27.2-3.1-.2-6.1-.5-9.2-.7-.7,0-1.4,0-2.1-.1.5-6.1,4.4-23,4.9-29,1.8-7.4,2.3-16.2.3-24.9-1.1-5.4-2.2-12-3.7-17-1.1-3.6-2.5-14.1-2.4-17.5.2-5.6.4-11.1,1-17.4,2.4.6,5,.6,7.4,0h.2c0,2.4,0,4.8,0,6.8h0c-4.5,14.8-1.9,28.3-.7,33.4.4,1.5.5.7,2.3,5.6,1.2,3.3,4.1,12.9,7.3,21.2Z"/><line class="cls-8" x1="115.1" y1="59" x2="115.1" y2="59"/><path class="cls-7" d="M121.9,60.1c0,2-.2,5.6-.3,9.2h-.2c-2.4.5-5,.5-7.4,0,.3-3.2.6-6.6,1.1-10.3,2.1.8,4.4,1.2,6.7,1.1Z"/><path class="cls-8" d="M152.1,59c0,.1,0,.2,0,.3"/><path class="cls-5" d="M121.9,60.1c-2.3,0-4.6-.3-6.7-1.1,0,0,0,0,0,0v-.2c-.6-.9-.7-6.1-.8-7.2-.1-1,.2-2.2,1.1-2.8.6-.4,1.3-.4,2-.4,1.6,0,2.8-.4,4.1.4,1.1.7,1.8,1.9,1.9,3.2.1,1.3-.6,7.1-1.5,8Z"/><path class="cls-5" d="M158.8,59c-2,.4-4.1.5-6.1.4h0c-1.4-1-2.4-7.3-1.4-8.6,1-1.3,2.8-1.8,4.5-1.7,1.1.1,2.3.6,2.9,1.5.9,1.3,1,7.1.2,8.4Z"/><path class="cls-8" d="M158.8,59s0,0,0,0"/><path class="cls-2" d="M129.1,251.4c-1,5.1-7.5,5.7-11.5,2.1-1.2-1,.6-11,.8-12.4.1-.7.4-1.9.7-3,2.4,0,6.3.3,8.8.4.6,4.5,1.3,12,1.1,13Z"/><path class="cls-8" d="M119.2,238s0,0,0,0"/><path class="cls-2" d="M153.3,254.4c-4.4,3.6-11.5,3-12.7-2.1-.2-1,.6-8.6,1.3-13.1h0c2.8,0,7.4-.4,9.6-.6.4,1.2.8,2.6.9,3.4.3,1.3,2.2,11.3.9,12.4Z"/></g></svg>