<?xml version="1.0" encoding="UTF-8"?><svg xmlns="http://www.w3.org/2000/svg" width="300" height="300" viewBox="0 0 300 300"><defs><style>.cls-1{stroke:#58595b;stroke-width:.2px;}.cls-1,.cls-2{fill:#fff;}.cls-1,.cls-3{stroke-miterlimit:10;}.cls-4{fill:#13120f;}.cls-4,.cls-5,.cls-6,.cls-7,.cls-2,.cls-8,.cls-9,.cls-10{stroke-linecap:round;stroke-linejoin:round;stroke-width:.5px;}.cls-4,.cls-5,.cls-6,.cls-7,.cls-2,.cls-8,.cls-9,.cls-10,.cls-3{stroke:#000;}.cls-5{fill:#362b25;}.cls-6{fill:#989798;}.cls-7{fill:#b68179;}.cls-8{fill:#e3e8f4;}.cls-9,.cls-3{fill:none;}.cls-11,.cls-12{stroke-width:0px;}.cls-12{fill:#27b04b;}</style></defs><g id="Grid"><rect class="cls-1" x="29.3" y="29.3" width="241.5" height="241.5"/><line class="cls-1" x1="29.3" y1="258.6" x2="270.7" y2="258.6"/><line class="cls-1" x1="29.3" y1="246.6" x2="270.7" y2="246.6"/><line class="cls-1" x1="29.3" y1="234.5" x2="270.7" y2="234.5"/><line class="cls-1" x1="29.3" y1="222.5" x2="270.7" y2="222.5"/><line class="cls-1" x1="29.3" y1="210.4" x2="270.7" y2="210.4"/><line class="cls-1" x1="29.3" y1="198.3" x2="270.7" y2="198.3"/><line class="cls-1" x1="29.3" y1="186.2" x2="270.7" y2="186.2"/><line class="cls-1" x1="29.3" y1="174.2" x2="270.7" y2="174.2"/><line class="cls-1" x1="29.3" y1="162.1" x2="270.7" y2="162.1"/><line class="cls-1" x1="29.3" y1="150" x2="270.7" y2="150"/><line class="cls-1" x1="29.3" y1="137.9" x2="270.7" y2="137.9"/><line class="cls-1" x1="29.3" y1="125.8" x2="270.7" y2="125.8"/><line class="cls-1" x1="29.3" y1="113.8" x2="270.7" y2="113.8"/><line class="cls-1" x1="29.3" y1="101.7" x2="270.7" y2="101.7"/><line class="cls-1" x1="29.3" y1="89.6" x2="270.7" y2="89.6"/><line class="cls-1" x1="29.3" y1="77.5" x2="270.7" y2="77.5"/><line class="cls-1" x1="29.3" y1="65.5" x2="270.7" y2="65.5"/><line class="cls-1" x1="29.3" y1="53.4" x2="270.7" y2="53.4"/><line class="cls-1" x1="29.3" y1="41.4" x2="270.7" y2="41.4"/><line class="cls-1" x1="258.6" y1="29.3" x2="258.6" y2="270.7"/><line class="cls-1" x1="246.6" y1="29.3" x2="246.6" y2="270.7"/><line class="cls-1" x1="234.5" y1="29.3" x2="234.5" y2="270.7"/><line class="cls-1" x1="222.5" y1="29.3" x2="222.5" y2="270.7"/><line class="cls-1" x1="210.4" y1="29.3" x2="210.4" y2="270.7"/><line class="cls-1" x1="198.3" y1="29.3" x2="198.3" y2="270.7"/><line class="cls-1" x1="186.2" y1="29.3" x2="186.2" y2="270.7"/><line class="cls-1" x1="174.2" y1="29.3" x2="174.2" y2="270.7"/><line class="cls-1" x1="162.1" y1="29.3" x2="162.1" y2="270.7"/><line class="cls-1" x1="150" y1="29.3" x2="150" y2="270.7"/><line class="cls-1" x1="137.9" y1="29.3" x2="137.9" y2="270.7"/><line class="cls-1" x1="125.8" y1="29.3" x2="125.8" y2="270.7"/><line class="cls-1" x1="113.8" y1="29.3" x2="113.8" y2="270.7"/><line class="cls-1" x1="101.7" y1="29.3" x2="101.7" y2="270.7"/><line class="cls-1" x1="89.6" y1="29.3" x2="89.6" y2="270.7"/><line class="cls-1" x1="77.5" y1="29.3" x2="77.5" y2="270.7"/><line class="cls-1" x1="65.5" y1="29.3" x2="65.5" y2="270.7"/><line class="cls-1" x1="53.4" y1="29.3" x2="53.4" y2="270.7"/><line class="cls-1" x1="41.4" y1="29.3" x2="41.4" y2="270.7"/><line class="cls-3" x1="23.9" y1="150" x2="276.1" y2="150"/><polygon class="cls-11" points="24.7 152.5 20.4 150 24.7 147.5 24.7 152.5"/><polygon class="cls-11" points="275.3 152.5 279.6 150 275.3 147.5 275.3 152.5"/><line class="cls-3" x1="150" y1="23.9" x2="150" y2="276.1"/><polygon class="cls-11" points="147.5 24.7 150 20.4 152.5 24.7 147.5 24.7"/><polygon class="cls-11" points="147.5 275.3 150 279.6 152.5 275.3 147.5 275.3"/></g><g id="Lines"><polygon class="cls-12" points="192.2 25.7 197.7 27.9 195.6 10.9 182.3 21.6 187.7 23.9 86.1 274.3 80.7 272.1 82.7 289.1 96 278.4 90.6 276.1 192.2 25.7"/></g><g id="Oceania"><path class="cls-7" d="M128.2,63.3c-.2-.3-.5-.7-.8-1-1.1-1.2-2.5-2.6-3.2-4.5-.4-1.3-.8-1.8-1.6-2.9,0,.1-.3.4-.7.8-.2.2-1.3,1.4-1.5,1.4-.5.3-1,0-1.2-.6-.1-.7,2.6-1.8,2.9-1.8.1,0,.2,0,.3,0-.2-.2-.3-.3-.5-.5-1.6-1.8-9.2-3.1-10.3-2.1-1.4,1.3-2.4,7.1-3.5,16.3-.4-.6-2.1,0-2.5.6-.4.7-.2,1.6.2,2.3.9,1.8,2.8,3,4.8,3,.5.9,1.1,2.7,1.5,4.7.6,2.7.9,5.7.2,7-.3.5-.6,1-.9,1.4.2,2.7,8.3,7.7,13.1,6,2.7-1,2.1-4.2,1.3-5.8,0,0,0,0,0-.1-.2-.8-.4-1.6-.6-2.3-.4-1.6-.7-3.1-.7-5.4l-1.5-.5c.8,0,1.4,0,1.8-.1,2-.4,3.8-.1,4.9-3.4,1-3.1,0-9.7-1.7-12.5ZM111.4,62.8c-.5-.4,2.1-3,2.8-3.7.7-.5,2.3-1.1,2,.3,0,.5-.8.8-1.3,1.1-.4.2-3.5,2.2-3.5,2.2ZM117.7,65.8c-.3.2-1-.2-1.5-1-.5-.8-.6-1.6-.2-1.8.3-.2,1,.3,1.5,1,.5.8.6,1.6.2,1.8ZM123,58.8c.3-.2.9.3,1.4,1.1.5.8.6,1.5.3,1.7-.3.2-.9-.3-1.4-1.1-.5-.8-.6-1.6-.3-1.7ZM126.5,73.5c-1.9,1.2-4.9-.7-5-1.1,1.7-.4,5.6-2.7,6.8-3.6.6.9.6,3.2-1.7,4.8Z"/><path class="cls-7" d="M175.4,67.5c-.3,2.1-4.3,2.4-6.5,3.1-5.1,3.8-7.2,6.5-10.5,8.5-7.7,6.6-25.4,13.8-29,16.1h-.2c-.5-2.2-1.5-4.7-3.1-7.6h0c-.2-.8-.4-1.6-.6-2.3,7.8-2.5,25.2-9,30.5-12.3,5.1-2.7,3.8-2,8.8-5.3,1.9-2.3.3-3.8,2.6-5.8,1.3-1.1,5.8-1.2,7.1.5.8,1,1,3.8.9,5.1Z"/><path class="cls-9" d="M99.6,124.4s0,0,0,0"/><path class="cls-7" d="M140.1,154.4c-.4,1.9-.9,3.9-2.2,5.5-1.3,1.5-3.7,1-5.7.4-.4-.1-.9-.5-1.5-1-.6-.5-1.3-1.2-2-1.9-1.9-2-3.7-4.3-3.7-4.3-2.5-1.6-5.8-4.7-8.7-7.3-1.5-1.3-2.8-2.5-3.9-3.4-.7-.7-1.3-1.4-1.9-2-6.3-6.7-9.4-10.3-10.9-16h0s0,0,0,0c0-.3-.2-.7-.3-1.1-.5-2.2.8-5,2.5-15.1,0-.4.1-.8.2-1.1,1.1-5.9,3.4-13,6.2-15.6,1.2-1.1,2.5-1.4,3.8-.3,3.3.4,1.7,12.9.3,19.1-1.9,7.8-1.5,7.7-2.5,10.9,0,.2-.1.4-.2.7.6,1.2,2.8,4.4,5,8.2,1,1.8,2.1,3.6,2.9,5.5,2.5,4.5,7.8,9.5,11.9,12.7,1.6.8,1.6-.1,2.8-.5.2,0,.5-.1.8-.1,2.1,0,4.6-.8,6.1.7,1.5,1.6,1.3,4,.9,6.1Z"/><path class="cls-8" d="M122.4,120.1h0c-3.2,1.4-6.8,1.9-10.3,1.4-.3,0-.7-.1-1-.2-.4,0-.8-.2-1.2-.3,1-3.2.6-3.1,2.5-10.9,1.4-6.1,3-18.6-.3-19.1-1.3-1-2.6-.8-3.8.3l-.2-.2c1.3-1.2,2.5-2.5,3.5-3.9.2,2.7,8.3,7.7,13.1,6,2.7-1,2.1-4.2,1.3-5.8,0,0,0,0,0-.1h0c1.6,2.9,2.6,5.4,3.1,7.6,1.9,8.3-3.2,13.1-6.8,25Z"/><path class="cls-4" d="M122.4,120.1c-.6,1.9-1.1,3.9-1.6,6.1-.1.5-.2,1-.3,1.5-2.7-2.1-6.5-4.7-9.4-6.4.3,0,.7.1,1,.2,3.5.5,7.1,0,10.3-1.4h0Z"/><path class="cls-6" d="M116.3,145.8c-6.5-.6-13-.2-19.4.9-.3-1.7-.3-3.5-.3-5.5h0c4.4-1.7,9.3-2,13.9-.8.6.6,1.2,1.3,1.9,2,1.1.9,2.4,2.1,3.9,3.4Z"/><path class="cls-6" d="M130.7,159.2c-.5.6-1.1,1.2-1.7,1.9,0,0,0,0,0,0-8.2,3.2-18-2.3-26.2.9-1.3-2.2-2.6-4.5-3.6-7.3h.2c4.6-1.8,9.7-1.7,14.6-.9,4.9.8,9.6,2.4,14.3,3.7l.4-.2c.7.7,1.4,1.4,2,1.9Z"/><path class="cls-4" d="M129,161.2c-1.8,2-3.6,4.3-4.2,6.7h0c0,.3-.2.5-.2.8-.2,1.3-.7,2.8-1.2,4.4-4.6-3.7-11-4.8-16.5-3-1.1-3-2.6-5.4-4.1-8,8.2-3.2,18,2.3,26.2-.9Z"/><path class="cls-4" d="M110.5,140.4c-4.6-1.2-9.5-.9-13.9.8.1-2.6.6-5.5,1.3-9.3h0s0,0,0,0c0-.3,1.6-7,1.7-7.5,1.5,5.7,4.6,9.3,10.9,16Z"/><path class="cls-9" d="M99.6,124.4h0"/><path class="cls-9" d="M97.9,206.7c-.1.2-.2.4-.3.5"/><path class="cls-7" d="M119.7,181c-5.5,15.5-8.4,16.2-14.6,29.1-4.8-.2-3.9-.5-7.2-3.4.4-.7.8-1.4,1.1-2,0,0,0,0,0,0,3.9-7.9,2.4-13.3,5.2-19.5.2-.4.3-.8.5-1.1,5.1,1.3,10.7,0,15-3h0Z"/><path class="cls-4" d="M106.9,222.4c0,1.9-1.3,2.2-3.1,2.9-1.5.5-3.1,0-4.5-.5-1.2-.5-5.3-4.8-5.5-6.5-.5-4.3.7-7.8,3.8-11.9.1,0,.2.2.3.3,3.3,2.9,2.4,3.2,7.2,3.4-1,1.6,1.8,10.4,1.9,12.3Z"/><path class="cls-9" d="M99,204.7c-.5.6-1,1.2-1.4,1.8"/><path class="cls-4" d="M146.3,127c-.2.7-.4,1.5-.6,2.3-1.2-3.4-3.5-6.3-6.6-8.2-2.8-1.7-6.1-2.5-9.3-2.3,4.8-3.4,10.1-6.5,12-6.4,1.8,0,4.5,3.1,5.6,4.5.8,1,0,6.9-1,10Z"/><path class="cls-6" d="M139.2,147.7c0,.2,0,.4-.1.6-1.4-1.5-3.9-.8-6.1-.7-.3,0-.6,0-.8.1.3-3-.8-6-3-8.1-2.8-2.7-7-3.6-9.7-6.3h.1c0-.4,0-.6,0-.8,0,0,0,0,0,0,0,0,0,0,0,0h0c.1-1,.3-2,.4-2.9h.8c4.7,0,9.4,1.8,12.7,5.2,3.3,3.3,5.2,8,5.1,12.7h0s0,.3,0,.3c.2,0,.3,0,.5,0Z"/><path class="cls-4" d="M143.5,135.5c-1.6,4.3-3.4,8.9-4.3,12.2-.2,0-.3,0-.5,0v-.3s0,0,0,0c0-4.7-1.8-9.4-5.1-12.7-3.3-3.3-8-5.2-12.7-5.1h-.8c.1-.6.2-1.2.3-1.8.1-.5.2-1,.3-1.5h.2c.3-.4.9-1.1,1.8-1.8l.9.2c4.1-.5,8.4.3,12,2.4,3.4,2,6.2,5,7.9,8.5Z"/><path class="cls-6" d="M145.7,129.3c-.6,1.8-1.3,4-2.2,6.2-1.7-3.6-4.5-6.6-7.9-8.5-3.6-2.1-7.9-2.9-12-2.4l-.9-.2c1.7-1.5,4.3-3.5,7-5.5h0c3.2-.2,6.6.6,9.3,2.3,3,1.9,5.4,4.8,6.6,8.2Z"/><path class="cls-9" d="M123.2,79.3c-2.5,0-6.3-.4-7.6-.7"/><path class="cls-4" d="M127.7,175.3c-.7,2.2-3.5,2.2-5.8,3h-.3c.2-.8.5-1.5.8-2.2.3-1,.7-2,1-3h0s0,0,0,0c0,0,0,0,0,0,.5-1.6.9-3.1,1.2-4.4,0-.3.1-.5.2-.8h.3c1.5,2,3.3,5.2,2.6,7.5Z"/><path class="cls-9" d="M111.6,87.4c0,0,0-.2,0-.2"/><path class="cls-9" d="M126.4,65.9c.9,1.6-2.2,3.2-2.8,3.2"/><path class="cls-10" d="M117.7,65.8c-.3.2-1-.2-1.5-1-.5-.8-.6-1.6-.2-1.8.3-.2,1,.3,1.5,1,.5.8.6,1.6.2,1.8Z"/><path class="cls-10" d="M124.6,61.6c-.3.2-.9-.3-1.4-1.1-.5-.8-.6-1.6-.3-1.7s.9.3,1.4,1.1c.5.8.6,1.5.3,1.7Z"/><path class="cls-2" d="M126.5,73.5c-1.9,1.2-4.9-.7-5-1.1,1.7-.4,5.6-2.7,6.8-3.6.6.9.6,3.2-1.7,4.8Z"/><path class="cls-5" d="M116.2,59.4c0,.5-.8.8-1.3,1.1-.4.2-3.5,2.2-3.5,2.2-.5-.4,2.1-3,2.8-3.7.7-.5,2.3-1.1,2,.3Z"/><path class="cls-9" d="M111.2,73.9c-.1.1-.3.3-.4.4"/><path class="cls-5" d="M122.6,54.9c0,.1-.3.4-.7.8-.2.2-1.3,1.4-1.5,1.4-.5.3-1,0-1.2-.6-.1-.7,2.6-1.8,2.9-1.8.1,0,.2,0,.3,0h0c0,0,0,.1.1.2Z"/><path class="cls-9" d="M122.6,54.9s0,0-.1-.1c.1,0,.1,0,.1.1Z"/><path class="cls-9" d="M138.8,147.7c-.1,0-.2,0-.3,0"/><path class="cls-9" d="M108.1,91.3c-.1.1-.2.2-.4.3"/><path class="cls-5" d="M127.6,62.1h-.2c-1.1-1.1-2.5-2.4-3.2-4.4-.4-1.3-.8-1.8-1.6-2.9,0,0,0-.1-.1-.1h0c-.2-.2-.3-.4-.5-.6-1.6-1.8-9.2-3.1-10.3-2.1-1.4,1.3-2.4,7.1-3.5,16.3-.4-.6-2.1,0-2.5.6-.4.7-.2,1.6.2,2.3.9,1.8,2.8,3,4.8,3,.5.9,1.1,2.7,1.5,4.7-2.2.4-4.5.1-6.6-.8-2.4-1.1-4.5-3-5.8-5.5-1.5-2.9-1.8-6.3-1.8-9.5s.3-5.9,1.7-8.3c1.4-2.5,3.9-4.1,6.5-5,4.4-1.6,9.4-1.4,13.5.8,4.1,2.2,7.2,6.6,7.8,11.6Z"/><path class="cls-5" d="M112.5,86c-.3.5-.6,1-.9,1.4-1,1.4-2.3,2.7-3.5,3.9l.2.2c-2.8,2.6-5.1,9.7-6.2,15.6h-.1c0,.2-.4.2-.5,0-2.1-2.6-2.6-6.2-2.1-9.5.5-3.3,1.9-6.4,3.2-9.4,1.3-3,2.7-6.2,3-9.5v-.7c2.1.9,4.4,1.2,6.6.8.6,2.7.9,5.7.2,7Z"/><path class="cls-9" d="M102,107.1c0-.2-.2-.4-.3-.3"/><path class="cls-2" d="M120.6,127.8s0,0-.1-.1"/><path class="cls-2" d="M119.7,132.4c0,0-.1-.1-.2-.2"/><path class="cls-2" d="M96.9,146.7s0,0,0,0"/><path class="cls-2" d="M145.7,129.4s0,0,0,0"/><path class="cls-9" d="M138.9,146.5c0,.3,0,.6-.1.9"/><path class="cls-6" d="M120.5,127.7c-.1.6-.2,1.2-.3,1.8-.2.9-.3,1.9-.4,2.9h0c-1.6-1-3.3-1.8-5-2.6h-.2c-2.2-3.7-4.4-6.8-5-8.1,0-.2.1-.5.2-.7.4.1.8.2,1.2.3,3,1.7,6.7,4.3,9.4,6.4Z"/><path class="cls-4" d="M132.2,147.6c-1.2.3-1.2,1.2-2.8.5-4.1-3.2-9.4-8.2-11.9-12.7-.9-1.9-1.9-3.8-2.9-5.5h.2c1.7.7,3.4,1.6,5,2.5,0,.2,0,.4,0,.6h-.1c2.7,2.9,6.9,3.8,9.7,6.5,2.1,2.1,3.3,5.1,3,8.1Z"/><path class="cls-2" d="M119.5,133.2h0"/><path class="cls-4" d="M128.7,157.3l-.4.2c-4.8-1.3-9.5-2.8-14.3-3.7-4.8-.8-10-.9-14.6.8h-.2s0-.1-.1-.2c-1-2.9-1.8-5.3-2.2-7.8,6.4-1.2,13-1.5,19.4-.9,2.9,2.6,6.2,5.6,8.7,7.3,0,0,1.8,2.3,3.7,4.3Z"/><path class="cls-2" d="M102.8,162s0,0,0,0"/><path class="cls-4" d="M122.4,176.1c-.3.7-.5,1.5-.8,2.1-.2.6-.5,1.2-.7,1.7h0c-.4.4-.9.7-1.3,1.1-4.2,3.1-9.9,4.2-15,3,1.1-2.6,2.1-5.3,2.7-8.2,4.8-1.4,9.9-1.4,14.6.2h.4Z"/><path class="cls-6" d="M123.4,173s0,0,0,0h0c-.3,1-.7,2-1,3h-.4c-4.7-1.7-9.9-1.7-14.6-.3.2-.8.3-1.6.5-2.5-.3-1.2-.6-2.3-1-3.3,5.5-1.8,12-.6,16.5,3Z"/><path class="cls-9" d="M122,176c-.2,0-.4.1-.6.2"/></g></svg>