<?xml version="1.0" encoding="UTF-8"?><svg xmlns="http://www.w3.org/2000/svg" width="300" height="300" viewBox="0 0 300 300"><defs><style>.cls-1{fill:#474763;}.cls-1,.cls-2,.cls-3,.cls-4,.cls-5,.cls-6,.cls-7,.cls-8{stroke-linecap:round;stroke-linejoin:round;stroke-width:.5px;}.cls-1,.cls-2,.cls-3,.cls-4,.cls-5,.cls-6,.cls-7,.cls-8,.cls-9{stroke:#000;}.cls-2{fill:#28221d;}.cls-10{stroke:#58595b;stroke-width:.2px;}.cls-10,.cls-6{fill:#fff;}.cls-10,.cls-9{stroke-miterlimit:10;}.cls-3{fill:#181817;}.cls-4{fill:#8a5a37;}.cls-5{fill:#8dcdd8;}.cls-7{fill:#e8eeef;}.cls-8,.cls-9{fill:none;}.cls-11,.cls-12{stroke-width:0px;}.cls-12{fill:#27b04b;}</style></defs><g id="Grid"><rect class="cls-10" x="29.3" y="29.3" width="241.5" height="241.5"/><line class="cls-10" x1="29.3" y1="258.6" x2="270.7" y2="258.6"/><line class="cls-10" x1="29.3" y1="246.6" x2="270.7" y2="246.6"/><line class="cls-10" x1="29.3" y1="234.5" x2="270.7" y2="234.5"/><line class="cls-10" x1="29.3" y1="222.5" x2="270.7" y2="222.5"/><line class="cls-10" x1="29.3" y1="210.4" x2="270.7" y2="210.4"/><line class="cls-10" x1="29.3" y1="198.3" x2="270.7" y2="198.3"/><line class="cls-10" x1="29.3" y1="186.2" x2="270.7" y2="186.2"/><line class="cls-10" x1="29.3" y1="174.2" x2="270.7" y2="174.2"/><line class="cls-10" x1="29.3" y1="162.1" x2="270.7" y2="162.1"/><line class="cls-10" x1="29.3" y1="150" x2="270.7" y2="150"/><line class="cls-10" x1="29.3" y1="137.9" x2="270.7" y2="137.9"/><line class="cls-10" x1="29.3" y1="125.8" x2="270.7" y2="125.8"/><line class="cls-10" x1="29.3" y1="113.8" x2="270.7" y2="113.8"/><line class="cls-10" x1="29.3" y1="101.7" x2="270.7" y2="101.7"/><line class="cls-10" x1="29.3" y1="89.6" x2="270.7" y2="89.6"/><line class="cls-10" x1="29.3" y1="77.5" x2="270.7" y2="77.5"/><line class="cls-10" x1="29.3" y1="65.5" x2="270.7" y2="65.5"/><line class="cls-10" x1="29.3" y1="53.4" x2="270.7" y2="53.4"/><line class="cls-10" x1="29.3" y1="41.4" x2="270.7" y2="41.4"/><line class="cls-10" x1="258.6" y1="29.3" x2="258.6" y2="270.7"/><line class="cls-10" x1="246.6" y1="29.3" x2="246.6" y2="270.7"/><line class="cls-10" x1="234.5" y1="29.3" x2="234.5" y2="270.7"/><line class="cls-10" x1="222.5" y1="29.3" x2="222.5" y2="270.7"/><line class="cls-10" x1="210.4" y1="29.3" x2="210.4" y2="270.7"/><line class="cls-10" x1="198.3" y1="29.3" x2="198.3" y2="270.7"/><line class="cls-10" x1="186.2" y1="29.3" x2="186.2" y2="270.7"/><line class="cls-10" x1="174.2" y1="29.3" x2="174.2" y2="270.7"/><line class="cls-10" x1="162.1" y1="29.3" x2="162.1" y2="270.7"/><line class="cls-10" x1="150" y1="29.3" x2="150" y2="270.7"/><line class="cls-10" x1="137.9" y1="29.3" x2="137.9" y2="270.7"/><line class="cls-10" x1="125.8" y1="29.3" x2="125.8" y2="270.7"/><line class="cls-10" x1="113.8" y1="29.3" x2="113.8" y2="270.7"/><line class="cls-10" x1="101.7" y1="29.3" x2="101.7" y2="270.7"/><line class="cls-10" x1="89.6" y1="29.3" x2="89.6" y2="270.7"/><line class="cls-10" x1="77.5" y1="29.3" x2="77.5" y2="270.7"/><line class="cls-10" x1="65.5" y1="29.3" x2="65.5" y2="270.7"/><line class="cls-10" x1="53.4" y1="29.3" x2="53.4" y2="270.7"/><line class="cls-10" x1="41.4" y1="29.3" x2="41.4" y2="270.7"/><line class="cls-9" x1="23.9" y1="150" x2="276.1" y2="150"/><polygon class="cls-11" points="24.7 152.5 20.4 150 24.7 147.5 24.7 152.5"/><polygon class="cls-11" points="275.3 152.5 279.6 150 275.3 147.5 275.3 152.5"/><line class="cls-9" x1="150" y1="23.9" x2="150" y2="276.1"/><polygon class="cls-11" points="147.5 24.7 150 20.4 152.5 24.7 147.5 24.7"/><polygon class="cls-11" points="147.5 275.3 150 279.6 152.5 275.3 147.5 275.3"/></g><g id="Lines"><polygon class="cls-12" points="259.5 87.6 265.8 71.7 249 74.8 252.7 79.3 44.2 251.3 40.5 246.8 34.2 262.7 51 259.6 47.3 255 255.8 83 259.5 87.6"/></g><g id="Africa_Modest"><path class="cls-4" d="M130.5,48.4c.5-.2,1.2-.2,1.8,0s1.1.3,1.7.5h0c0,0,.1,0,.2,0,0,.1,0,.2,0,.3.9-3.1,1.2-5.4.9-7.3-2.6-1.1-4.4-2.3-9.1-1.4-2,.4-4.5,6.4-6.5,12.2-.9.2-2.3-.3-2.5-1.2-.2-.9-.2-1.8,0-2.7-.4-.8-1.5-.9-2.4-.6-1.4.4-1.5,3.5-1.2,5.4h-.1c-3.7,0-5.3,7.4-7.2,3.7,0,2.9.2,5.7-1.5,7.9,5.7.4,8.9,8,10.3,9.7,1.1,1.5,3,2.9,2.8-1.2,0-.7,0-1.5,0-2.2,0-1.7,0-3.3.5-4.5,1.5,1.1,2.8,2.1,3.9,2.8.9-1.5,4.1-2.7,5.9-2.4.6-1.3,1.5-2.3,1.4-2.5,0-.3-.1-.4-.3-.4s-.3,0-.5,0c-2.2-.5-4.2-2.2-5-4.4.3.2.6.4,1,.5,1.7.5,3.6,1.3,5.3,2.1.3.1.6.3.9.4.3-.8.4-1.5.9-3v-.2c.2,0,.3,0,.5,0,.9.1,1.3,0,2.1-1.1.1-.2-1-4.5-1-6.5.2-.7.5-1.3.7-1.9-.7,0-1.3,0-1.9,0-.8,0-1.8,0-2.1-.7-.2-.5.2-1,.7-1.2Z"/><path class="cls-1" d="M140.9,118.8c-1.5,15.9-3.2,40.6-5.9,48.7,0,0-5.3,5-12.7,5-3.1-16.8,4-20,4-40v-.4c-8,2.1-17.2,3.6-25.5,6.2h0c-3.1,13.6-6.9,27.8-10.4,41.3-2.9,11-2.7,21.5-7.8,30.6-4,2.4-13.6.5-13.3,0-4.9-7.4,6.5-25.6,8.7-48.1,1.6-16.1,0-21-.2-32.3,0-.2.3-5.9,1.2-10.2,7.4,3.7,16.7,8.1,22.8,7.2,1-3.5,2.1-6.9,3.4-10.1,2.3-.8,5.6-1.2,9.3-1.4,5.2-.3,11.2-.1,16.1.4,5.3.6,9.4,1.6,10.3,2.9Z"/><path class="cls-7" d="M130.6,115.8h0c-5-.5-10.9-.7-16.1-.4-1.8-1.9-4.1-4.9-5.8-6.7,1.5-3.4,3-6.8,4.3-10.2,0-.2.1-.3.2-.5,1.4-3.6,2.4-5.3,3.3-7.8-6.6-1.6-13.1-3.7-19.2-6.5h0c-2.4.8-4.8,1.7-7,2.5-3.5,1.3-6.4,2.3-7.6,2.7.9,3.8,1.5,8.8,2.4,13.4h0c.4,2.1.9,4.2,1.5,5.9,0,.2-.2.4-.3.6-1.7,3.4-6.1,5.1-8.1,4.7-.6-.1-1-.4-1.1-.8-2.8-9.4-3.7-16.9-5.7-23.6-2.6-8.8,7-11.5,11.3-14.9,13.2-7,16-6.8,22-9.4,5.7.4,8.9,8,10.3,9.7,1.1,1.5,3,2.9,2.8-1.2,0-.7,0-1.5,0-2.2,2.2,2.1,3,5.2,3,8.9,0,8.5-4,19.6-3.5,25.8,2.7,2.4,10.2,8.5,13.5,9.9Z"/><path class="cls-8" d="M101.8,133.8c-.3,1.5-.7,3-1,4.6"/><path class="cls-8" d="M132.3,130.2c-1.9.7-4,1.3-6.1,1.9"/><line class="cls-8" x1="105.2" y1="116.9" x2="105.2" y2="116.9"/><path class="cls-7" d="M113,98.5c-1.3,3.4-2.8,6.8-4.3,10.2-1.2,2.7-2.3,5.4-3.4,8.1-1.3,3.2-2.5,6.6-3.4,10.1-6.1.9-15.4-3.6-22.8-7.2.1-.7.3-1.3.4-1.9,1.2,1.2,2.6,1.9,4.3,1.8,2.8-.3,5.2-1.5,5.4-4.3.2-2.8-.4-5.5-3.1-6.3.1-.2.2-.4.3-.6-.6-1.8-1-3.8-1.5-5.9h0c.9-2.3,2.8-8.3,4.2-12.4,7.4,4.1,15.5,7,23.8,8.6Z"/><path class="cls-5" d="M116.6,90.3c-.9,2.5-2,4.1-3.3,7.8,0,.2-.1.3-.2.5-8.3-1.6-16.4-4.5-23.8-8.6.5-1.3.9-2.4,1.2-3.2l-.2-.5c2.2-.8,4.7-1.8,7-2.6h0c6.2,2.9,12.7,5.1,19.2,6.6Z"/><path class="cls-8" d="M118.7,80.2c-.7,5.2-1.3,8-2.1,10.1"/><path class="cls-8" d="M108.5,79c-.3.3-5.5,2.4-11.2,4.6"/><path class="cls-2" d="M91,215.3c-2.4,2.4-8.3,6.5-11,7.2-5.4,1.4-8.5,2.4-9.9,1.2-5-4.4-2.5-11.4-.8-13.4-.3.5,9.3,2.4,13.3,0,10.7-2.8,13.2.1,8.4,5.1Z"/><path class="cls-3" d="M135.1,41.9c-2.6-1.1-4.4-2.3-9.1-1.4-2,.4-4.5,6.4-6.5,12.2-.9.2-2.3-.3-2.5-1.2-.2-.9-.2-1.8,0-2.7-.4-.8-1.5-.9-2.4-.6-1.4.4-1.5,3.5-1.2,5.4h-.1c-3.7,0-5.3,7.4-7.2,3.7-4-4.8-5.1-15.7-1.5-20.7,3.6-5,10.1-6.2,16.2-5.2,3.1.5,7.5,1.7,9.9,3.8,2.4,2.1,4,4,4.4,6.9Z"/><path class="cls-8" d="M129,64.4s0,0,0,0"/><path class="cls-4" d="M89.2,115.3c-.2,2.8-2.6,4-5.4,4.3-1.7.2-3.1-.6-4.3-1.8-1.2-1.2-2-2.6-1.5-4.1,2,.4,6.5-1.3,8.1-4.7,2.6.8,3.3,3.5,3.1,6.3Z"/><path class="cls-2" d="M145.6,165.7c-.7,5.3-4.1,6.6-8.6,9.9-3.1,2.3-6.1,4.8-8.8,6-3.8,1.7-7-8.1-5.8-9.2,7.3,0,12.7-5,12.7-5,.6-2.1,11.1-5.3,10.6-1.8Z"/><path class="cls-8" d="M113.4,53.4c.1.7.3,1.2.5,1.4.8.7,1.2.7,2.1,1.4"/><path class="cls-8" d="M129.5,59.3c.7,0,1.4.2,2.1.4"/><path class="cls-6" d="M129.7,62.5h0c-.2.5-.4,1-.7,1.8-.1,0-.3,0-.5,0-2.2-.5-4.2-2.2-5-4.4.3.2.6.4,1,.5,1.7.5,3.6,1.3,5.3,2.1Z"/><path class="cls-3" d="M127.9,67.2c-.2.5-.4,1-.4,1.5-.1,1.3-2.5,2.9-4.1,1.8-.4-.3-.8-.6-1.4-.9.9-1.5,4.1-2.7,5.9-2.4Z"/><path class="cls-8" d="M118.1,66.8c-1.1-.8-2.3-1.8-3.6-2.8"/><path class="cls-11" d="M131.6,54c-.2,1.1-.7,1.9-1.2,1.8-.5,0-.8-1-.6-2.1.2-1.1.8-1.9,1.3-1.8.5,0,.8,1,.6,2.1Z"/><path class="cls-8" d="M114.7,115.6c0,0-.1-.1-.2-.2"/><path class="cls-3" d="M134.2,49.2h0c-.1.4-.2.8-.4,1.1-.7,0-1.3,0-1.9,0-.8,0-1.8,0-2.1-.7-.2-.5.2-1,.7-1.2.5-.2,1.2-.2,1.8,0s1.1.3,1.7.5h0c0,0,.1,0,.2,0,0,.1,0,.2,0,.3Z"/><path class="cls-8" d="M134,48.9h-.3"/><path class="cls-8" d="M134.2,49.2c0,.4,0,.8-.3,1.1h0"/><path class="cls-8" d="M135.2,41.9s0,0-.1,0"/><path class="cls-8" d="M116.6,90.3s0,0,0,0"/><path class="cls-8" d="M113.2,98.6c0,0-.1,0-.2,0"/><path class="cls-8" d="M89.2,90s0,0,0,0"/></g></svg>