<?xml version="1.0" encoding="UTF-8"?><svg xmlns="http://www.w3.org/2000/svg" width="300" height="300" viewBox="0 0 300 300"><defs><style>.cls-1{fill:#2a4549;}.cls-1,.cls-2,.cls-3,.cls-4,.cls-5,.cls-6,.cls-7,.cls-8{stroke-linecap:round;stroke-linejoin:round;stroke-width:.5px;}.cls-1,.cls-2,.cls-3,.cls-4,.cls-5,.cls-6,.cls-7,.cls-8,.cls-9{stroke:#000;}.cls-10{fill:#fff;stroke:#58595b;stroke-width:.2px;}.cls-10,.cls-9{stroke-miterlimit:10;}.cls-2{fill:#cda380;}.cls-3{fill:#313f42;}.cls-4{fill:#2e5951;}.cls-5{fill:#302f2d;}.cls-6{fill:#6a8d6a;}.cls-7,.cls-9{fill:none;}.cls-11,.cls-12{stroke-width:0px;}.cls-12{fill:#27b04b;}</style></defs><g id="Grid"><rect class="cls-10" x="29.3" y="29.3" width="241.5" height="241.5"/><line class="cls-10" x1="29.3" y1="258.6" x2="270.7" y2="258.6"/><line class="cls-10" x1="29.3" y1="246.6" x2="270.7" y2="246.6"/><line class="cls-10" x1="29.3" y1="234.5" x2="270.7" y2="234.5"/><line class="cls-10" x1="29.3" y1="222.5" x2="270.7" y2="222.5"/><line class="cls-10" x1="29.3" y1="210.4" x2="270.7" y2="210.4"/><line class="cls-10" x1="29.3" y1="198.3" x2="270.7" y2="198.3"/><line class="cls-10" x1="29.3" y1="186.2" x2="270.7" y2="186.2"/><line class="cls-10" x1="29.3" y1="174.2" x2="270.7" y2="174.2"/><line class="cls-10" x1="29.3" y1="162.1" x2="270.7" y2="162.1"/><line class="cls-10" x1="29.3" y1="150" x2="270.7" y2="150"/><line class="cls-10" x1="29.3" y1="137.9" x2="270.7" y2="137.9"/><line class="cls-10" x1="29.3" y1="125.8" x2="270.7" y2="125.8"/><line class="cls-10" x1="29.3" y1="113.8" x2="270.7" y2="113.8"/><line class="cls-10" x1="29.3" y1="101.7" x2="270.7" y2="101.7"/><line class="cls-10" x1="29.3" y1="89.6" x2="270.7" y2="89.6"/><line class="cls-10" x1="29.3" y1="77.5" x2="270.7" y2="77.5"/><line class="cls-10" x1="29.3" y1="65.5" x2="270.7" y2="65.5"/><line class="cls-10" x1="29.3" y1="53.4" x2="270.7" y2="53.4"/><line class="cls-10" x1="29.3" y1="41.4" x2="270.7" y2="41.4"/><line class="cls-10" x1="258.6" y1="29.3" x2="258.6" y2="270.7"/><line class="cls-10" x1="246.6" y1="29.3" x2="246.6" y2="270.7"/><line class="cls-10" x1="234.5" y1="29.3" x2="234.5" y2="270.7"/><line class="cls-10" x1="222.5" y1="29.3" x2="222.5" y2="270.7"/><line class="cls-10" x1="210.4" y1="29.3" x2="210.4" y2="270.7"/><line class="cls-10" x1="198.3" y1="29.3" x2="198.3" y2="270.7"/><line class="cls-10" x1="186.2" y1="29.3" x2="186.2" y2="270.7"/><line class="cls-10" x1="174.2" y1="29.3" x2="174.2" y2="270.7"/><line class="cls-10" x1="162.1" y1="29.3" x2="162.1" y2="270.7"/><line class="cls-10" x1="150" y1="29.3" x2="150" y2="270.7"/><line class="cls-10" x1="137.9" y1="29.3" x2="137.9" y2="270.7"/><line class="cls-10" x1="125.8" y1="29.3" x2="125.8" y2="270.7"/><line class="cls-10" x1="113.8" y1="29.3" x2="113.8" y2="270.7"/><line class="cls-10" x1="101.7" y1="29.3" x2="101.7" y2="270.7"/><line class="cls-10" x1="89.6" y1="29.3" x2="89.6" y2="270.7"/><line class="cls-10" x1="77.5" y1="29.3" x2="77.5" y2="270.7"/><line class="cls-10" x1="65.5" y1="29.3" x2="65.5" y2="270.7"/><line class="cls-10" x1="53.4" y1="29.3" x2="53.4" y2="270.7"/><line class="cls-10" x1="41.4" y1="29.3" x2="41.4" y2="270.7"/><line class="cls-9" x1="23.9" y1="150" x2="276.1" y2="150"/><polygon class="cls-11" points="24.7 152.5 20.4 150 24.7 147.5 24.7 152.5"/><polygon class="cls-11" points="275.3 152.5 279.6 150 275.3 147.5 275.3 152.5"/><line class="cls-9" x1="150" y1="23.9" x2="150" y2="276.1"/><polygon class="cls-11" points="147.5 24.7 150 20.4 152.5 24.7 147.5 24.7"/><polygon class="cls-11" points="147.5 275.3 150 279.6 152.5 275.3 147.5 275.3"/></g><g id="Lines"><polygon class="cls-12" points="300.1 54.9 285.1 46.6 285.1 52.5 14.9 52.5 14.9 46.6 0 54.9 14.9 63.2 14.9 57.4 285.1 57.4 285.1 63.2 300.1 54.9"/></g><g id="Africa_Modest"><path class="cls-6" d="M160.9,97.1c-.6,5.1-5.9,18.1-6.4,23.3h-.2c-.4,3.7-1.5,8.1-1.5,13.5s-1.2,18.6-1.4,25.7c-1.9,0-5.4.3-7.3.5-3,.4-5.7-.1-8.7-.3-2.6-.1-12.8-.4-13.7-2.4.2-2.9,1.2-14.7,1.4-18.1.1-2.4,0-4.8-.3-7.1,0-.8-.4-5.6-.8-9-1.2-5.8-3.9-14.8-5.4-20.2-1.1-3.9-3.7-13.6-3.6-17.2.3-9.1,0-12.5,1.5-24.6,2.2.8,4.7,1.2,7.1,1.2-.1,3.5.2,4.3.4,9.8-.5,1.1-.9,2.1-1.2,3.2-.8,2.8-.9,5.2,0,5.4,0,0,.4-.2.7-.3-.1,2,.4,5.3.7,7.3-.2,1.5.9,4,1.3,5.2.5,2.3,1.7,5.4,2.9,8.8,1.4,1,2.5,2.1,3.8,3,.4.4.8.8,1.3,1.1,0,1.2.2,1.2,0,1.7h0c.1,1.9,2.8,4.1,5.6,4.6,3.3.6,5.3-1,6.2-3.4h0c4.8-1.8,6.6-8.5,7.5-14.1h.2c.3.3.8.2,1.1,0,.3-.3.4-.7.6-1.1.6-2,.8-4.1.6-6.2-.2,0-.4,0-.5,0h-.2c.2-1.1.3-2.1.4-3.1h0c.2-1.9.1-3.5,0-4.9.1,0,.2,0,.3.1.5.2,1-.2,1-.7,0-1,0-2.2-.3-3.4h0c.4-5.4.4-10.9.4-13.8.2,0,.4,0,.6,0,2.2.1,4.3,0,6.4-.4h0c.1,0,.3,0,.4,0,1.9,14,1.5,18-.8,35.9Z"/><path class="cls-2" d="M145.3,99.3c-.7.5-1.5,1.6-2.2,2.1-1.5,1.1-5,.3-7.3-1.6-.3-.2-.5,0-.9-.1.6-.6,1.3-1.1,2.1-1.5.7-.4,1.5-.7,2.3-1,1.6-.5,3.1.3,4.6,1.2.5.3,1,.6,1.4.8Z"/><path class="cls-2" d="M151.7,79.1c-3.2-.9-6.2-1.1-9.6-1.2-3.8,0-7.6.3-11.4.8-.8.1-1.7.3-2.5.4h0c-1.3.3-1.3,3.4-.8,9.9.7,4.5,1.8,7.4,5.1,9.3,2.4-1,4.8-2,7.3-2.3,2.5-.3,5.3.2,7.3,1.8.6-.6,1-1,1.5-1.7,1.3-1.9,2-5.3,2.8-7.5v-.2c.6-2.7.7-6.6.3-9.4ZM133.1,89.6c-.5,0-1-.9-1-2.1s.5-2.1,1-2.1,1,.9,1,2.1-.4,2.1-1,2.1ZM135.7,83.8c-1.8-.5-4.5-.4-5.5,0-.3-1.6.6-1.6,1.3-1.7,1-.2,3.7,0,4.9.8-.2.8,0,1.3-.7,1ZM146.5,89.2c-.4,0-.8-.8-.8-1.8s.4-1.8.8-1.8.8.8.8,1.8-.4,1.8-.8,1.8ZM149.1,83.6c-2.1-.6-4.2,0-5.9.3-.6-1.2,1.3-1.9,3.3-1.9,2.1,0,2.2.4,2.6,1.5h0Z"/><path class="cls-5" d="M129.9,249.7c-.9,4.5-6.7,5.1-10.2,1.9-1-.9.5-9.8.7-11,.2-1.3,1-4.1,1.5-5.2.4-.8.3,1.1,3.2,1.2,2.2,0,2.9-2,3.2-1.3.5,1,1.8,13.3,1.6,14.5Z"/><path class="cls-2" d="M129.3,226.9c-.6,3-.9,5.9-.9,8.3-.3-.8-1,1.4-3.2,1.3-2.9,0-2.9-1.9-3.2-1.2,0-2.7-.2-5.8-.4-9,2.2.9,6,1.2,7.9.6Z"/><path class="cls-2" d="M148.2,225.5c-.7,3.6-1.2,7.2-1.2,10.5-.3.1-.8,1.2-3.3,1.3-2,0-2.9-1.4-3.3-1.4h0,0c0-2.6-.3-5.7-.6-8.9,2.3.5,6.1-.6,8.5-1.5Z"/><line class="cls-7" x1="147" y1="236" x2="147" y2="236"/><path class="cls-5" d="M149.7,252.4c-3.9,3.2-10.3,2.7-11.3-1.9-.3-1.2,1.2-13.5,1.7-14.5,0-.1.1-.1.2-.1h0c.4,0,1.3,1.5,3.3,1.4,2.5,0,3-1.2,3.3-1.3,0,0,.2,0,.2.2.6,1.1,1.4,3.8,1.7,5.2.2,1.2,1.9,10.1.8,11Z"/><path class="cls-7" d="M143.2,83.9c0,0-.1,0-.2,0"/><path class="cls-7" d="M135.9,83.9c0,0-.2,0-.3,0"/><path class="cls-7" d="M142.5,90.8c1.1,1.1,3.1,4.1-1.6,4.5"/><path class="cls-7" d="M125.4,94.3s-.1,0-.2.1"/><path class="cls-7" d="M128.2,79.1s0,0,0,0"/><line class="cls-7" x1="121.5" y1="80.5" x2="121.5" y2="80.5"/><path class="cls-7" d="M143.2,84s0,0,0,0"/><path class="cls-7" d="M137,98.2s0,0,0,0"/><path class="cls-7" d="M143.9,98.4c-2.7.7-5.4,1-6.9-.3"/><path class="cls-7" d="M154.5,116.9c0,1.1,0,2.3-.1,3.6"/><path class="cls-7" d="M122,123.2c-.2-1.7-.4-3.1-.6-3.6"/><path class="cls-7" d="M136.4,169.7h0"/><path class="cls-4" d="M151.5,179.5c0,14.2-1.5,31.7-1.5,40.4-4,2.1-5.8,3-12.5,2,0,0,0,0,0,0,0-1.5-.4-9.6-1.1-21.3-.5-8.8,0-28.3.1-30.8-.9,6.8-2.1,21.9-3.3,31.7-1.1,9.2-1.8,19.2-1.9,20.5,0,0,0,.1,0,.2-4.4,1.2-9.9,0-11.2-2,0,0,0,0,0,0,0-1-.4-9.8,0-23.5.3-11.1.1-33.1,1.7-39.1,1,2,11.1,2.3,13.7,2.4,3,.2,5.7.7,8.7.3,2-.2,5.4-.5,7.3-.5.3,5.5,0,14.7,0,19.8Z"/><path class="cls-7" d="M131.2,222.1h0"/><path class="cls-7" d="M137,166.5c-.2.5-.3,1.6-.6,3.2h0"/><path class="cls-7" d="M139.9,163.8c-1.3,1.3-2.3,1.6-3,2.4"/><path class="cls-7" d="M131.3,107.7c0-.1,0-.2,0-.3"/><path class="cls-7" d="M131.2,222s0,0,0,0"/><path class="cls-7" d="M120,220h0"/><path class="cls-5" d="M148.6,96.1c-.5.8-.9,1.1-1.5,1.7-2-1.6-4.7-2.1-7.3-1.8-2.6.3-5,1.3-7.3,2.3-3.3-1.9-4.4-4.8-5.1-9.3-.5-6.5-.6-9.6.8-9.9-1,.2-2.1.4-3.1.5-.9.2-2,.3-2.9.5,0,0-.3.2-.6.3-.1,2,.4,5.3.7,7.3,0-.6.3-1,.8-1.2,1.4-.6,2.6.2,2.6,2.1-.3,1.4-.5,4.1-.4,5.6,0,0,0,0,0,.1-.2,3.4,1.7,7.4,4.8,10.4.4.3.8.6,1.3.9v.2c2.5,2,5.6,3.3,9,3.3s1.9-.2,2.7-.5c4.8-1.8,6.6-8.5,7.5-14,.4-2.4.6-4.6.8-6.1h0c-.8,2.2-1.5,5.5-2.8,7.5ZM143,101.3c-1.5,1.1-5,.3-7.3-1.6-.3-.2-.5,0-.9-.1.6-.6,1.3-1.1,2.1-1.5.7-.4,1.5-.7,2.3-1,1.6-.5,3.1.3,4.6,1.2.5.3,1,.6,1.4.8-.7.5-1.5,1.6-2.2,2.1Z"/><path class="cls-7" d="M151.4,88.6s0,0,0,0"/><path class="cls-1" d="M154.1,78.8c0,.5-.5.9-1,.7-.1,0-.2,0-.3-.1-.4-.1-.7-.2-1.1-.3-3.2-.9-6.2-1.1-9.6-1.2-3.8,0-7.6.3-11.4.8-.8.1-1.7.3-2.5.4h0c-1,.2-2.1.4-3.1.5-.9.2-2,.3-2.9.5,0,0-.3.2-.6.3-.3.2-.6.3-.7.3-.9-.3-.8-2.7,0-5.4,12.7-2.6,28.7-2.8,32.8-.4h0c0,.1,0,.3,0,.4h0c.2,1.2.3,2.3.3,3.4Z"/><path class="cls-1" d="M153.7,75h0c-4.1-2.5-20.1-2.2-32.8.4.3-1,.7-2.1,1.2-3.2,1.1-2.4,2.7-4.7,4.4-5.7,2.3-1.4,5.4-2.2,8.6-2.5,1.2-.1,2.3-.2,3.5-.1,4.6,0,9.1,1.3,11.4,3.6,1.8,1.8,3.2,4.8,3.8,7.6Z"/><path class="cls-8" d="M134.1,87.5c0,1.2-.4,2.1-1,2.1s-1-.9-1-2.1.5-2.1,1-2.1,1,.9,1,2.1Z"/><path class="cls-8" d="M147.3,87.4c0,1-.4,1.8-.8,1.8s-.8-.8-.8-1.8.4-1.8.8-1.8.8.8.8,1.8Z"/><path class="cls-5" d="M149.1,83.5h0c-2.1-.5-4.2,0-5.9.4-.6-1.2,1.3-1.9,3.3-1.9,2.1,0,2.2.4,2.6,1.5Z"/><path class="cls-5" d="M136.3,82.8c-.2.8,0,1.3-.7,1-1.8-.5-4.5-.4-5.5,0-.3-1.6.6-1.6,1.3-1.7,1-.2,3.7,0,4.9.8Z"/><path class="cls-1" d="M138.5,63.8h0c-1.2,0-2.3,0-3.5.2h0c.3-.7.9-1.2,1.7-1.3.7,0,1.5.4,1.8,1.1Z"/><path class="cls-7" d="M154.5,120.5c0,0,0,0,0,.1"/><path class="cls-7" d="M161.6,61.3c0,0,0-.1,0-.2"/><line class="cls-7" x1="114.5" y1="61.2" x2="114.5" y2="61.2"/><path class="cls-5" d="M152.6,84.3h0c0,.9-.2,2-.4,3.1-.2,1.2-.5,2.6-.9,4.1h-.1c.1-1.4.2-2.4.1-2.8h0v-.2c.6-2.7.7-6.6.3-9.4.4.1.7.2,1.1.3,0,1.4,0,3,0,4.9Z"/><path class="cls-7" d="M153.4,79.8c-.2,2-.4,3.4-.8,4.6"/><path class="cls-2" d="M143,108.8c-.8,2.4-2.9,4-6.2,3.4-2.8-.5-5.4-2.7-5.6-4.6h0c.2-.5,0-.5,0-1.7,2.5,2,5.6,3.3,9,3.3s1.9-.2,2.7-.5h0Z"/><path class="cls-2" d="M125.3,94.4c-.6.4-1.3.2-1.8-1.4-.4-1.2-1.5-3.6-1.3-5.2,0-.6.3-1,.8-1.2,1.4-.6,2.6.2,2.6,2.1-.3,1.4-.5,4.1-.4,5.6Z"/><path class="cls-7" d="M154.2,61.4c0,.1,0,.2,0,.3"/><path class="cls-7" d="M161.9,61.2c0,0-.1,0-.2,0"/><path class="cls-7" d="M154.2,61.7s0,0-.1,0"/><path class="cls-2" d="M121.6,62.4c-2.4,0-4.8-.4-7.1-1.2,0,0,0,0,0,0v-.2c-.6-1-.7-6.7-.9-7.8-.2-1.1.2-2.4,1.2-3,.6-.4,1.4-.5,2.1-.5,1.7,0,3-.5,4.3.5,1.2.8,1.9,2.1,2,3.5.1,1.4-.6,7.7-1.6,8.7Z"/><path class="cls-2" d="M161.2,61.3h0c-2.1.4-4.3.5-6.4.4h0c-1.5-1-2.6-8-1.5-9.4,1-1.4,2.9-2,4.7-1.8,1.2.1,2.4.6,3.1,1.6.9,1.4,1.1,7.7.2,9.2Z"/><line class="cls-7" x1="161.2" y1="61.4" x2="161.2" y2="61.3"/><path class="cls-2" d="M152.4,93.6c-.1.4-.3.8-.6,1.1-.3.3-.8.4-1.1.1h-.2c.4-2.4.6-4.6.8-6.1,0,.4,0,1.4-.1,2.8h.1c.4-1.5.7-2.8.9-4.1h.2c.2,0,.4,0,.5,0,.2,2.1,0,4.2-.6,6.2Z"/><path class="cls-3" d="M132,223.2c0,.8-1,2.2-1.8,2.9-.1.3-.5.6-1,.7-1.8.6-5.6.3-7.9-.6-.8-.3-1.3-.7-1.6-1.1-.7-1-1.4-4.2-.8-5.3.3,0,.6,0,.9,0,0,0,0,0,0,0,1.3,1.9,6.8,3.2,11.2,2,0,0,0,0,0-.2.8.1.8.5.8,1.3Z"/><path class="cls-3" d="M150.4,224.4c0,.2-1,.6-2.2,1.1-2.4.9-6.2,2-8.5,1.5-.5-.1-1-.3-1.3-.6-1.1-1-2.1-2.4-1.9-4.3.6,0,.3,0,.9,0v-.2c6.7,1,8.5,0,12.5-2,.3,0,.6-.1.8-.3.7,1.4.4,3.5-.3,4.8Z"/></g></svg>