<?xml version="1.0" encoding="UTF-8"?><svg xmlns="http://www.w3.org/2000/svg" width="300" height="300" viewBox="0 0 300 300"><defs><style>.cls-1{stroke:#58595b;stroke-width:.2px;}.cls-1,.cls-2{fill:#fff;}.cls-1,.cls-3{stroke-miterlimit:10;}.cls-4{fill:#414a61;}.cls-4,.cls-5,.cls-6,.cls-7,.cls-8,.cls-9,.cls-10,.cls-2,.cls-11,.cls-12,.cls-13{stroke-linecap:round;stroke-linejoin:round;stroke-width:.5px;}.cls-4,.cls-5,.cls-6,.cls-7,.cls-8,.cls-9,.cls-10,.cls-2,.cls-11,.cls-12,.cls-13,.cls-3{stroke:#000;}.cls-5{fill:#181817;}.cls-6{fill:#b1b1b1;}.cls-7{fill:#8d352e;}.cls-8{fill:#9bc7dd;}.cls-9{fill:#684c45;}.cls-10{fill:#7da8c6;}.cls-11{fill:#f29a0f;}.cls-12,.cls-3{fill:none;}.cls-14,.cls-15{stroke-width:0px;}.cls-15{fill:#27b04b;}</style></defs><g id="Grid"><rect class="cls-1" x="29.3" y="29.3" width="241.5" height="241.5"/><line class="cls-1" x1="29.3" y1="258.6" x2="270.7" y2="258.6"/><line class="cls-1" x1="29.3" y1="246.6" x2="270.7" y2="246.6"/><line class="cls-1" x1="29.3" y1="234.5" x2="270.7" y2="234.5"/><line class="cls-1" x1="29.3" y1="222.5" x2="270.7" y2="222.5"/><line class="cls-1" x1="29.3" y1="210.4" x2="270.7" y2="210.4"/><line class="cls-1" x1="29.3" y1="198.3" x2="270.7" y2="198.3"/><line class="cls-1" x1="29.3" y1="186.2" x2="270.7" y2="186.2"/><line class="cls-1" x1="29.3" y1="174.2" x2="270.7" y2="174.2"/><line class="cls-1" x1="29.3" y1="162.1" x2="270.7" y2="162.1"/><line class="cls-1" x1="29.3" y1="150" x2="270.7" y2="150"/><line class="cls-1" x1="29.3" y1="137.9" x2="270.7" y2="137.9"/><line class="cls-1" x1="29.3" y1="125.8" x2="270.7" y2="125.8"/><line class="cls-1" x1="29.3" y1="113.8" x2="270.7" y2="113.8"/><line class="cls-1" x1="29.3" y1="101.7" x2="270.7" y2="101.7"/><line class="cls-1" x1="29.3" y1="89.6" x2="270.7" y2="89.6"/><line class="cls-1" x1="29.3" y1="77.5" x2="270.7" y2="77.5"/><line class="cls-1" x1="29.3" y1="65.5" x2="270.7" y2="65.5"/><line class="cls-1" x1="29.3" y1="53.4" x2="270.7" y2="53.4"/><line class="cls-1" x1="29.3" y1="41.4" x2="270.7" y2="41.4"/><line class="cls-1" x1="258.6" y1="29.3" x2="258.6" y2="270.7"/><line class="cls-1" x1="246.6" y1="29.3" x2="246.6" y2="270.7"/><line class="cls-1" x1="234.5" y1="29.3" x2="234.5" y2="270.7"/><line class="cls-1" x1="222.5" y1="29.3" x2="222.5" y2="270.7"/><line class="cls-1" x1="210.4" y1="29.3" x2="210.4" y2="270.7"/><line class="cls-1" x1="198.3" y1="29.3" x2="198.3" y2="270.7"/><line class="cls-1" x1="186.2" y1="29.3" x2="186.2" y2="270.7"/><line class="cls-1" x1="174.2" y1="29.3" x2="174.2" y2="270.7"/><line class="cls-1" x1="162.1" y1="29.3" x2="162.1" y2="270.7"/><line class="cls-1" x1="150" y1="29.3" x2="150" y2="270.7"/><line class="cls-1" x1="137.9" y1="29.3" x2="137.9" y2="270.7"/><line class="cls-1" x1="125.8" y1="29.3" x2="125.8" y2="270.7"/><line class="cls-1" x1="113.8" y1="29.3" x2="113.8" y2="270.7"/><line class="cls-1" x1="101.7" y1="29.3" x2="101.7" y2="270.7"/><line class="cls-1" x1="89.6" y1="29.3" x2="89.6" y2="270.7"/><line class="cls-1" x1="77.5" y1="29.3" x2="77.5" y2="270.7"/><line class="cls-1" x1="65.5" y1="29.3" x2="65.5" y2="270.7"/><line class="cls-1" x1="53.4" y1="29.3" x2="53.4" y2="270.7"/><line class="cls-1" x1="41.4" y1="29.3" x2="41.4" y2="270.7"/><line class="cls-3" x1="23.9" y1="150" x2="276.1" y2="150"/><polygon class="cls-14" points="24.7 152.5 20.4 150 24.7 147.5 24.7 152.5"/><polygon class="cls-14" points="275.3 152.5 279.6 150 275.3 147.5 275.3 152.5"/><line class="cls-3" x1="150" y1="23.9" x2="150" y2="276.1"/><polygon class="cls-14" points="147.5 24.7 150 20.4 152.5 24.7 147.5 24.7"/><polygon class="cls-14" points="147.5 275.3 150 279.6 152.5 275.3 147.5 275.3"/></g><g id="Lines"><polygon class="cls-15" points="192.2 25.7 197.7 27.9 195.6 10.9 182.3 21.6 187.7 23.9 86.1 274.3 80.7 272.1 82.7 289.1 96 278.4 90.6 276.1 192.2 25.7"/></g><g id="Africa_Modest"><path class="cls-9" d="M140.5,151.1c-.4,1.9-.8,3.8-2.1,5.3-1,1.2-2.6,1.1-4.2.8-.5-.1-.9-.2-1.3-.4-2.1-.7-6.8-6-6.8-6h0c.7-3.1.5-4.1,4-5.8,2,.2,2.9-.6,5-.7,2.1,0,3.1-.6,4.4.8,1.5,1.5,1.3,3.9.9,5.9Z"/><path class="cls-9" d="M174.9,66.5c-.2,2-5.5,2.5-7.7,3.3-.2-1.4-1-2.2-2.6-3.2,1.7-2.2.3-3.6,2.4-5.5,1.2-1.1,5.6-1.1,6.9.5.8,1,1,3.7.8,4.9Z"/><path class="cls-12" d="M164.7,66.5s0,0-.1.1"/><path class="cls-10" d="M128.7,102.7c0,.4,0,.8,0,1.1-.2,5.7-1.2,11.4-2.6,17.2-1.2,4.9-2.7,9.8-4.4,14.7h0c1.1,1.4,2.2,2.9,3.4,4.3-4.7,1.9-4.7,3.5-5.1,7.3-.8-.7-1.5-1.4-2.3-2.1,0,0,0,0,0,0-1.8-1.8-3.4-3.5-4.3-4.9-.7-.7-1.3-1.4-1.9-2h0c-2.6-2.7-4.8-4.8-6.4-6.8h0c-2.2-2.5-3.7-4.8-4.6-7.7h0c-.1-.5-.2-.9-.4-1.4-.2-.9.2-4.3.9-8.6h-.1c1.3-9.2,1.9-12.9,3.7-17.5.6-1.5,1.3-3,2.2-4.9,1.7-3.1,4.4-4.9,10.7-4,3.2.5,8.1,8.9,11.2,15.4Z"/><path class="cls-10" d="M106.1,96c-2.2,5.1-4,12.2-5.1,17.8"/><path class="cls-12" d="M120,133.5c-4.6-6.1-6.9-9.5-7.4-12-.3-1.4,4.9-14.3,6.1-23"/><path class="cls-11" d="M128.7,99.5s0,0,0,0c-3.1-7-4-8.2-7.6-12.6,1,.7,5.5,1.2,5.7-1.4,0,.1,0,.3,0,.5h0c.8,3.2,1.4,6.4,1.6,9.6.1,1.3.2,2.6.2,3.9Z"/><path class="cls-10" d="M105,131.5c-1.9-.9-3.6-1.4-5.5-2.2t0,0c0-.3.9-5.2.9-5.5h0s0,0,0,0c.9,2.9,2.4,5.2,4.6,7.7Z"/><path class="cls-8" d="M111.5,138.3c-4.9-1.5-8.7-2.7-13.6-4.2h-.1c.4-1.7.9-3.3,1.8-4.8t0,0c1.9.9,3.6,1.4,5.5,2.2h0c1.7,2,3.8,4.1,6.4,6.8Z"/><path class="cls-4" d="M124.8,172.8c0,.4-.2.8-.3,1.2-3.6,13.6-7.2,20.5-13,32.7-.3,0-.5,0-.8,0-4.1-.4-8.1-2.1-11.3-4.5-.3-.2-.7-.5-1-.8,2.6-12.2,9.3-18.3,11.2-30.5-1.7-7.5-5.7-12.7-9-19.6-2.6-5.4-4.1-11.5-2.8-17.1h.1c4.9,1.6,8.7,2.7,13.6,4.3h0c.6.6,1.2,1.3,1.9,2,1,1.4,2.5,3.1,4.3,4.9,0,0,0,0,0,0,1.5,4.8,3.2,10.8,4.6,16.5,1,4.1,1.8,8,2.4,11.1Z"/><path class="cls-12" d="M100.4,123.7s0,0,0,0"/><path class="cls-12" d="M117.7,145.2c0,0,0-.1,0-.2"/><path class="cls-7" d="M110.6,206.8c-1,1.6-.2,9.2-.2,11,0,1.8-1.3,2.1-3.1,2.8-1.4.5-3,0-4.4-.5-1.2-.5-5.2-4.6-5.3-6.3-.5-4.8.5-7,1.7-11.6h0c3.2,2.5,7.2,4.1,11.3,4.5h0Z"/><path class="cls-4" d="M146.6,124.4c-1.2,5.4-5.8,15.3-7,20.7-1.4-1.5-2.3-.9-4.4-.8-2.1,0-3,.8-5,.7-1.4-1.1-2.8-2.4-4.1-3.8-.4-.4-.7-.8-1-1.2-1.2-1.4-2.3-2.8-3.4-4.2h0c1.7-4.9,3.2-9.8,4.4-14.7h0c1.9-2.9,12.6-10.9,16.1-10.7,1.8,0,4.4,3,5.4,4.4.8,1,0,6.7-1,9.7Z"/><path class="cls-10" d="M163.7,74c-7.2,5.7-16.3,11.8-19.2,13.7-2.3,1.5-9.8,3.2-15.9,7.9h0c-.3-3.2-.8-6.4-1.6-9.6h0c0-.2,0-.3,0-.5h0c-.4-2-.4-1.8-.6-3,6.2-2.4,12.8-3.6,14.6-4.7,4.5-2.5,12.2-5.7,19.3-9.5,3.4.8,3.7,5.6,3.6,5.7Z"/><path class="cls-8" d="M163.7,74c.1-.1-.2-4.9-3.6-5.7,1.3-.7,2.7-1.4,4-2.2.2.1.4.3.6.4,1.6,1.1,2.3,1.9,2.6,3.2,0,.4,0,.8,0,1.3-1.1,1-2.3,2-3.6,3Z"/><path class="cls-5" d="M120.3,49.4c-.9-1.4-3.4-2.1-7.7.8-3.8,2.6-4.9,4-5.9,6.7-.4,1.3.5,3,.9,4.3.5,1.3,1.5,3.7,1.6,4.3.1.6-.1,1.6-.5,2.1-.4.5-1.1.7-1.7.4-.6-.3-1.5-.1-2,.3-.5.4-.7,1.1-.6,1.8,0,.6.3,1.3.7,1.8.6,1,2.7,2.5,3.8,2.7.4,0,.8,0,1.2,0h0c.6,1.6,1.1,2.2.7,3.9h-.3c0,0,0,0,0,0-4.3-.2-8.4-2.7-11.1-6.7h0c-3.3-4.5-3.9-5-5.3-7.5-1.1-2-1.6-5.6,0-7.4,4.3-5,8-9.2,15.6-13,1.3-.6,5.2-1.6,6.2-.6,2.1,2.1,3.2,4,4.6,6.2Z"/><path class="cls-12" d="M99.4,72.1c0,0-.1-.1-.2-.2"/><path class="cls-8" d="M130.2,145c-3.5,1.7-3.3,2.7-4,5.8,0,.4-.2.8-.3,1.3-1.6-1-3.8-2.8-5.9-4.7.4-3.8.4-5.4,5.1-7.3.3.4.7.8,1,1.2,1.3,1.4,2.6,2.7,4.1,3.8Z"/><path class="cls-12" d="M121.6,135.7c-.6-.7-1.1-1.5-1.6-2.2"/><path class="cls-12" d="M111,84.4c-.6.2-1.2.4-1.8.7"/><path class="cls-9" d="M129,62.5c-1-1.6-3.1-3-3.9-5.4-.1-.4-.2-.6-.3-.9-.3.3-.9.8-1.1.9-.6.3-2.1.7-2.3-.2,0-.6,1.8-2.1,2.4-2.2-.2-.3-.5-.6-.8-1-1.1-1.5-2-2.9-2.7-4.1,0,0,0,0,0,0-.9-1.4-3.4-2.1-7.7.8-3.8,2.6-4.9,4-5.9,6.7-.4,1.3.5,3,.9,4.3.5,1.3,1.5,3.7,1.6,4.3.1.6-.1,1.6-.5,2.1-.4.5-1.1.7-1.7.4-.6-.3-1.5-.1-2,.3-.5.4-.7,1.1-.6,1.8,0,.6.3,1.3.7,1.8.6,1,2.7,2.5,3.8,2.7.4,0,.8,0,1.2,0h0c.6,1.6,1.1,2.2.7,3.9h-.3c.4.9.7,1.4.8,2,.2,1.1-.2,2-.3,3.9h0c3.6-1.1,7.3-.8,10.1,2.5,1,.7,5.5,1.2,5.7-1.4h0c-.4-2-.4-1.8-.6-3-.1-.7-.3-1.8-.6-4,2-.4,4.2-.7,5.3-3.9,1-3-.2-9.4-1.8-12.1ZM114.1,62c-.2-.3-.2-.8.1-1l2.5-1.8c.8-.7,2.1-.6,1.5.5-.5.9-3.6,2.7-3.8,2.7-.1,0-.3-.2-.4-.4ZM118.7,64.8c-.3.2-1-.2-1.4-1-.4-.8-.6-1.5-.2-1.7.3-.2,1,.2,1.4,1,.4.8.5,1.5.2,1.7ZM123.9,58c.3-.2.9.3,1.3,1,.4.8.6,1.5.3,1.7-.3.2-.9-.3-1.4-1.1-.4-.8-.6-1.5-.3-1.7ZM127.4,72.4c-1.8,1.2-4.8-.7-4.9-1.1,1.7-.4,5.5-2.6,6.6-3.5.6.9.6,3.2-1.7,4.6Z"/><path class="cls-12" d="M116.4,78.4c1.7.4,7.5.4,9.2,0"/><path class="cls-4" d="M134.3,157.1c-.5,2.1-3.1,8.2-3.6,8.6-.7.6-1.8.4-2.7.2-2.6-.7-3.7-2.1-5.6-4.2-1.4-5.7-3.1-11.7-4.6-16.5.7.7,1.5,1.4,2.3,2.1,2.1,1.9,4.3,3.7,5.9,4.7.1-.5.2-.9.3-1.3h0s4.7,5.2,6.8,6c.4.1.9.3,1.3.4Z"/><path class="cls-12" d="M122.4,161.7h0"/><path class="cls-7" d="M128.5,171.5c-.7,2.2-1.8,1.7-4.1,2.5h0c.1-.4.2-.8.3-1.2-.6-3.1-1.4-7-2.4-11.1,1.9,2.1,3,3.5,5.6,4.2,1.4,1.8,1.3,3.4.6,5.6Z"/><path class="cls-12" d="M136.3,122.9c-3.4,7.2-5.7,10.8-10.2,18.4"/><path class="cls-12" d="M127,86.1s0,0,0-.1"/><path class="cls-12" d="M105.1,131.5s0,0,0,0"/><path class="cls-12" d="M125.1,140s0,0,0,0"/><path class="cls-8" d="M128.7,102.7c-3.1-6.5-8-14.9-11.2-15.4-6.3-.9-9,.9-10.7,4-.9,1.9-1.6,3.5-2.2,4.9h0c-.4.7-1.7.7-2.2,0-.6-.7-.6-1.8-.5-2.7.3-2.9,1-5.9,2.7-8.3,1.7-2.4,3.9-4.7,6.8-4.7.2,1.1-.2,2-.3,3.9h0c3.6-1.1,7.3-.8,10.1,2.5,3.6,4.4,4.5,5.6,7.6,12.6h0c0,1.1,0,2.1,0,3.2Z"/><path class="cls-12" d="M128.8,102.7s0,0,0,0"/><path class="cls-12" d="M124.4,62.7c.9.6,2.1.7,2.8,2.2s-2.1,3.2-2.7,3.1"/><path class="cls-13" d="M118.7,64.8c-.3.2-1-.2-1.4-1-.4-.8-.6-1.5-.2-1.7.3-.2,1,.2,1.4,1,.4.8.5,1.5.2,1.7Z"/><path class="cls-13" d="M125.5,60.8c-.3.2-.9-.3-1.4-1.1-.4-.8-.6-1.5-.3-1.7.3-.2.9.3,1.3,1,.4.8.6,1.5.3,1.7Z"/><path class="cls-2" d="M127.4,72.4c-1.8,1.2-4.8-.7-4.9-1.1,1.7-.4,5.5-2.6,6.6-3.5.6.9.6,3.2-1.7,4.6Z"/><path class="cls-5" d="M118.3,59.7c-.5.9-3.6,2.7-3.8,2.7-.1,0-.3-.2-.4-.4-.2-.3-.2-.8.1-1l2.5-1.8c.8-.7,2.1-.6,1.5.5Z"/><path class="cls-12" d="M111.6,73.6c-.3.6-.8,1-1.5,1.1"/><path class="cls-5" d="M125,55.8c0,0,0,.2-.1.4-.3.3-.9.8-1.1.9-.6.3-2.1.7-2.3-.2,0-.6,1.8-2.1,2.4-2.2,0,0,0,0,.1,0,.3,0,.9.9,1,1.2Z"/><path class="cls-12" d="M104.6,96.1c0,0,0,.1,0,.2"/><path class="cls-12" d="M111.4,80.6h0"/><path class="cls-6" d="M131.6,102.7c-.9.5-1.8.9-2.8,1.1h-.1c0-.4,0-.8,0-1.2,0-1,0-2.1,0-3.1h0s0,0,0,0h0c.8,1.2,1.8,2.3,2.9,3.2Z"/><path class="cls-12" d="M128.9,103.6c0,0,0,.1,0,.2"/></g></svg>