<?xml version="1.0" encoding="UTF-8"?><svg xmlns="http://www.w3.org/2000/svg" width="300" height="300" viewBox="0 0 300 300"><defs><style>.cls-1{fill:#2e1617;}.cls-1,.cls-2,.cls-3,.cls-4,.cls-5,.cls-6,.cls-7,.cls-8,.cls-9,.cls-10{stroke-width:.5px;}.cls-1,.cls-2,.cls-3,.cls-4,.cls-5,.cls-6,.cls-7,.cls-8,.cls-9,.cls-10,.cls-11{stroke:#000;}.cls-1,.cls-2,.cls-3,.cls-5,.cls-6,.cls-7,.cls-8,.cls-9,.cls-10{stroke-linecap:round;stroke-linejoin:round;}.cls-12{stroke:#58595b;stroke-width:.2px;}.cls-12,.cls-4,.cls-9{fill:#fff;}.cls-12,.cls-4,.cls-11{stroke-miterlimit:10;}.cls-2{fill:#c95f80;}.cls-3{fill:#d2809b;}.cls-5{fill:#8ab0d2;}.cls-6{fill:#90a5c8;}.cls-7{fill:#875239;}.cls-8{fill:#f4f4f4;}.cls-10,.cls-11{fill:none;}.cls-13,.cls-14{stroke-width:0px;}.cls-14{fill:#27b04b;}</style></defs><g id="Grid"><rect class="cls-12" x="29.3" y="29.3" width="241.5" height="241.5"/><line class="cls-12" x1="29.3" y1="258.6" x2="270.7" y2="258.6"/><line class="cls-12" x1="29.3" y1="246.6" x2="270.7" y2="246.6"/><line class="cls-12" x1="29.3" y1="234.5" x2="270.7" y2="234.5"/><line class="cls-12" x1="29.3" y1="222.5" x2="270.7" y2="222.5"/><line class="cls-12" x1="29.3" y1="210.4" x2="270.7" y2="210.4"/><line class="cls-12" x1="29.3" y1="198.3" x2="270.7" y2="198.3"/><line class="cls-12" x1="29.3" y1="186.2" x2="270.7" y2="186.2"/><line class="cls-12" x1="29.3" y1="174.2" x2="270.7" y2="174.2"/><line class="cls-12" x1="29.3" y1="162.1" x2="270.7" y2="162.1"/><line class="cls-12" x1="29.3" y1="150" x2="270.7" y2="150"/><line class="cls-12" x1="29.3" y1="137.9" x2="270.7" y2="137.9"/><line class="cls-12" x1="29.3" y1="125.8" x2="270.7" y2="125.8"/><line class="cls-12" x1="29.3" y1="113.8" x2="270.7" y2="113.8"/><line class="cls-12" x1="29.3" y1="101.7" x2="270.7" y2="101.7"/><line class="cls-12" x1="29.3" y1="89.6" x2="270.7" y2="89.6"/><line class="cls-12" x1="29.3" y1="77.5" x2="270.7" y2="77.5"/><line class="cls-12" x1="29.3" y1="65.5" x2="270.7" y2="65.5"/><line class="cls-12" x1="29.3" y1="53.4" x2="270.7" y2="53.4"/><line class="cls-12" x1="29.3" y1="41.4" x2="270.7" y2="41.4"/><line class="cls-12" x1="258.6" y1="29.3" x2="258.6" y2="270.7"/><line class="cls-12" x1="246.6" y1="29.3" x2="246.6" y2="270.7"/><line class="cls-12" x1="234.5" y1="29.3" x2="234.5" y2="270.7"/><line class="cls-12" x1="222.5" y1="29.3" x2="222.5" y2="270.7"/><line class="cls-12" x1="210.4" y1="29.3" x2="210.4" y2="270.7"/><line class="cls-12" x1="198.3" y1="29.3" x2="198.3" y2="270.7"/><line class="cls-12" x1="186.2" y1="29.3" x2="186.2" y2="270.7"/><line class="cls-12" x1="174.2" y1="29.3" x2="174.2" y2="270.7"/><line class="cls-12" x1="162.1" y1="29.3" x2="162.1" y2="270.7"/><line class="cls-12" x1="150" y1="29.3" x2="150" y2="270.7"/><line class="cls-12" x1="137.9" y1="29.3" x2="137.9" y2="270.7"/><line class="cls-12" x1="125.8" y1="29.3" x2="125.8" y2="270.7"/><line class="cls-12" x1="113.8" y1="29.3" x2="113.8" y2="270.7"/><line class="cls-12" x1="101.7" y1="29.3" x2="101.7" y2="270.7"/><line class="cls-12" x1="89.6" y1="29.3" x2="89.6" y2="270.7"/><line class="cls-12" x1="77.5" y1="29.3" x2="77.5" y2="270.7"/><line class="cls-12" x1="65.5" y1="29.3" x2="65.5" y2="270.7"/><line class="cls-12" x1="53.4" y1="29.3" x2="53.4" y2="270.7"/><line class="cls-12" x1="41.4" y1="29.3" x2="41.4" y2="270.7"/><line class="cls-11" x1="23.9" y1="150" x2="276.1" y2="150"/><polygon class="cls-13" points="24.7 152.5 20.4 150 24.7 147.5 24.7 152.5"/><polygon class="cls-13" points="275.3 152.5 279.6 150 275.3 147.5 275.3 152.5"/><line class="cls-11" x1="150" y1="23.9" x2="150" y2="276.1"/><polygon class="cls-13" points="147.5 24.7 150 20.4 152.5 24.7 147.5 24.7"/><polygon class="cls-13" points="147.5 275.3 150 279.6 152.5 275.3 147.5 275.3"/></g><g id="Lines"><polygon class="cls-14" points="259.5 87.6 265.8 71.7 249 74.8 252.7 79.3 44.2 251.3 40.5 246.8 34.2 262.7 51 259.6 47.3 255 255.8 83 259.5 87.6"/></g><g id="Latin"><path class="cls-6" d="M140.7,119.9c0,10.4-2.9,21.8-4.3,33.3h0c-3.2,2.2-7.2,3.2-11,2.6h0c-.7-7.2-1.3-13.9.9-22.3-8.3,3.2-18.5,6.8-26.1,6.6-4.3,18.8-9.8,36.4-14.5,54.8-2.3.6-4.7,1.1-7.1,1-2.4-.1-4.8-1.1-6.3-2.9.8-6.9,1.6-13.7,3.8-21.8,4.3-15.5-3.5-24.8-1.2-39.8.2-.3,2.5-5.7,4-10,8.4-.2,20.4,6.3,27.1,9.3,4.3-3.3,6.1-6.7,7.8-13.7l.9.2c4.7-1.5,11-1.7,16.3-1,4.8.6,8.8,1.9,9.8,3.5Z"/><path class="cls-10" d="M90.1,87.7c0,.2-.1.3-.2.5"/><path class="cls-7" d="M85.6,194.9c-.9,3.4-1.7,6.8-2.5,10.3-4.1,1-8.7.2-12.2-2.2.5-3.5.9-6.8,1.3-10,1.5,1.9,3.9,2.8,6.3,2.9,2.4.1,4.8-.4,7.1-1Z"/><path class="cls-9" d="M83.1,205.2c-.5,1.9-.9,3.8-1.3,5.7-4.7,2.7-8.4,2.4-12.3,0,.6-2.8,1.1-5.4,1.5-8,3.5,2.4,8,3.3,12.2,2.2Z"/><path class="cls-10" d="M101,136c-.3,1.4-.6,2.8-.9,4.2"/><path class="cls-10" d="M100.1,140.2h-.2"/><path class="cls-10" d="M132.1,131.3c-1.8.7-3.8,1.5-5.9,2.3"/><path class="cls-7" d="M136.3,153.3c-.3,2.8-.6,5.7-.7,8.5h0c-2.9,1.8-6.2,2.6-9.6,2.5-.2-2.9-.5-5.7-.7-8.4h0c3.8.5,7.9-.4,11-2.6h0Z"/><path class="cls-9" d="M135.6,165.9s-2.2,4-9.5,4c0-1.9,0-3.8-.2-5.6,3.3.1,6.7-.7,9.6-2.5h0c0,1.4,0,2.7,0,4.1Z"/><path class="cls-3" d="M120.5,80.3c-.3-.3-.7-.8-1.3-1.4-.4-.4-.7-.9-1.2-1.4-1.8-2.1-4-4.7-5.3-6.2-.3-.4-.6-.7-.7-.8-.5-.5-1.2-1.3-2.1-2.2-1.8-1.7-4.2-3.4-5.6-2.9-2.5.7-3.8.7-7.2,2.5-2.1,1-3.8,1.9-5.4,2.9-.4-3,.8-6.1,3-8.1,2.3-2.1,5.7-2.9,8.7-2.1.8.2,1.6.5,2.3.9,2.8,1.5,5,4.2,7,6.7,1.3,1.7,5.5,6.3,6.8,8,.4,1.3.7,2.6.9,3.8,0,0,0,.2,0,.3Z"/><path class="cls-8" d="M119.3,78.9l-.2.2c-.7,4.6-1.4,9.2-2.1,13.9-.4,2.3-.7,4.6-2,6.6-.3-7.4.7-14.9,3-21.9l.2-.2c.4.5.8,1,1.2,1.4Z"/><path class="cls-2" d="M120.1,91.2c0,0,0,.1,0,.2-1,3.9-2.7,7.7-3.7,13-1.1,5.3-1.9,9.4-2.7,12.8h0c-1.7,6.9-3.5,10.3-7.8,13.7-6.7-3-18.7-9.5-27.1-9.3.3-.9.6-1.8.8-2.5,1.2,1.2,2.6,1.9,4.3,1.8,2.8-.3,5.2-1.5,5.4-4.3.2-2.8-.4-5.5-3-6.3,0-.2.2-.4.3-.6-.4-1.2-.7-2.5-1-3.9h0c1.1-2.9,3.1-13.6,4.5-17.4-2.4.7-4.6,1.2-7.3,2.1.9,3.9,1.5,9.1,2.5,13.8h-.2c-.7,1.3-1.8,2.1-3.2,2.6-1.6-3.3-2.3-6.5-3-10.2-.7-3.6-1.3-5.4.7-8.4,1.6-2.4,4.1-4,6.6-5.4,8.5-5,19.9-10,26.5-10.9l.2-.3c1.2,1.4,3.5,4.1,5.3,6.2l-.2.2c-2.3,7-3.3,14.5-3,21.9,1.2-2,1.6-4.3,2-6.6.7-4.6,1.4-9.2,2.1-13.9l.2-.2c.6.6,1,1.1,1.3,1.4h0c.8,4.3.4,7.6-.4,10.8Z"/><path class="cls-2" d="M110,68.4h0c-9.4,3.2-18.4,7.3-27,12.3-2.5,1.4-5,3-6.6,5.4-2.1,3-1.5,4.8-.7,8.4.7,3.6,1.4,9.2,3,12.5v.2c-1.2,0-2.5-.1-3.7-.3-1.5-5.2-2.6-9.1-3.9-13.8-2.5-8.8,1.5-9.5,4.4-12,8.8-4.6,12-7.4,16.4-10.1,1.5-1,3.2-1.9,5.4-2.9,3.4-1.8,4.7-1.9,7.2-2.5,1.4-.5,3.8,1.2,5.6,2.9Z"/><path class="cls-3" d="M86.5,109.5c0,.2-.2.4-.3.6-1.7,3.4-6,5-8.1,4.7-.6,0-1-.3-1.1-.8-.8-2.7-1.5-5.1-2.1-7.2,1.2.2,2.5.3,3.7.3.6,0,1.1,0,1.7-.2.5,0,1-.2,1.4-.4,1.3-.5,2.5-1.3,3.2-2.5h.2c.1.5.2,1,.3,1.5.3,1.4.6,2.7,1,3.9Z"/><path class="cls-10" d="M89.9,88.2c1.2-.3,2.5-.7,3.9-1.1,3.3-1,9.3-2.6,12.1-4.6,1.1-.8,1.9-1.4,2.5-2.1"/><path class="cls-2" d="M120.5,89.7c-.1.5-.2,1-.3,1.4"/><path class="cls-2" d="M130.9,116v.4c-5.3-.7-11.6-.5-16.3,1l-.9-.2h0c.8-3.3,1.6-7.5,2.7-12.8,1.1-5.4,2.7-9.2,3.7-13-1.5,6.6-1,7.3-2.5,14.8,2.7,2.4,10,8.5,13.3,9.8Z"/><path class="cls-5" d="M90.1,218.2c-2.4,2.4-7.4,4.2-10.1,4.9-5.3,1.4-8.4,2.4-9.8,1.2-5-4.4-2.5-11.3-.8-13.3,4,2.4,7.6,2.7,12.3,0,10.7-2.8,13.2,2.3,8.4,7.2Z"/><path class="cls-10" d="M120.5,80.4c.3.3.4.3,0-.3"/><path class="cls-1" d="M133.8,43.2c-2.5-.8-4.2.8-5.6,3-.6,1-1.5,2.1-2.4,3.2-3,0-6.1,0-8.8.1,0,.1.2.4.2.7h-.3c-.4-.8-1.6-1-2.4-.6-.8.4-1.4,1.3-1.8,2.1-.5.9-.8,1.9-.8,3s.3,2.1,1.1,2.8h-.1c-2.1,1.2-4.6,1.5-6.9,1.1h0c-3.6-.8-4.1-7.2-2.9-12.9.6-2.9,1.6-5.6,2.8-7.3,1.6-2.2,3.8-3.6,6.4-4.4,3.4-1.1,7.2-1.2,10.7-.6,3.1.5,7.6,3.8,9.9,5.9.8.7,1.3,2.1,1,4Z"/><path class="cls-7" d="M134.7,50.4c-1.4-.3-2.5-.6-4.3-1-1.5,0-3-.1-4.6-.1.9-1.1,1.8-2.2,2.4-3.2,1.5-2.2,3.1-3.8,5.6-3h0c1.6,2.3,1.6,4.8.9,7.2Z"/><path class="cls-10" d="M134.7,50.4l-.2.4"/><path class="cls-9" d="M131.9,65h0c-.2.4-.5,1.1-.8,1.9-.1,0-.3,0-.5,0-2.2-.5-2.4-1-3.2-3.1.3.2.6.4.9.6,1.9.6,1.9.1,3.5.8Z"/><path class="cls-10" d="M131.1,66.9s0,0,0,0"/><path class="cls-7" d="M135.6,60.7c-.2.8-.6,1.7-1.4,1.6-.4,0-.9-.2-1.3-.3-.5,1.5-.3,2.4-.6,3.1-.1,0-.2-.1-.4-.1h0c-1.6-.6-1.6-.2-3.5-.8-.3-.2-.6-.4-.9-.6.8,2.2.9,2.6,3.2,3.1.2,0,.4,0,.5,0,.2,0,.3,0,.3.4,0,.3-1.4,1.8-2.1,2.6-.8,1-1.3,3.5-2.6,3.1-.7-.2-3.8,0-7-3.7,0,0-2.3.6-1.9,2.4.7,1.7,1.2,3.2,1.7,4.7-1.3-1.7-5.5-6.3-6.8-8-2-2.6-4.2-5.2-7-6.7v-.2c0-.8.2.1.2-2.8h0c2.3.5,4.8.1,6.9-1h.1c-.8-.8-1.2-1.9-1.1-2.9s.4-2,.8-3c.4-.9.9-1.7,1.8-2.1.8-.4,2-.2,2.4.6h.3c.1.5.1,1.3,0,1.6,4.2.3,7.8.7,12,1h.3c-.3,1.9-.6,3.9-.5,5,1.1.4,3.1.9,4.7.9s1.1,0,1.5-.2c0,1,.6,1.2.4,2.2Z"/><path class="cls-7" d="M89.2,116.5c-.2,2.8-2.6,4-5.4,4.3-1.7.2-3.1-.6-4.3-1.8-1.2-1.2-2-2.6-1.5-4.1,2.1.4,6.5-1.3,8.1-4.7,2.6.8,3.3,3.5,3,6.3Z"/><path class="cls-5" d="M146.1,167.2c-.9,4.1-4.7,6.2-9.3,9.3-2.2,1.5-5.7,3.1-8.5,4.4-3.8,1.7-3.3-9.9-2.2-11,7.3,0,9.5-4,9.5-4,2.3-1.1,11.2-2.1,10.5,1.3Z"/><path class="cls-3" d="M134.7,50.4c-1.4-.3-2.5-.6-4.3-1-.3.8-.6,2-.8,3.4-.3,1.8-.6,3.8-.5,4.9,1.1.4,3.1.9,4.7.9s1.1,0,1.5-.2c.8-3.2,1.1-4.7,1.5-7.6-.8-.2-1.5-.3-2-.5ZM134.8,57.7c-1.2,0-2.9-.2-4.1-.3,0-2.3-.2-3.4.4-6.4,1.1,0,3.8.9,4.9,1.2-.5,2.2-.8,3.7-1.2,5.5Z"/><path class="cls-3" d="M130.4,49.5c-.3.8-.6,2-.8,3.4h-.3c-4.2-.4-7.8-.8-12-1.1,0-.3,0-1,0-1.6,0-.3-.1-.6-.2-.7,2.7-.1,5.8-.2,8.8-.1,1.6,0,3.2,0,4.6.1Z"/><path class="cls-10" d="M115.9,57.7c-.8.6-2.1.5-2.9-.2"/><path class="cls-10" d="M131.7,61.9c.4,0,.8,0,1.2.2"/><path class="cls-10" d="M119.8,69.3c-.8-.9-1.5-1.9-2.2-3.2"/><path class="cls-10" d="M130.8,57.2c0,0,0,.1-.1.2"/><path class="cls-4" d="M131.1,50.9c-.6,3-.4,4.1-.4,6.4,1.2,0,2.9.2,4.1.3.5-1.8.7-3.4,1.2-5.5-1.1-.3-3.8-1.2-4.9-1.2Z"/><path class="cls-13" d="M134.5,54.8c-.2,1-.7,1.7-1.1,1.6-.5,0-.7-.9-.5-1.9.2-1,.7-1.7,1.1-1.6.4,0,.7.9.5,1.9Z"/><path class="cls-10" d="M107.3,111.3c-2.7,4.2-4.5,7.4-9,9.4"/><path class="cls-8" d="M112.8,71.4l-.2.3c-6.6.9-18,6-26.5,10.9-2.5,1.4-5,3-6.6,5.4-2.1,3-1.5,4.8-.7,8.4.7,3.6,1.4,6.9,3,10.2-.5.2-1,.3-1.4.4-.5.1-1.1.1-1.7.2v-.2c-1.6-3.3-2.3-8.9-3-12.5-.7-3.6-1.3-5.4.7-8.4,1.6-2.4,4.1-4,6.6-5.4,8.5-5,17.6-9.1,27-12.2h0c.9.8,1.7,1.6,2.1,2.1.2.2.4.5.7.8Z"/><line class="cls-10" x1="81.8" y1="106.7" x2="81.8" y2="106.7"/><path class="cls-9" d="M85.8,194.9c0,0-.1,0-.2,0"/><path class="cls-9" d="M70.9,203s0,0,0,0"/><path class="cls-10" d="M125.8,49.4s0,0,0,0"/><path class="cls-10" d="M133.9,43.2s0,0,0,0"/><path class="cls-1" d="M112.2,33.9c-2.6.8-4.8,2.3-6.4,4.4-1.2,1.7-2.2,4.4-2.8,7.3-1.3.4-2.8-.1-3.8-1.1-1-1-1.5-2.4-1.7-3.7-.3-2.3.2-4.7,1.5-6.7,1.1-1.7,2.8-3,4.7-3.5,1.3-.3,2.7-.2,4,0,1,.1,2,.2,2.9.7.9.5,1.6,1.5,1.5,2.5h0Z"/><path class="cls-10" d="M103.1,45.7s0,0,0,0"/></g></svg>