<?xml version="1.0" encoding="UTF-8"?><svg xmlns="http://www.w3.org/2000/svg" width="300" height="300" viewBox="0 0 300 300"><defs><style>.cls-1{fill:#4d251e;}.cls-1,.cls-2,.cls-3,.cls-4,.cls-5,.cls-6{stroke:#000;}.cls-1,.cls-2,.cls-3,.cls-4,.cls-6{stroke-linecap:round;stroke-linejoin:round;stroke-width:.5px;}.cls-7{stroke:#58595b;stroke-width:.2px;}.cls-7,.cls-3{fill:#fff;}.cls-7,.cls-5{stroke-miterlimit:10;}.cls-2{fill:#d67a57;}.cls-4,.cls-5{fill:none;}.cls-8,.cls-9{stroke-width:0px;}.cls-9{fill:#27b04b;}.cls-6{fill:#f8945a;}</style></defs><g id="Grid"><rect class="cls-7" x="29.3" y="29.3" width="241.5" height="241.5"/><line class="cls-7" x1="29.3" y1="258.6" x2="270.7" y2="258.6"/><line class="cls-7" x1="29.3" y1="246.6" x2="270.7" y2="246.6"/><line class="cls-7" x1="29.3" y1="234.5" x2="270.7" y2="234.5"/><line class="cls-7" x1="29.3" y1="222.5" x2="270.7" y2="222.5"/><line class="cls-7" x1="29.3" y1="210.4" x2="270.7" y2="210.4"/><line class="cls-7" x1="29.3" y1="198.3" x2="270.7" y2="198.3"/><line class="cls-7" x1="29.3" y1="186.2" x2="270.7" y2="186.2"/><line class="cls-7" x1="29.3" y1="174.2" x2="270.7" y2="174.2"/><line class="cls-7" x1="29.3" y1="162.1" x2="270.7" y2="162.1"/><line class="cls-7" x1="29.3" y1="150" x2="270.7" y2="150"/><line class="cls-7" x1="29.3" y1="137.9" x2="270.7" y2="137.9"/><line class="cls-7" x1="29.3" y1="125.8" x2="270.7" y2="125.8"/><line class="cls-7" x1="29.3" y1="113.8" x2="270.7" y2="113.8"/><line class="cls-7" x1="29.3" y1="101.7" x2="270.7" y2="101.7"/><line class="cls-7" x1="29.3" y1="89.6" x2="270.7" y2="89.6"/><line class="cls-7" x1="29.3" y1="77.5" x2="270.7" y2="77.5"/><line class="cls-7" x1="29.3" y1="65.5" x2="270.7" y2="65.5"/><line class="cls-7" x1="29.3" y1="53.4" x2="270.7" y2="53.4"/><line class="cls-7" x1="29.3" y1="41.4" x2="270.7" y2="41.4"/><line class="cls-7" x1="258.6" y1="29.3" x2="258.6" y2="270.7"/><line class="cls-7" x1="246.6" y1="29.3" x2="246.6" y2="270.7"/><line class="cls-7" x1="234.5" y1="29.3" x2="234.5" y2="270.7"/><line class="cls-7" x1="222.5" y1="29.3" x2="222.5" y2="270.7"/><line class="cls-7" x1="210.4" y1="29.3" x2="210.4" y2="270.7"/><line class="cls-7" x1="198.3" y1="29.3" x2="198.3" y2="270.7"/><line class="cls-7" x1="186.2" y1="29.3" x2="186.2" y2="270.7"/><line class="cls-7" x1="174.2" y1="29.3" x2="174.2" y2="270.7"/><line class="cls-7" x1="162.1" y1="29.3" x2="162.1" y2="270.7"/><line class="cls-7" x1="150" y1="29.3" x2="150" y2="270.7"/><line class="cls-7" x1="137.9" y1="29.3" x2="137.9" y2="270.7"/><line class="cls-7" x1="125.8" y1="29.3" x2="125.8" y2="270.7"/><line class="cls-7" x1="113.8" y1="29.3" x2="113.8" y2="270.7"/><line class="cls-7" x1="101.7" y1="29.3" x2="101.7" y2="270.7"/><line class="cls-7" x1="89.6" y1="29.3" x2="89.6" y2="270.7"/><line class="cls-7" x1="77.5" y1="29.3" x2="77.5" y2="270.7"/><line class="cls-7" x1="65.5" y1="29.3" x2="65.5" y2="270.7"/><line class="cls-7" x1="53.4" y1="29.3" x2="53.4" y2="270.7"/><line class="cls-7" x1="41.4" y1="29.3" x2="41.4" y2="270.7"/><line class="cls-5" x1="23.9" y1="150" x2="276.1" y2="150"/><polygon class="cls-8" points="24.7 152.5 20.4 150 24.7 147.5 24.7 152.5"/><polygon class="cls-8" points="275.3 152.5 279.6 150 275.3 147.5 275.3 152.5"/><line class="cls-5" x1="150" y1="23.9" x2="150" y2="276.1"/><polygon class="cls-8" points="147.5 24.7 150 20.4 152.5 24.7 147.5 24.7"/><polygon class="cls-8" points="147.5 275.3 150 279.6 152.5 275.3 147.5 275.3"/></g><g id="Lines"><polygon class="cls-9" points="259.5 87.6 265.8 71.7 249 74.8 252.7 79.3 44.2 251.3 40.5 246.8 34.2 262.7 51 259.6 47.3 255 255.8 83 259.5 87.6"/></g><g id="Oceania"><path class="cls-2" d="M134.8,59.9c-.1-1.4-1.2-2.2-1.7-3.5-.2-.5-.3-1-.6-1.5-.5-.7-1.5-.9-2.3-1.2-.6-.2-1.3-.7-1.5-1.3,0,1.8-1,3.2-2.3,4.7-.8.9-1.6,1.9-1.6,3.2-.1,2.2,2.2,4.2,1.7,6.4-.4,2-2.9,3-3.4,4.9-.5,1.9,1.1,3.9.9,5.9-.1,1.6-1.4,3-2.2,4.5,2.6,1.6,4,1.7,4.8,1.9,1.4.4,3.8-5.2,3.8-5.5,0-.4-.1-.4-.4-.4s-.3,0-.6,0c-2.6-.5-1.4-.8-2.3-3,.3.2,2.2.5,4.4,1.2.1,0,.3,0,.4.1.4-.8.1-1.3.7-2.9h0c1.1-.2,2-.9,2.1-1.8,0-1.2-.3-2.9-.7-7,.3-.9.7-2.1.8-3.1h0c0-.5.1-1,0-1.5ZM132.5,62.2c-.7,0-1.3-.2-1.9-.4-.6-.2-1.4-.3-1.9,0-.3-.1-.4-.6-.2-1,.2-.3.6-.5.9-.6.8-.3,1.5-.6,2.3-.7.8,0,1.7.3,2.1,1,.2.6-.7,1.5-1.3,1.6Z"/><path class="cls-1" d="M124.7,60.3c-.1,2.2,2.2,4.2,1.7,6.4-.4,2-2.9,3-3.4,4.9-.5,1.9,1.1,3.9.9,5.9-.1,1.6-1.4,3-2.2,4.5-.3.6-.5,1.2-.5,1.9,0,2.1,2,3.8,1.8,5.8-.1,1.6-1.4,2.7-2.1,4.1-.8,1.5-.8,3.3-1.3,5-.2.7-.6,1.4-1,2h0c-.4.4-.8.8-1.3,1-.4.2-.8.3-1.2.2-2.4,0-3.3-3.2-5.3-4.4-1.6-1-4-.9-4.6-2.7-.8-2,1.8-3.8,1.7-5.9,0-2.4-3.3-3.8-3.4-6.1,0-1.6,1.5-3.2.8-4.7-.7-1.7-3.5-1.8-3.9-3.6,0,0,0-.1,0-.2-.3-1.5-1.3-3.7-1.1-5.1.3-2.3-3-2.7-3-5,0-2.4,2-3.6,3-5.8.6-1.3,1.1-2.4.9-3.7-.2-1.4-.2-3,.8-4,1-.9,2.7-1.1,3.1-2.4.2-.7,0-1.4,0-2.1.2-1.2,1.5-1.9,2.8-2.1,1.2-.2,6.8.6,8,.2,1.5-.5,1.4-1.3,3-1.3.9,0,1.8.4,2.5.9,0,0,.1,0,.2.1.3.2.5.4.8.6,2.1,1.8,5.3,2.5,6.1,5.3.2.8.3,1.5.3,2.2,0,1.8-1,3.2-2.3,4.7-.8.9-1.6,1.9-1.6,3.2Z"/><path class="cls-1" d="M139.1,67c.5,2-1.1,3.9-2.1,5.8-1.1,2-.6,3.5-.6,5.8,0,1.9-1.2,5.5-2.3,7-.6.8-.9,1.8-.6,2.7.5,2.1,1,2.6.6,4.8-.5,2.8-2.4,3-2.9,5.9-.1.8.2,1.6-.2,2.3-.5.9-1.8,1-2.7.6-1-.3-1.8-1-2.8-1.1-1.3-.2-2.6.5-4,.8-1.3.3-2.6.4-2.9-.8h0c.5-.6.8-1.3,1-2,.5-1.7.5-3.5,1.3-5,.7-1.4,2-2.6,2.1-4.1.2-2-1.8-3.8-1.8-5.8,0-.7.2-1.3.5-1.9,2.6,1.6,4,1.7,4.8,1.9,1.4.4,3.8-5.2,3.8-5.5,0-.4-.1-.4-.4-.4.4-.8,1.3-1.4,1.5-1.9.1,0,.3,0,.4.1.4-.8.1-1.3.7-2.9h0c1.1-.2,2-.9,2.1-1.8,0-1.2-.3-2.9-.7-7,.3-.9.7-2.1.8-3.1h0c0-.5.1-1,0-1.5-.1-1.4-1.2-2.2-1.7-3.5-.2-.5-.3-1-.6-1.5-.5-.7-1.5-.9-2.3-1.2-.6-.2-1.3-.7-1.5-1.3,0-.7,0-1.4-.3-2.2-.8-2.8-4-3.5-6.1-5.3-.2-.2-.5-.5-.8-.6l.2-.2c2-1.4,4.9-1.4,6.8.2.8.6,1.4,1.4,2.2,1.9,1.5.8,3.4.5,4.7,1.5,1.6,1.4,0,3.1,1.3,4.8.8,1,2.1,1.5,2.6,2.6.6,1.2,0,2.6-.8,3.8-.6.9-1.3,1.9-1.4,3,0,.2,0,.4,0,.7.1,1.7,1.8,2.9,2.2,4.5Z"/><line class="cls-4" x1="70.6" y1="138.8" x2="70.6" y2="138.8"/><line class="cls-4" x1="70.6" y1="138.8" x2="70.6" y2="138.8"/><path class="cls-6" d="M138.6,127.8c-1.1-1.4-5.2-2.7-10.2-3.3-5.9-.8-13.1-.7-18.1.8.5-2,1.1-5,2.2-10.1,1.4-6.4,2.4-8.1,3.5-13.1-2.4,0-3.3-3.2-5.3-4.4-1.6-1-4-.9-4.6-2.7-.8-2,1.8-3.8,1.7-5.9,0-2.4-3.3-3.8-3.4-6.1,0-1.6,1.5-3.2.8-4.7-.7-1.7-3.5-1.8-3.9-3.6,0,0,0-.1,0-.2h-.6c-8.4,3.7-17.5,9.5-29.6,16.6-3,2.4-7.2,3-4.5,11.3,2,6.3,3.4,11.1,6.2,19.9.1.4.5.6,1.1.7,2.1.3,6.7-1.2,8.4-4.4,2.7.8,3.4,3.3,3.1,6-.2,2.6-2.7,3.8-5.6,4-1.7.2-3.2-.6-4.4-1.7-1.2,4.1-4.9,11.8-5,11.8-2.4,14.1,3.2,20.6,0,35.5-4,18.6-1.3,15.2-4.1,34.2h-.3c-.6.6-1.2,1.8-1.7,3.2,3.5,2.4,11,.4,20-3.9h0c13.5-6.5,30.1-18.4,40.6-28.8,5.1-5,8.7-9.7,9.8-13.1-.4-15,3.8-24.7,3.8-38.1ZM82.4,117.2c-1.6-5.1-2.4-12.3-3.6-17.3,2.4-.2,7-1.9,11.5-3.8,0,3.6-6.7,18.2-7.8,21.1Z"/><path class="cls-4" d="M82.7,118c0,.2-.2.4-.3.6"/><path class="cls-4" d="M108.7,133.7c.7-4.6.7-4.4,1.6-8.5"/><path class="cls-4" d="M99.8,92.2c-2.4.8-6,2.3-9.6,3.8"/><path class="cls-4" d="M82.7,118c0-.3-.2-.6-.3-.9"/><path class="cls-4" d="M84.4,207.8h-.3"/><path class="cls-1" d="M87.6,215.4c-2.4,2.3-7.6,4-10.4,4.6-5.5,1.3-8.7,2.3-10.2,1.1-3.5-2.8-3.4-6.6-2.5-9.4,3.5,2.4,11,.4,20-3.9h0c6.2,0,7.1,3.8,3.1,7.6Z"/><path class="cls-4" d="M130,78s0,0,0,0"/><path class="cls-2" d="M85.5,124.6c-.2,2.6-2.7,3.8-5.6,4-1.7.2-3.2-.6-4.4-1.7-1.2-1.1-2-2.5-1.5-3.9,2.1.3,6.7-1.2,8.4-4.4,2.7.8,3.4,3.3,3.1,6Z"/><path class="cls-1" d="M145.6,167.1c-.9,3.9-4.9,5.8-9.6,8.8-2.3,1.4-5.9,2.9-8.7,4.1-1.1.4-1.8,0-2.3-1.1,5.1-5,8.7-9.7,9.8-13.1,2.4-1.1,11.6-2,10.8,1.3Z"/><path class="cls-4" d="M125,179s0,0,0,0"/><path class="cls-4" d="M132.6,73.4c-.6,0-1.1,0-1.6-.2"/><path class="cls-4" d="M121.7,82s0,0,0,0"/><path class="cls-4" d="M128.6,52.4c0-.2-.1-.4,0-.6"/><path class="cls-6" d="M128.5,124.1v.3c-6-.8-13.2-.7-18.2.8.5-2,1.1-5,2.2-10.1,1.4-6.4,2.4-8.1,3.5-13.1.4,0,.8,0,1.2-.2-1.5,6.4-1,9.1-2.5,16.2,2.8,2.2,10.3,4.9,13.7,6.1Z"/><path class="cls-4" d="M118.6,100.8s0,0,0,0"/><path class="cls-8" d="M131.7,66c-.2,1.3-1,2.3-1.6,2.2-.6-.1-1-1.2-.7-2.5.2-1.3,1-2.3,1.6-2.2.6,0,1,1.2.7,2.5Z"/><path class="cls-1" d="M132.5,62.2c-.7,0-1.3-.2-1.9-.4-.6-.2-1.4-.3-1.9,0-.3-.1-.4-.6-.2-1,.2-.3.6-.5.9-.6.8-.3,1.5-.6,2.3-.7.8,0,1.7.3,2.1,1,.2.6-.7,1.5-1.3,1.6Z"/><path class="cls-3" d="M131.4,76.1c-.2.4-1.1,1-1.5,1.9-.1,0-.3,0-.6,0-2.6-.5-1.4-.8-2.3-3,.3.2,2.2.5,4.4,1.2Z"/></g></svg>