<?xml version="1.0" encoding="UTF-8"?><svg xmlns="http://www.w3.org/2000/svg" width="300" height="300" viewBox="0 0 300 300"><defs><style>.cls-1{fill:#2c66cd;}.cls-1,.cls-2,.cls-3,.cls-4,.cls-5,.cls-6,.cls-7{stroke-linecap:round;stroke-linejoin:round;stroke-width:.5px;}.cls-1,.cls-2,.cls-3,.cls-4,.cls-5,.cls-6,.cls-7,.cls-8{stroke:#000;}.cls-2{fill:#29262c;}.cls-3{fill:#4cb8eb;}.cls-9{stroke-width:.2px;}.cls-9,.cls-5,.cls-10{fill:#fff;}.cls-9,.cls-10{stroke:#58595b;}.cls-9,.cls-10,.cls-8{stroke-miterlimit:10;}.cls-4{fill:#c8967b;}.cls-6,.cls-8{fill:none;}.cls-11,.cls-12{stroke-width:0px;}.cls-12{fill:#27b04b;}</style></defs><g id="Grid"><rect class="cls-9" x="30" y="29.3" width="241.5" height="241.5"/><line class="cls-9" x1="30" y1="258.6" x2="271.5" y2="258.6"/><line class="cls-9" x1="30" y1="246.6" x2="271.5" y2="246.6"/><line class="cls-9" x1="30" y1="234.5" x2="271.5" y2="234.5"/><line class="cls-9" x1="30" y1="222.5" x2="271.5" y2="222.5"/><line class="cls-9" x1="30" y1="210.4" x2="271.5" y2="210.4"/><line class="cls-9" x1="30" y1="198.3" x2="271.5" y2="198.3"/><line class="cls-9" x1="30" y1="186.2" x2="271.5" y2="186.2"/><line class="cls-9" x1="30" y1="174.2" x2="271.5" y2="174.2"/><line class="cls-9" x1="30" y1="162.1" x2="271.5" y2="162.1"/><line class="cls-10" x1="30" y1="150" x2="271.5" y2="150"/><line class="cls-9" x1="30" y1="137.9" x2="271.5" y2="137.9"/><line class="cls-9" x1="30" y1="125.8" x2="271.5" y2="125.8"/><line class="cls-9" x1="30" y1="113.8" x2="271.5" y2="113.8"/><line class="cls-9" x1="30" y1="101.7" x2="271.5" y2="101.7"/><line class="cls-9" x1="30" y1="89.6" x2="271.5" y2="89.6"/><line class="cls-9" x1="30" y1="77.5" x2="271.5" y2="77.5"/><line class="cls-9" x1="30" y1="65.5" x2="271.5" y2="65.5"/><line class="cls-9" x1="30" y1="53.4" x2="271.5" y2="53.4"/><line class="cls-9" x1="30" y1="41.4" x2="271.5" y2="41.4"/><line class="cls-9" x1="259.4" y1="29.3" x2="259.4" y2="270.7"/><line class="cls-9" x1="247.3" y1="29.3" x2="247.3" y2="270.7"/><line class="cls-9" x1="235.3" y1="29.3" x2="235.3" y2="270.7"/><line class="cls-9" x1="223.2" y1="29.3" x2="223.2" y2="270.7"/><line class="cls-9" x1="211.1" y1="29.3" x2="211.1" y2="270.7"/><line class="cls-9" x1="199" y1="29.3" x2="199" y2="270.7"/><line class="cls-9" x1="186.9" y1="29.3" x2="186.9" y2="270.7"/><line class="cls-9" x1="174.9" y1="29.3" x2="174.9" y2="270.7"/><line class="cls-9" x1="162.8" y1="29.3" x2="162.8" y2="270.7"/><line class="cls-10" x1="150.8" y1="29.3" x2="150.8" y2="270.7"/><line class="cls-9" x1="138.7" y1="29.3" x2="138.7" y2="270.7"/><line class="cls-9" x1="126.6" y1="29.3" x2="126.6" y2="270.7"/><line class="cls-9" x1="114.6" y1="29.3" x2="114.6" y2="270.7"/><line class="cls-9" x1="102.5" y1="29.3" x2="102.5" y2="270.7"/><line class="cls-9" x1="90.4" y1="29.3" x2="90.4" y2="270.7"/><line class="cls-9" x1="78.3" y1="29.3" x2="78.3" y2="270.7"/><line class="cls-9" x1="66.2" y1="29.3" x2="66.2" y2="270.7"/><line class="cls-9" x1="54.2" y1="29.3" x2="54.2" y2="270.7"/><line class="cls-9" x1="42.1" y1="29.3" x2="42.1" y2="270.7"/><line class="cls-8" x1="24.7" y1="150" x2="276.8" y2="150"/><polygon class="cls-11" points="25.4 152.5 21.1 150 25.4 147.5 25.4 152.5"/><polygon class="cls-11" points="276.1 152.5 280.4 150 276.1 147.5 276.1 152.5"/><line class="cls-8" x1="150.8" y1="23.9" x2="150.8" y2="276.1"/><polygon class="cls-11" points="148.3 24.7 150.8 20.4 153.2 24.7 148.3 24.7"/><polygon class="cls-11" points="148.3 275.3 150.8 279.6 153.2 275.3 148.3 275.3"/></g><g id="Lines"><polygon class="cls-12" points="300 234.3 285.1 226 285.1 231.9 14.8 231.9 14.8 226 -.2 234.3 14.8 242.6 14.8 236.7 285.1 236.7 285.1 242.6 300 234.3"/></g><g id="Oceania"><path class="cls-4" d="M110.8,72.8c-.5-1-.8-1.3-1.6-3.3,1.1-6.8.8-10.3-.7-12.3-1.4.9-10.3-1-10.1,6.4,0,1.3-5.6,4.6-6.7,3.6-1.5-1.1-3.6-.3-4.5,1.5-.9,1.7-.5,4,.6,5.5.3.4.7.8,1.1,1.1h0c-.8,2.8-.3,3.3-3,4.4,0,.2.1.3.2.5.5,1.5.6,3,.5,4.3-.2,1.4-.6,2.7-1.3,3.7,6.1,2,11.5,5.8,15.6,10.6,0,0,0,0,0,0,.7-2.4-.6-4.4-1.5-7.1h0c-.3-.7-.4-1.5-.2-2.3.2-.8.5-1.6,1-2.5h0c.5,0,.9.2,1.4.4,2.5.7,5.8.3,6.1-6.4,0,.3-1.5,1.4-4.4-3.1,1.4.7,3.4,1.1,5,1.1.3-.2.5-1.4.5-2.3.7,0,1.2-.3,1.7-1,.6-.9.7-1.8.2-2.7ZM106,71.9c-.3,0-.5-1-.5-2.1s.3-2.1.5-2.1.5,1,.5,2.1-.2,2.1-.5,2.1ZM108.7,65.6c-.6.4-1.1-.2-2.1-.3-1.4-.1-2.6.5-3.8.1,2.2-1.7,2.3-2.1,4.6-1.8,0,0,.2.1.3.2h0s0,0,0,0c.4.2.8.4,1,.7.3.3.4.8,0,1.1Z"/><path class="cls-3" d="M102.3,120.4c-1.4.5-2.9.7-4.4.8-3.5.2-7,.4-10.6.5-3.3,0-6.8,0-9.5-1.7,0-.3,0-.5,0-.9.3-.4.6-.8.8-1.1.7.5,1.3.9,2,1.4,1.2-1.7,2.2-2.9,3-3.9-4.9-3.4-7.8-4.9-12.5-7.5,1.3-3.3,1.7-5.1,4.4-9.7.3-.6.7-1.3,1.2-2h.3c3.1.6,6.2,1.8,8.8,3.5.7.4,1.4.9,2.2.9,1.1-.1,1.7-1.2,2.1-2.2.5-1.4.9-2.9,1.1-4.4h0c.2,0,.4.1.6.2,2.4,1.3,4.6,3,6.9,4.6.5.3,1.1.7,1.7.4.8,5.3,1.5,10.7,1.8,16.1,0,.1,0,.2,0,.3,0,1.6,0,3.3,0,4.9Z"/><path class="cls-6" d="M88.6,108.5c-2.2,3.3-3.3,4.8-4.9,6.9"/><path class="cls-1" d="M91.3,93.8h0c-.2,1.6-.6,3.1-1.1,4.5-.4,1-1,2.1-2.1,2.2-.8,0-1.5-.4-2.2-.9-2.6-1.7-5.7-2.9-8.8-3.3h-.3c1.3-2.4,3-5,5.1-5.8,0,.4,0,.9.2,1.2.4.5,1.2.5,1.9.4,2.5-.2,5,.5,7.3,1.7Z"/><path class="cls-1" d="M83.7,115.4c-.8,1-1.7,2.3-3,3.9-.7-.5-1.3-.9-2-1.4-3-2.1-6.1-4.2-9.1-6.4.7-1.4,1.2-2.6,1.6-3.6,4.7,2.6,7.5,4.1,12.5,7.5Z"/><path class="cls-4" d="M89.9,158.2c-.3.8-3.5,2.5-4.4,2.2-1.2-.5-2.8-.3-3-1.5-.7-3.7-1.4-5.5-2.1-9.2-1.1-1.9-2.8-4.5-4.5-7.2-2.2-3.5-4.5-7.3-5.6-10-1.8-4.5-3.5-8.6-3.5-12.3s1.3-5.6,2.6-8.2c0-.1.1-.3.2-.4,3,2.1,6.1,4.2,9.1,6.4-.2.3-.5.7-.8,1.1-.6.7-1.2,1.5-1.6,2,.4,1.1.7,2.3,1.1,3.4.4,1.2.7,2.5,1,3.7.3,1,.5,1.9.8,2.9.8,2.9,1.7,5.9,3,9.2.8,2.2,1.9,4.6,3.2,7.2,0,0,.2.2.3.3,4,3.7,6.3,5.7,4.2,10.7Z"/><line class="cls-6" x1="81.9" y1="90.5" x2="81.9" y2="90.5"/><path class="cls-3" d="M104.7,114.5c0,.9-.1,1.8-.2,2.6,0,.1,0,.3,0,.4,0,.5,0,1.1-.1,1.6-.6.6-1.3.9-2.1,1.2,0-1.6,0-3.3,0-4.9,0-.1,0-.2,0-.3-.2-5.4-1-10.7-1.8-16.1,0,0,0,0,0,0,.1,0,.2-.2.3-.3h0s0,0,0,0c.1-.2.2-.5.3-.7.2-.9.5-1.9.6-2.8,1.8,2.2,3.6,11,3.1,19.3Z"/><path class="cls-6" d="M101.6,95.2s0,0,0,0"/><path class="cls-4" d="M77.4,206c-3.3,6.6-5.7,11.6-8.8,17.9v.3c-3-.5-5.7-.6-8.6-1.9,5.2-10.4,6.7-16,7.4-20.3,3.4,1.4,6.7,2.8,10.1,4Z"/><path class="cls-6" d="M67.4,201.3c0,.2,0,.5-.1.7"/><path class="cls-6" d="M71.1,224.8c-.3,0-.6-.2-.9-.2"/><path class="cls-6" d="M77.7,205.4c-.1.2-.2.4-.3.6"/><path class="cls-6" d="M116.3,206.5c0-.3-.2-.6-.2-.8"/><path class="cls-5" d="M101.7,134.5c-.4.1-.8.3-1.1.4-.5.1-1,.2-1.5.1-.5,0-1-.4-1.2-.8,1.1-.4,2.5-1,3.8-1.5,0,.6,0,1.2,0,1.8Z"/><path class="cls-2" d="M127.9,188c.1,4.2.2,8.5.3,12.6h-.1c-4.1,2.5-8,4.4-11.7,5.9-14.5,5.6-27,3.7-38.9-.5-3.4-1.2-6.8-2.5-10.1-4-.7-.3-1.3-.6-2-.8,3.7-12.8,6.8-48.1,10.6-58.8,1.7,2.7,3.4,5.3,4.5,7.2.7,3.7,1.4,5.5,2.1,9.2.2,1.2,1.8,1,3,1.5.9.3,4-1.3,4.4-2.2,2-5-.3-6.9-4.2-10.7l.2-.2c5.5,1.1,11.3.5,16.4-1.6,1.1-.5,2.2-1,3.3-1.7h0c0,0,0,.2,0,.2,3,3.6,6.5,8.1,9.9,12.9,0,0,0,0,0,0,0,0,0,0,0,0,7.6,10.9,14.5,23.4,12.3,30.8Z"/><path class="cls-4" d="M127.9,224.3c-2.5,1.9-2.7,2.5-7.9,1.5-.8-9.3-2.5-15-3.7-19.4,3.8-1.4,7.7-3.4,11.7-5.9h.1c.1,11.1,0,20.9-.3,23.7Z"/><path class="cls-1" d="M104.4,119.1c-.2,3.3-.3,6-.4,8.4h0c-.6-1.2-1.3-2.3-1.9-3.5h0c0-1.1.1-2.2.2-3.3,0-.2,0-.3,0-.5.8-.3,1.5-.7,2.1-1.2Z"/><path class="cls-4" d="M115.6,157.2s0,0,0,0c0,0,0,0,0,0-3.4-4.8-7-9.3-9.9-12.9,0,0,0-.2,0-.2-.6-2.8-1-5.2-1.3-7.5h0c-.1-1.1-.2-2.1-.3-3.1,0-.5,0-1.1,0-1.6,0-1.3,0-2.7,0-4.2,0-2.4.2-5.1.4-8.4,0-.5,0-1,.1-1.6,0-.1,0-.3,0-.4h.2c-.6,5.3,5.8,26.6,9.3,29.9,7.8,6.6,2.6,11,1.6,10.2Z"/><path class="cls-2" d="M78.6,230.3c-.2.8-1,1.4-1.9,1.6-.8.3-3,.4-3.9.4-5.1,0-10.2,0-15-1.3-1.1-.3-1.8-5.8,2.2-8.8,3,1.3,5.6,1.4,8.6,1.9.5,0,1.1.2,1.6.3h0c2.1.5,6,1.3,7.1,1.8,1.2.5,1.7,2.8,1.3,4Z"/><path class="cls-6" d="M70.1,224.5c-.3,0-.6-.1-.8-.2"/><path class="cls-2" d="M139.6,232.1c-3.9.1-19.3.6-20.7.3-1.4-.3.3-5.5,1.1-6.6,5.2,1,5.4.4,7.9-1.5,1.5.3,10,1.6,11,2.5,1,1,1.4,4.1.8,5.2Z"/><path class="cls-2" d="M108.7,65.6c-.6.4-1.1-.2-2.1-.3-1.4-.1-2.6.5-3.8.1,2.2-1.7,2.3-2.1,4.6-1.8-.4,0,0,.1.3.2h0s0,0,0,0c.4.2.8.4,1,.7.3.3.4.8,0,1.1Z"/><path class="cls-6" d="M99.8,92.2c-.1-.2-.3-.4-.4-.6"/><path class="cls-6" d="M108.9,76.5h0"/><path class="cls-6" d="M91.5,81.5c2.2,3.4,5.8,4.1,8.8,5.1"/><path class="cls-5" d="M80.9,124.4c-.5,0-1.1,0-1.6,0,.4,1.2,0,2.6-.8,3.5h0c-.3-1.2-.7-2.4-1-3.6.1-.9.2-1.7.3-2.1,1.2.4,2.4.6,3.6.7,0,.5-.2,1-.3,1.5Z"/><path class="cls-6" d="M92.3,76.5c-1.2-.1-2.5-.5-3.5-1.3"/><path class="cls-6" d="M108,76.4c.3.1.6.1.9.1"/><path class="cls-2" d="M108.4,57.1c-1.4.9-10.3-1-10.1,6.4,0,1.3-5.6,4.6-6.7,3.6-1.5-1.1-3.6-.3-4.5,1.5-.9,1.7-.5,4,.6,5.5.3.4.7.8,1.1,1.1h0c-.8,2.8-.3,3.3-3,4.4,0,.2.1.3.2.5l-1.7-.3c-2.2,0-4.3-1.4-5.5-3.3-1.4-2.1-1.8-4.7-2-7.2-.3-4.1,0-8.2,1.1-12.1.6-2.6,1.7-5.3,3.8-7,2-1.5,4.6-1.8,7.1-2,5.5-.4,11-.3,16.5,0,1.8.2,3.8.5,4.8,2,1.4,2.1.5,5.3-1.7,6.7Z"/><path class="cls-6" d="M85.2,79.8c-.3,0-.6,0-.8,0"/><path class="cls-7" d="M106.6,69.7c0,1.2-.2,2.1-.5,2.1s-.5-1-.5-2.1.3-2.1.5-2.1.5,1,.5,2.1Z"/><path class="cls-5" d="M108.4,78.8l-.6,2c0,.3-1.5,1.4-4.4-3.1,1.4.7,3.4,1.1,5,1.1Z"/><path class="cls-6" d="M91.4,69.3c-.9-.3-2,0-2.6.7s-.7,1.8-.3,2.7"/><path class="cls-6" d="M88.9,70.2c1,.6,1.8,1.4,2.4,2.4"/><path class="cls-6" d="M69.6,111.5s0,0-.1,0"/><path class="cls-6" d="M71.2,107.9c0,0-.1,0-.2,0"/><path class="cls-1" d="M105.6,144h0c-1,.6-2.1,1.2-3.3,1.7-.1-1.3-.2-2.7-.3-4h0c.4,0,.6-.5.8-.9.5-1.4,1-2.8,1.5-4.3.3,2.3.7,4.7,1.3,7.5Z"/><path class="cls-1" d="M102.3,145.7c-5.1,2.2-10.9,2.8-16.4,1.6l-.2.2c-.1,0-.2-.2-.3-.3-1.3-2.6-2.3-5-3.2-7.2.8.3,1.5,1.1,2.3,1.6,1.4.8,3.3.5,4.7-.2,1.5-.7,2.7-1.9,4.1-2.7.9-.5,1.9-1,2.9-.8.7.1,1.3.6,1.9,1,1.1.8,2.2,1.6,3.3,2.5.2.1.4.3.7.3,0,1.3.2,2.7.3,4Z"/><path class="cls-1" d="M101.6,95.2c-.1.9-.3,1.9-.6,2.8,0,.2-.1.5-.3.7.7-2.4-.6-4.4-1.5-7.1h0c-.3-.7-.4-1.5-.2-2.3,1.4.7,2.3,2.3,2.4,3.9,0,.7,0,1.3,0,2Z"/><path class="cls-6" d="M99.3,89.3s0,0,0,0"/><path class="cls-1" d="M100.8,98.7c0,.1-.2.2-.3.3,0,0,0,0,0,0-.5.3-1.2,0-1.7-.4-2.3-1.5-4.5-3.3-6.9-4.6-.2-.1-.4-.2-.6-.3-2.3-1.1-4.8-1.9-7.3-1.7-.7,0-1.5.1-1.9-.4-.2-.3-.2-.8-.2-1.2h0c.1-1.5.3-2.9,1-4.2.7-1.2,2.2-2.2,3.5-1.9-.2,1.4-.6,2.7-1.3,3.7,6.1,2,11.5,5.8,15.6,10.6Z"/><line class="cls-6" x1="86.5" y1="84.4" x2="86.5" y2="84.4"/><path class="cls-3" d="M101.7,129.7c0-1.9.2-3.8.4-5.6h0s0,0,0-.1c-1.5,2.8-3.1,5.6-4.9,8.2-.4.5-.9,1.1-1.5,1-.3,0-.6-.3-.9-.5-2.9-2.5-5.7-4.9-8.6-7.4-2.3,1.9-4.6,3.7-7,5.6.8,2.9,1.7,5.9,3,9.2.8.3,1.5,1.1,2.3,1.6,1.4.8,3.3.5,4.7-.2,1.5-.7,2.7-1.9,4.1-2.7.9-.5,1.9-1,2.9-.8.7.1,1.3.6,1.9,1,1.1.8,2.2,1.6,3.3,2.5.2.1.4.3.7.3-.2-2.4-.3-4.8-.3-7.2-.4.1-.8.3-1.1.4-.5.1-1,.2-1.5.1-.5,0-1-.4-1.2-.8,1.1-.4,2.5-1,3.8-1.5,0-1,0-2,0-3ZM85,129.1c1.2-.5,2.4.7,3.2,1.5.3.3.5.7.3,1.1-.2.3-.5.3-.8.3-1.2,0-2.4,0-3.7-.2-.3,0-.5,0-.8-.2-1.3-.7,1.1-2.2,1.7-2.4ZM88.6,139.3c-.5.6-1.7.8-2.5.4-.6-.2-2.5-1.4-2.1-2.1.5-.7,3.1-.5,3.9-.4.2,0,.5,0,.6.2.2.1.2.3.2.5,0,.4.1.9-.2,1.3ZM81.9,135.6c-.5,0-1-.1-1.1-.5,0-.3.2-.7.5-.9.7-.5,1.6-.5,2.4-.6,1,0,9.2-1.2,8.8,1.3-.3,1.6-9.1.8-10.5.7Z"/><path class="cls-1" d="M97.9,121.1c-3.5.2-7,.4-10.6.5-3.3,0-6.8,0-9.5-1.7h0c0,1.2,0,1.6-.2,2.3,1.2.4,2.4.6,3.6.7,0,.5-.2,1-.3,1.5-.5,0-1.1,0-1.6,0,.4,1.2,0,2.6-.8,3.5h0c.3,1,.5,2,.8,2.9,2.3-1.9,4.6-3.7,7-5.6,2.9,2.5,5.7,4.9,8.6,7.4.3.2.5.5.9.5.6,0,1.1-.5,1.5-1,1.8-2.6,3.4-5.4,4.9-8.2,0,0,0,0,0,.1,0-1.1.1-2.2.2-3.2,0-.2,0-.3,0-.5-1.4.5-2.9.7-4.4.8ZM99,124.7c-.2.4-.5.7-1,.9-.3.1-.6.2-.8.4-.3.3-.3.7-.2,1.1,0,.4.2.8.2,1.2,0,.7-.7,1.3-1.4,1.3-.7,0-1.4-.2-1.9-.7-.5-.5-.9-1.1-1.1-1.7-.3-.6-.5-1.2-.9-1.6-.5-.5-1.9-.2-2.1-.6-.3-.5.5-1.1.9-1.3,1.6-.9,4.8-.5,6.7-.6.5,0,1.2,0,1.5.3.3.3.4.8.2,1.3Z"/><path class="cls-6" d="M102.3,145.8s0,0,0-.1"/><path class="cls-6" d="M100.5,99.1s0,0,0,0"/><path class="cls-6" d="M104.5,119.1s0,0,0,0"/><path class="cls-6" d="M77.8,119.8c0,0-.1,0-.2-.1"/><path class="cls-3" d="M104.3,136.5h0c-.5,1.4-1,2.9-1.5,4.3-.1.4-.4.9-.8.9h0c-.2-2.4-.3-4.8-.3-7.2.8-.3,1.6-.7,2.3-1.1h0c0,1,.1,2.1.3,3.1Z"/><path class="cls-5" d="M84.1,105.1c-.3,1.4-1.1,2.6-1.9,3.7.6.2,1.1.5,1.5,1,.4.5.5,1.2.2,1.7-.3.5-1,.7-1.6.6-.6-.1-1.1-.4-1.6-.8-1.8-1.2-3.6-2.4-5.5-3.6-.6-.4-1.5-.8-1.6-1.6,0-.6,1-1.8.8-2.2.5.7,1.5.7,2.2.3.7-.4,1.2-1.1,1.8-1.7,1.1-1.1,2.9-1.8,4.2-1,1.2.7,1.7,2.3,1.4,3.7Z"/><path class="cls-5" d="M99,117.2c-.6.5-1.4.5-2.1.5-1.6,0-3.3.2-4.9.2-.8,0-1.8,0-2.1-.7-.3-.5,0-1.2.3-1.8.7-1.5,1.6-2.9,2.7-4.1.1-.2.3-.4.5-.5,1.8-2,2.8-.1,4.4,1.4.7.7,1.5,1.4,1.8,2.3.1.3.2.5.2.8,0,.7-.1,1.5-.7,1.9Z"/><path class="cls-5" d="M88.5,131.6c-.2.3-.5.3-.8.3-1.2,0-2.4,0-3.7-.2-.3,0-.5,0-.8-.2-1.3-.7,1.1-2.2,1.7-2.4,1.2-.5,2.4.7,3.2,1.5.3.3.5.7.3,1.1Z"/><path class="cls-5" d="M88.6,139.3c-.5.6-1.7.8-2.5.4-.6-.2-2.5-1.4-2.1-2.1.5-.7,3.1-.5,3.9-.4.2,0,.5,0,.6.2.2.1.2.3.2.5,0,.4.1.9-.2,1.3Z"/><path class="cls-5" d="M92.3,134.9c-.3,1.6-9.1.8-10.5.7-.5,0-1-.1-1.1-.5,0-.3.2-.7.5-.9.7-.5,1.6-.5,2.4-.6,1,0,9.2-1.2,8.8,1.3Z"/><path class="cls-5" d="M94.2,106.8c-.4-.1-.6-.5-.9-.8-.4-.6-.7-1.2-1-1.8-.3-.7-.6-1.5-.3-2.3.4-.8,1.5-.9,2.3-.5.7.4,1.1,1.3,1.2,2.2,0,.7,0,3.5-1.3,3.1Z"/><path class="cls-5" d="M99.6,107.3c-.4,1.1-2,2.2-2.1.4,0-.4,1.3-3.5,1.7-2.9.5.7.7,1.6.4,2.5Z"/><path class="cls-5" d="M91.7,109.4c-.1.1-.3.2-.5.2s-.2,0-.3,0c-.8-.1-1.5-.7-1.9-1.5-.2-.4-.3-.8-.3-1.2,0-.3.2-.8.5-.8.2,0,.3.2.5.3.7.7,1.2,1.6,1.7,2.4h0c.3-.1.4.3.2.5Z"/><path class="cls-5" d="M99,124.7c-.2.4-.5.7-1,.9-.3.1-.6.2-.8.4-.3.3-.3.7-.2,1.1,0,.4.2.8.2,1.2,0,.7-.7,1.3-1.4,1.3-.7,0-1.4-.2-1.9-.7-.5-.5-.9-1.1-1.1-1.7-.3-.6-.5-1.2-.9-1.6-.5-.5-1.9-.2-2.1-.6-.3-.5.5-1.1.9-1.3,1.6-.9,4.8-.5,6.7-.6.5,0,1.2,0,1.5.3.3.3.4.8.2,1.3Z"/><path class="cls-5" d="M104.1,133.4h0c-.7.5-1.5.8-2.3,1.1,0-.6,0-1.2,0-1.8.8-.3,1.7-.7,2.3-.9,0,.5,0,1.1,0,1.6Z"/><path class="cls-3" d="M104,131.7c-.7.3-1.5.6-2.3.9,0-1,0-2,0-3,0-1.9.2-3.8.4-5.6.6,1.2,1.3,2.3,1.9,3.5h0c0,1.5,0,2.9,0,4.2Z"/></g></svg>