<?xml version="1.0" encoding="UTF-8"?><svg xmlns="http://www.w3.org/2000/svg" width="300" height="300" viewBox="0 0 300 300"><defs><style>.cls-1{stroke:#58595b;stroke-width:.2px;}.cls-1,.cls-2,.cls-3,.cls-4,.cls-5,.cls-6,.cls-7,.cls-8,.cls-9,.cls-10,.cls-11{stroke-miterlimit:10;}.cls-1,.cls-12{fill:#fff;}.cls-13,.cls-2,.cls-3,.cls-4,.cls-5,.cls-6,.cls-7,.cls-8,.cls-9,.cls-12,.cls-11{stroke-width:.5px;}.cls-13,.cls-2,.cls-4,.cls-6,.cls-12,.cls-11{stroke:#231f20;}.cls-13,.cls-10,.cls-11{fill:none;}.cls-2{fill:#010101;}.cls-3{fill:#ef3a37;}.cls-3,.cls-5,.cls-7,.cls-8,.cls-9,.cls-10{stroke:#000;}.cls-4{fill:#987447;}.cls-5{fill:#ababab;}.cls-6{fill:#ddbda2;}.cls-7{fill:#ccc;}.cls-8{fill:#cd3543;}.cls-9{fill:#83424f;}.cls-14,.cls-15,.cls-16{stroke-width:0px;}.cls-15{fill:#27b04b;}.cls-16{fill:#dcb1a3;}</style></defs><g id="Grid"><rect class="cls-1" x="29.3" y="29.3" width="241.5" height="241.5"/><line class="cls-1" x1="29.3" y1="258.6" x2="270.7" y2="258.6"/><line class="cls-1" x1="29.3" y1="246.6" x2="270.7" y2="246.6"/><line class="cls-1" x1="29.3" y1="234.5" x2="270.7" y2="234.5"/><line class="cls-1" x1="29.3" y1="222.5" x2="270.7" y2="222.5"/><line class="cls-1" x1="29.3" y1="210.4" x2="270.7" y2="210.4"/><line class="cls-1" x1="29.3" y1="198.3" x2="270.7" y2="198.3"/><line class="cls-1" x1="29.3" y1="186.2" x2="270.7" y2="186.2"/><line class="cls-1" x1="29.3" y1="174.2" x2="270.7" y2="174.2"/><line class="cls-1" x1="29.3" y1="162.1" x2="270.7" y2="162.1"/><line class="cls-1" x1="29.3" y1="150" x2="270.7" y2="150"/><line class="cls-1" x1="29.3" y1="137.9" x2="270.7" y2="137.9"/><line class="cls-1" x1="29.3" y1="125.8" x2="270.7" y2="125.8"/><line class="cls-1" x1="29.3" y1="113.8" x2="270.7" y2="113.8"/><line class="cls-1" x1="29.3" y1="101.7" x2="270.7" y2="101.7"/><line class="cls-1" x1="29.3" y1="89.6" x2="270.7" y2="89.6"/><line class="cls-1" x1="29.3" y1="77.5" x2="270.7" y2="77.5"/><line class="cls-1" x1="29.3" y1="65.5" x2="270.7" y2="65.5"/><line class="cls-1" x1="29.3" y1="53.4" x2="270.7" y2="53.4"/><line class="cls-1" x1="29.3" y1="41.4" x2="270.7" y2="41.4"/><line class="cls-1" x1="258.6" y1="29.3" x2="258.6" y2="270.7"/><line class="cls-1" x1="246.6" y1="29.3" x2="246.6" y2="270.7"/><line class="cls-1" x1="234.5" y1="29.3" x2="234.5" y2="270.7"/><line class="cls-1" x1="222.5" y1="29.3" x2="222.5" y2="270.7"/><line class="cls-1" x1="210.4" y1="29.3" x2="210.4" y2="270.7"/><line class="cls-1" x1="198.3" y1="29.3" x2="198.3" y2="270.7"/><line class="cls-1" x1="186.2" y1="29.3" x2="186.2" y2="270.7"/><line class="cls-1" x1="174.2" y1="29.3" x2="174.2" y2="270.7"/><line class="cls-1" x1="162.1" y1="29.3" x2="162.1" y2="270.7"/><line class="cls-1" x1="150" y1="29.3" x2="150" y2="270.7"/><line class="cls-1" x1="137.9" y1="29.3" x2="137.9" y2="270.7"/><line class="cls-1" x1="125.8" y1="29.3" x2="125.8" y2="270.7"/><line class="cls-1" x1="113.8" y1="29.3" x2="113.8" y2="270.7"/><line class="cls-1" x1="101.7" y1="29.3" x2="101.7" y2="270.7"/><line class="cls-1" x1="89.6" y1="29.3" x2="89.6" y2="270.7"/><line class="cls-1" x1="77.5" y1="29.3" x2="77.5" y2="270.7"/><line class="cls-1" x1="65.5" y1="29.3" x2="65.5" y2="270.7"/><line class="cls-1" x1="53.4" y1="29.3" x2="53.4" y2="270.7"/><line class="cls-1" x1="41.4" y1="29.3" x2="41.4" y2="270.7"/><line class="cls-10" x1="23.9" y1="150" x2="276.1" y2="150"/><polygon class="cls-14" points="24.7 152.5 20.4 150 24.7 147.5 24.7 152.5"/><polygon class="cls-14" points="275.3 152.5 279.6 150 275.3 147.5 275.3 152.5"/><line class="cls-10" x1="150" y1="23.9" x2="150" y2="276.1"/><polygon class="cls-14" points="147.5 24.7 150 20.4 152.5 24.7 147.5 24.7"/><polygon class="cls-14" points="147.5 275.3 150 279.6 152.5 275.3 147.5 275.3"/></g><g id="Lines"><polygon class="cls-15" points="192.2 25.7 197.7 27.9 195.6 10.9 182.3 21.6 187.7 23.9 86.1 274.3 80.7 272.1 82.7 289.1 96 278.4 90.6 276.1 192.2 25.7"/></g><g id="USA"><path class="cls-6" d="M134.6,104.8l5.9,14.2.3,2.7-5.3,1.5-6.7-11.2s-.3-9.3,5.8-7.3Z"/><path class="cls-6" d="M137.7,118.8s-1.1-3.6,2.6-3.8c3.8-.3,7.8-.3,7.8-.3,0,0,2.1-4.4,3.8-3.8,1.7.5.9,1.1.9,1.1l-2.4,2-1.4,5.9-12.1,2.9"/><path class="cls-6" d="M156.6,113.8s-4.7,1.4-5,4.2c-.3,2.8,1.7,5.1,3.8,4,2.1-1.1,3.6-8,1.2-8.2Z"/><path class="cls-3" d="M96.6,178.9s.8-2.7-3.5-2.5c-4.3.3-5.4,5-3.8,16.7,0,0,1.3,2.7,4.1,2.6,2.8,0,6.7-.2,4.1-14l-.9-2.9Z"/><path class="cls-6" d="M126.9,157.2l-.4,13.1s0,5.8-5.3,7.2c-5.3,1.4-23.3,6.5-23.3,6.5,0,0-1.6,3.5-3.3,0-1.7-3.6,1.1-6,1.1-6,0,0,11.8-4.7,13.7-6.1,1.9-1.5,6.2-4.8,10.2-3l-6.7-2.4,6.1-8.9,7.8-.3Z"/><path class="cls-3" d="M103.8,204s3.3,1.4,4.6.7c1.3-.7,3.8-3.3,5.8-2.7,2,.6,2.8,7.3-.7,10.1-3.5,2.8-3.9,2.5-3.9,2.5,0,0-9.9,1.7-13-1.3-3.1-3,1.2-8.9,3.3-8.6,2.1.3,3.8-.6,3.8-.6Z"/><path class="cls-6" d="M105.3,160.2s.3,17.9-1.5,20.4c0,0-3.1,6.8-3.3,8.7-.3,1.9-.9,14.9-1.3,16,0,0,.7,2.7,3.2,2.6,2.6,0,3.8-.3,4.1-1.4.3-1.1-1.3-2-1.3-2,0,0,7.1-18.3,8.7-20.7,1.6-2.5,4.7-23,4.7-23,0,0-11.5-6.3-13.3-.7Z"/><path class="cls-5" d="M120.3,140.9l8-3.4s-.2,19.3,1,20.1c0,0-4.2,6.1-9.2,3.6-5-2.5.2-20.2.2-20.2Z"/><path class="cls-5" d="M104.2,137.6l-2.6,21.5s6.3,6.8,11.4,6.2c5.1-.6,7.6-3.6,7.6-3.6l1.9-21.2s-14.4-5.1-18.3-3Z"/><path class="cls-7" d="M124.4,139.9s-.9,8.7-2.5,8.9l.6-8.3,1.9-.6Z"/><path class="cls-7" d="M112.6,142.6s-2.4,5.6-4,21.3c0,0-1.4.3-1.5-.7-.2-.9,3.6-20.9,3.6-20.9l2,.3Z"/><path class="cls-13" d="M118.5,141.8s-2.7,8.8-8.1,9"/><path class="cls-13" d="M125.2,139.9s.9,6.5,3.1,5.9"/><path class="cls-8" d="M137.3,105.4s-.7-.5-1.1-.3c0,0-.8-10.2-4.3-12.7-3.5-2.5-6.5-3-6.5-3h-9.3s-7.8,3.2-9,4.8c-1.1,1.6-1.1,14.4-1.1,14.4l-4.2,28.2s.9,4.9,4.4,5.7c3.5.8,19.2.7,22.9-2.7,0,0,1.5-.8,1.7-1.8.2-1-1-.2-1.1-.6-.1-.3-.5-31.5,1.5-38.2,0,0-1.5,7.8-1,11,0,0,6.6-1.4,7.3-4.7Z"/><path class="cls-6" d="M116.2,84.6s-.2,4.8-.9,5.3c-.7.6,0,2.2,0,2.2,0,0,3.1,7.3,6.3,6.8,3.2-.5,6.6-2.9,5.1-8,0,0,0-1.5-1.5-3.1-1.6-1.6-9-3.3-9-3.3Z"/><path class="cls-9" d="M115.2,89.9s1.6,8.5,6.9,8.3c5.3-.2,4.7-7.3,4.3-9.1l1,1.1s1.4,9.8-5.5,9.3c-6.8-.5-7.8-9.4-7.8-9.4l1-.2Z"/><path class="cls-6" d="M114.8,114.2l10.2,9,16,7.9s2.6,6.1,7.3,4.6c4.8-1.5,4-6.8,2.2-7.2-1.8-.3-3.4.6-5.3-.4,0,0-.6-.9.5-2.6,0,0-1.6-1.3-2.9,1.2,0,0-6.1-5.1-9.3-6.6-3.2-1.4-3.4-.7-3.4-.7l-10.4-12.2s-7.7,0-5,6.8Z"/><path class="cls-8" d="M115.3,99.8l.3,2,6.5,6.8s-6.7,1.8-6.3,8.4c0,0,.8.2,1-1,0,0-.2,3.2-2.7.7-2.6-2.6-13.4-11.8-7.3-22.2"/><path class="cls-4" d="M140.2,64.8s-5.1,10.4-1.6,24.8c0,0-7.1,1.6-19.4-2.2,0,0-20.5-13.7-4.6-32.2,0,0,17.7-1.9,25.6,9.6Z"/><path class="cls-6" d="M113.7,85.1s5.4,5,9,5,12.7-5.5,12.9-11.7c.2-6,0-5.4,0-5.4,0,0,1.4-5.3,1.1-6.6-.3-1.3-.9-9.2-6.9-9.8-5.9-.7-13.3-5.3-17.1,8.2-3.8,13.5,1.1,20.4.9,20.4Z"/><path class="cls-4" d="M143.4,70.2s-7.3-29.7-20.5-19.8c0,0-7.8-6.9-16.4,4.9-11,14.9-4.5,31.8-2.3,34.7,0,0,9.4.8,11-1.5,0,0-6.6-10-2.6-23.7h7.8c0,.1,2-4.2.5-7.1,0,0,2.7,3.1,2.2,7.4,0,0,9.1-.3,15.8,2.4,1.7.7,3.3,1.6,4.5,2.8Z"/><path class="cls-13" d="M113.6,54s-4.7,4-4,10.6h3.5"/><path class="cls-2" d="M131.1,74.2c-.7,0-1.2-.9-1.2-2.1s.5-2.1,1.2-2.1,1.2.9,1.2,2.1-.5,2.1-1.2,2.1"/><path class="cls-2" d="M118.2,74.4c-.7,0-1.2-.9-1.2-2.1s.5-2.1,1.2-2.1,1.2.9,1.2,2.1-.5,2.1-1.2,2.1"/><path class="cls-13" d="M133.1,68.5s-.9-2-2.3-.5"/><path class="cls-13" d="M119.2,68.2s-1.3-2-2.7.3"/><path class="cls-12" d="M129.9,81.7s-3.3,1.2-11.2-.4c-1.7-.3,5.7,9.8,11.2.4Z"/><path class="cls-16" d="M119,78.1c0,1.3-1.3,2.3-3,2.3s-3-1-3-2.3,1.3-2.3,3-2.3,3,1,3,2.3Z"/><path class="cls-16" d="M134.1,78c0,1.3-1.3,2.3-3,2.3s-3-1-3-2.3,1.3-2.3,3-2.3,3,1,3,2.3Z"/><path class="cls-11" d="M124.9,75.5s.6.9,1.3.9c0,0-.2.9-1.3,1.5"/></g></svg>