<?xml version="1.0" encoding="UTF-8"?><svg xmlns="http://www.w3.org/2000/svg" width="300" height="300" viewBox="0 0 300 300"><defs><style>.cls-1{stroke-width:.2px;}.cls-1,.cls-2,.cls-3,.cls-4,.cls-5,.cls-6,.cls-7,.cls-8,.cls-9,.cls-10,.cls-11,.cls-12,.cls-13{stroke-miterlimit:10;}.cls-1,.cls-10{stroke:#58595b;}.cls-1,.cls-10,.cls-14{fill:#fff;}.cls-15,.cls-2,.cls-3,.cls-4,.cls-5,.cls-6,.cls-7,.cls-8,.cls-9,.cls-14,.cls-12,.cls-13{stroke-width:.5px;}.cls-15,.cls-2,.cls-4,.cls-6,.cls-14,.cls-12{stroke:#231f20;}.cls-15,.cls-11,.cls-12,.cls-13{fill:none;}.cls-2{fill:#010101;}.cls-3{fill:#ef3a37;}.cls-3,.cls-5,.cls-7,.cls-8,.cls-9,.cls-11,.cls-13{stroke:#000;}.cls-4{fill:#987447;}.cls-5{fill:#ababab;}.cls-6{fill:#ddbda2;}.cls-7{fill:#ccc;}.cls-8{fill:#cd3543;}.cls-9{fill:#83424f;}.cls-16,.cls-17,.cls-18{stroke-width:0px;}.cls-17{fill:#27b04b;}.cls-18{fill:#dcb1a3;}</style></defs><g id="Grid"><rect class="cls-1" x="30" y="29.3" width="241.5" height="241.5"/><line class="cls-1" x1="30" y1="258.6" x2="271.5" y2="258.6"/><line class="cls-1" x1="30" y1="246.6" x2="271.5" y2="246.6"/><line class="cls-1" x1="30" y1="234.5" x2="271.5" y2="234.5"/><line class="cls-1" x1="30" y1="222.5" x2="271.5" y2="222.5"/><line class="cls-1" x1="30" y1="210.4" x2="271.5" y2="210.4"/><line class="cls-1" x1="30" y1="198.3" x2="271.5" y2="198.3"/><line class="cls-1" x1="30" y1="186.2" x2="271.5" y2="186.2"/><line class="cls-1" x1="30" y1="174.2" x2="271.5" y2="174.2"/><line class="cls-1" x1="30" y1="162.1" x2="271.5" y2="162.1"/><line class="cls-10" x1="30" y1="150" x2="271.5" y2="150"/><line class="cls-1" x1="30" y1="137.9" x2="271.5" y2="137.9"/><line class="cls-1" x1="30" y1="125.8" x2="271.5" y2="125.8"/><line class="cls-1" x1="30" y1="113.8" x2="271.5" y2="113.8"/><line class="cls-1" x1="30" y1="101.7" x2="271.5" y2="101.7"/><line class="cls-1" x1="30" y1="89.6" x2="271.5" y2="89.6"/><line class="cls-1" x1="30" y1="77.5" x2="271.5" y2="77.5"/><line class="cls-1" x1="30" y1="65.5" x2="271.5" y2="65.5"/><line class="cls-1" x1="30" y1="53.4" x2="271.5" y2="53.4"/><line class="cls-1" x1="30" y1="41.4" x2="271.5" y2="41.4"/><line class="cls-1" x1="259.4" y1="29.3" x2="259.4" y2="270.7"/><line class="cls-1" x1="247.3" y1="29.3" x2="247.3" y2="270.7"/><line class="cls-1" x1="235.3" y1="29.3" x2="235.3" y2="270.7"/><line class="cls-1" x1="223.2" y1="29.3" x2="223.2" y2="270.7"/><line class="cls-1" x1="211.1" y1="29.3" x2="211.1" y2="270.7"/><line class="cls-1" x1="199" y1="29.3" x2="199" y2="270.7"/><line class="cls-1" x1="186.9" y1="29.3" x2="186.9" y2="270.7"/><line class="cls-1" x1="174.9" y1="29.3" x2="174.9" y2="270.7"/><line class="cls-1" x1="162.8" y1="29.3" x2="162.8" y2="270.7"/><line class="cls-10" x1="150.8" y1="29.3" x2="150.8" y2="270.7"/><line class="cls-1" x1="138.7" y1="29.3" x2="138.7" y2="270.7"/><line class="cls-1" x1="126.6" y1="29.3" x2="126.6" y2="270.7"/><line class="cls-1" x1="114.6" y1="29.3" x2="114.6" y2="270.7"/><line class="cls-1" x1="102.5" y1="29.3" x2="102.5" y2="270.7"/><line class="cls-1" x1="90.4" y1="29.3" x2="90.4" y2="270.7"/><line class="cls-1" x1="78.3" y1="29.3" x2="78.3" y2="270.7"/><line class="cls-1" x1="66.2" y1="29.3" x2="66.2" y2="270.7"/><line class="cls-1" x1="54.2" y1="29.3" x2="54.2" y2="270.7"/><line class="cls-1" x1="42.1" y1="29.3" x2="42.1" y2="270.7"/><line class="cls-11" x1="24.7" y1="150" x2="276.8" y2="150"/><polygon class="cls-16" points="25.4 152.5 21.1 150 25.4 147.5 25.4 152.5"/><polygon class="cls-16" points="276.1 152.5 280.4 150 276.1 147.5 276.1 152.5"/><line class="cls-11" x1="150.8" y1="23.9" x2="150.8" y2="276.1"/><polygon class="cls-16" points="148.3 24.7 150.8 20.4 153.2 24.7 148.3 24.7"/><polygon class="cls-16" points="148.3 275.3 150.8 279.6 153.2 275.3 148.3 275.3"/></g><g id="Lines"><polygon class="cls-17" points="300 234.3 285.1 226 285.1 231.9 14.8 231.9 14.8 226 -.2 234.3 14.8 242.6 14.8 236.7 285.1 236.7 285.1 242.6 300 234.3"/></g><g id="USA"><path class="cls-3" d="M70.5,226.1s3.4-1.5,5.4,3.2c0,0,5.2-1,6.3.5,1.1,1.5,4.1,6.4-4.9,8.4-9,2-14.9-3.2-15.1-8-.2-4.8,3.8-6.1,5.4-4.8,1.5,1.3,2.9.7,2.9.7Z"/><path class="cls-3" d="M120.4,224.9s-4.1,1.6-3,6.7c1.1,5,7.1,2.8,9.8,3,2.7.2,13.1,1.8,11.3-6.3-1.8-8.1-13.8-4.5-13.8-4.5l-4.3,1.2Z"/><path class="cls-6" d="M102.1,188s1.4,4.2,7.7,13.1c0,0,0,4.1.8,6.7.9,2.6,9,16.6,9.4,18.2,0,0,1.7,2.4,5,1.7,3.3-.7,3.4-4.5,0-4.6l-4.9-21.5-6.1-15.4s-8.3-4.9-11.9,1.8Z"/><path class="cls-6" d="M78.2,186s-1.5,2.6-2.2,14.8c0,0-2.4,1.6-3.3,3.9-.9,2.3-5,20.5-6.1,21.1,0,0,.8,3.5,3.6,3.9,2.8.4,2.6.3,3.2-.5.5-.9,0-3.1-1-3.5l12-19s5.6-18.3,5.8-18.9c.2-.7-4.3-9.3-11.9-1.8Z"/><path class="cls-5" d="M80.4,162.6l-4.7,21.6s-.5,4.2,6.4,6c6.9,1.8,11.2-.4,11.2-.4l3.9-14.8-1.1,5.9v8.7c0,0,2.2,1.6,10.6,1,8.4-.6,8.9-4,8.9-4l-7.2-24.7-27.9.8Z"/><polygon class="cls-7" points="84.5 165.1 79.2 189.3 81 189.9 86.2 166.2 84.5 165.1"/><path class="cls-7" d="M98.3,165.7s.4,6.4-.7,8.9c0,0,3.4-1.5,3.2-8.4-.3-6.8-2.5-.5-2.5-.5Z"/><path class="cls-13" d="M93.6,166.5s-2.7,7.5-8.7,6.7"/><path class="cls-13" d="M104.1,165.2s2.3,5.8,6.8,4.6"/><line class="cls-13" x1="99.8" y1="190.1" x2="97.3" y2="175.3"/><path class="cls-8" d="M81.8,115.6s-7.2,5.5-8,6.4c-.8.9,7.8,10.7,7.8,10.7,0,0-1.1,29.4-2.5,30.6,0,0,4.3,4.8,17.4,3.3,13.1-1.5,13.9-4,13.9-4,0,0-4.4-33.1-3-38.6l.3.2s-1.2,5.6,0,8c0,0,5.4-7.8,5-11.3-.3-3.5-7.9-11.1-14.5-9.1-6.6,2-16.5,3.8-16.5,3.8Z"/><path class="cls-6" d="M84.9,108s1.1,6-1.1,7.2l.5,2.3,8,3.2,5.3-.2,1.7-4.6s-2.8-3.3-3.1-4.4c-.3-1.1-11.3-3.5-11.3-3.5Z"/><path class="cls-9" d="M83.2,114.8s4.9,6.1,11.1,5.2c6.3-.9,3.3-6.8,2.8-7.6-.5-.8,1.5-.1,1.5-.1,0,0,5.7,10-4.3,9.6-10-.5-12.5-6.3-12.5-6.3l1.4-.8Z"/><path class="cls-6" d="M85,130.1s4,7.3,8.4,11.3c0,0,3.4,3.7,5,6.6,0,0,3.7-.6,5.7.6,2,1.2,6.4,4.8,7.7,4.9,1.3.2,5.7-.9,6.7-.4.9.4,1.7,1.8,2.4,2.2.7.4,3.5,1.4,2.2,4.8-1.3,3.4-8.7,3.9-11.3-2.2l-16.8-3.4s-9.9-6.8-16.1-17.5c0,0-2-7.8,6.3-6.8Z"/><path class="cls-8" d="M74.2,122.2s5.1-5.5,13.3,8.9c0,0-3.7,7.5-10.2,8.1,0,0-10.7-10.8-3.2-17Z"/><path class="cls-4" d="M110.7,88.1s-5.1,10.4-1.6,24.8c0,0-7.1,1.6-19.4-2.2,0,0-20.5-13.7-4.6-32.2,0,0,17.7-1.9,25.6,9.6Z"/><path class="cls-6" d="M84.3,108.4s5.4,5,9,5,12.7-5.5,12.9-11.7c.2-6,0-5.4,0-5.4,0,0,1.4-5.3,1.1-6.6-.3-1.3-.9-9.2-6.9-9.8-5.9-.7-13.3-5.3-17.1,8.2-3.8,13.5,1.1,20.4.9,20.4Z"/><path class="cls-4" d="M114,93.5s-7.3-29.7-20.5-19.8c0,0-7.8-6.9-16.4,4.9-11,14.9-4.5,31.8-2.3,34.7,0,0,9.4.8,11-1.5,0,0-6.6-10-2.6-23.7h7.8c0,.1,2-4.2.5-7.1,0,0,2.7,3.1,2.2,7.4,0,0,9.1-.3,15.8,2.4,1.7.7,3.3,1.6,4.5,2.8Z"/><path class="cls-15" d="M84.1,77.3s-4.7,4-4,10.6h3.5"/><path class="cls-2" d="M101.6,97.5c-.7,0-1.2-.9-1.2-2.1s.5-2.1,1.2-2.1,1.2.9,1.2,2.1-.5,2.1-1.2,2.1"/><path class="cls-2" d="M88.8,97.7c-.7,0-1.2-.9-1.2-2.1s.5-2.1,1.2-2.1,1.2.9,1.2,2.1-.5,2.1-1.2,2.1"/><path class="cls-15" d="M103.7,91.8s-.9-2-2.3-.5"/><path class="cls-15" d="M89.8,91.5s-1.3-2-2.7.3"/><path class="cls-14" d="M100.4,105s-1.5,1.1-12.3-.7c-1.7-.3,6.7,13.5,12.3.7Z"/><path class="cls-18" d="M89.6,101.4c0,1.3-1.3,2.3-3,2.3s-3-1-3-2.3,1.3-2.3,3-2.3,3,1,3,2.3Z"/><path class="cls-18" d="M104.7,101.3c0,1.3-1.3,2.3-3,2.3s-3-1-3-2.3,1.3-2.3,3-2.3,3,1,3,2.3Z"/><path class="cls-12" d="M95.5,98.8s.6.9,1.3.9c0,0-.2.9-1.3,1.5"/></g></svg>