<?xml version="1.0" encoding="UTF-8"?><svg xmlns="http://www.w3.org/2000/svg" width="300" height="300" viewBox="0 0 300 300"><defs><style>.cls-1{stroke:#58595b;stroke-width:.2px;}.cls-1,.cls-2,.cls-3,.cls-4,.cls-5,.cls-6,.cls-7,.cls-8,.cls-9,.cls-10,.cls-11{stroke-miterlimit:10;}.cls-1,.cls-12{fill:#fff;}.cls-13,.cls-2,.cls-3,.cls-4,.cls-5,.cls-6,.cls-7,.cls-8,.cls-9,.cls-12,.cls-11{stroke-width:.5px;}.cls-13,.cls-2,.cls-4,.cls-6,.cls-12,.cls-11{stroke:#231f20;}.cls-13,.cls-10,.cls-11{fill:none;}.cls-2{fill:#010101;}.cls-3{fill:#ef3a37;}.cls-3,.cls-5,.cls-7,.cls-8,.cls-9,.cls-10{stroke:#000;}.cls-4{fill:#987447;}.cls-5{fill:#ababab;}.cls-6{fill:#ddbda2;}.cls-7{fill:#ccc;}.cls-8{fill:#cd3543;}.cls-9{fill:#83424f;}.cls-14,.cls-15,.cls-16{stroke-width:0px;}.cls-15{fill:#27b04b;}.cls-16{fill:#dcb1a3;}</style></defs><g id="Grid"><rect class="cls-1" x="29.3" y="29.3" width="241.5" height="241.5"/><line class="cls-1" x1="29.3" y1="258.6" x2="270.7" y2="258.6"/><line class="cls-1" x1="29.3" y1="246.6" x2="270.7" y2="246.6"/><line class="cls-1" x1="29.3" y1="234.5" x2="270.7" y2="234.5"/><line class="cls-1" x1="29.3" y1="222.5" x2="270.7" y2="222.5"/><line class="cls-1" x1="29.3" y1="210.4" x2="270.7" y2="210.4"/><line class="cls-1" x1="29.3" y1="198.3" x2="270.7" y2="198.3"/><line class="cls-1" x1="29.3" y1="186.2" x2="270.7" y2="186.2"/><line class="cls-1" x1="29.3" y1="174.2" x2="270.7" y2="174.2"/><line class="cls-1" x1="29.3" y1="162.1" x2="270.7" y2="162.1"/><line class="cls-1" x1="29.3" y1="150" x2="270.7" y2="150"/><line class="cls-1" x1="29.3" y1="137.9" x2="270.7" y2="137.9"/><line class="cls-1" x1="29.3" y1="125.8" x2="270.7" y2="125.8"/><line class="cls-1" x1="29.3" y1="113.8" x2="270.7" y2="113.8"/><line class="cls-1" x1="29.3" y1="101.7" x2="270.7" y2="101.7"/><line class="cls-1" x1="29.3" y1="89.6" x2="270.7" y2="89.6"/><line class="cls-1" x1="29.3" y1="77.5" x2="270.7" y2="77.5"/><line class="cls-1" x1="29.3" y1="65.5" x2="270.7" y2="65.5"/><line class="cls-1" x1="29.3" y1="53.4" x2="270.7" y2="53.4"/><line class="cls-1" x1="29.3" y1="41.4" x2="270.7" y2="41.4"/><line class="cls-1" x1="258.6" y1="29.3" x2="258.6" y2="270.7"/><line class="cls-1" x1="246.6" y1="29.3" x2="246.6" y2="270.7"/><line class="cls-1" x1="234.5" y1="29.3" x2="234.5" y2="270.7"/><line class="cls-1" x1="222.5" y1="29.3" x2="222.5" y2="270.7"/><line class="cls-1" x1="210.4" y1="29.3" x2="210.4" y2="270.7"/><line class="cls-1" x1="198.3" y1="29.3" x2="198.3" y2="270.7"/><line class="cls-1" x1="186.2" y1="29.3" x2="186.2" y2="270.7"/><line class="cls-1" x1="174.2" y1="29.3" x2="174.2" y2="270.7"/><line class="cls-1" x1="162.1" y1="29.3" x2="162.1" y2="270.7"/><line class="cls-1" x1="150" y1="29.3" x2="150" y2="270.7"/><line class="cls-1" x1="137.9" y1="29.3" x2="137.9" y2="270.7"/><line class="cls-1" x1="125.8" y1="29.3" x2="125.8" y2="270.7"/><line class="cls-1" x1="113.8" y1="29.3" x2="113.8" y2="270.7"/><line class="cls-1" x1="101.7" y1="29.3" x2="101.7" y2="270.7"/><line class="cls-1" x1="89.6" y1="29.3" x2="89.6" y2="270.7"/><line class="cls-1" x1="77.5" y1="29.3" x2="77.5" y2="270.7"/><line class="cls-1" x1="65.5" y1="29.3" x2="65.5" y2="270.7"/><line class="cls-1" x1="53.4" y1="29.3" x2="53.4" y2="270.7"/><line class="cls-1" x1="41.4" y1="29.3" x2="41.4" y2="270.7"/><line class="cls-10" x1="23.9" y1="150" x2="276.1" y2="150"/><polygon class="cls-14" points="24.7 152.5 20.4 150 24.7 147.5 24.7 152.5"/><polygon class="cls-14" points="275.3 152.5 279.6 150 275.3 147.5 275.3 152.5"/><line class="cls-10" x1="150" y1="23.9" x2="150" y2="276.1"/><polygon class="cls-14" points="147.5 24.7 150 20.4 152.5 24.7 147.5 24.7"/><polygon class="cls-14" points="147.5 275.3 150 279.6 152.5 275.3 147.5 275.3"/></g><g id="Lines"><polygon class="cls-15" points="259.5 87.6 265.8 71.7 249 74.8 252.7 79.3 44.2 251.3 40.5 246.8 34.2 262.7 51 259.6 47.3 255 255.8 83 259.5 87.6"/></g><g id="USA"><path class="cls-6" d="M84.7,108.7l-2.7,16.8s-2.8,2.7-5.3,15.2c0,0-6.1,5.3-6.6,6.1-.4.9,3.1-.6,3.1-.6,0,0-5.2,5.2-.9,7.3,4.4,2.1,6.8-7.4,7.4-7,.6.4.7,2.6,1.7,2.9,1,.3-.6-5.9-.4-6.7.2-.9,6.8-15.1,6.8-15.1l4-16.7s-3.2-5.8-7.2-2.2Z"/><path class="cls-6" d="M123.2,100.2l4.8,8.4s10.1,10.2,10.7,11.4c0,0,7,1.2,10.5,6.2,0,0,1.3,2.3-4.4-.3,0,0-4.4,1.1-5.9.2-1.5-.9-2.2-2.7-2.2-2.7l-13.1-9.1-8.6-12.7s3.8-4.9,8.2-1.4Z"/><path class="cls-3" d="M126.4,169.7c-.8,3.3,0,4.3,1.1,7,1.1,2.8,12.5-1.5,12.5-1.5,0,0,5.4-3.5,6-5.5.6-2-.8-4.2-3.5-5.5-2.7-1.4-10,3.2-10,3.2l-6.1,2.3Z"/><path class="cls-3" d="M83.8,202.3s4,2.1,5.1,2.1,3.8-2.1,5.3-.9c1.5,1.3,2.2,5.5,1.3,6.6-.9,1.1-5.8,7.8-18.8,0,0,0-1.4-.7-1.6-2.4-.3-1.7,1-5.4,1-5.4,0,0-.3-2,7.7,0Z"/><path class="cls-6" d="M124.6,135.2l-3.9,13.7s9.4-.2,11.6-1.9c2.2-1.7,2.9-10.7,2.9-10.7l-10.6-1.1Z"/><path class="cls-6" d="M126.1,135.3l12,.3s7.3,2,2.7,9.9l-7.3,21.6s1.7.3,1.1,1.3c-.6.9-7.4,3.2-8.2,1.4,0,0,1.7-5.4,1.8-7.6,0-2.2-.8-17.4,4.8-18.3"/><path class="cls-6" d="M102.3,161.4l-5.2,17.8s-1.2,3.5-2.4,4l-9.4,19.2s1.3.9,1,1.6c-.3.8-8.4,1.7-8.4-1.6s2.5-4.6,2.7-6.6c.3-2,1.4-14.7,6.4-17.8l2.1-19.5s9.8-1.4,13.1,3Z"/><path class="cls-5" d="M90.9,136.6l-5.7,19.1s1.2,10.9,18,7.3c0,0,1.5-9,4.2-10.9,2.6-1.9,14.5-2.4,14.5-2.4,0,0-1.1-14.3,7.9-14.8,0,0-11.3-.9-13.1-2.2l-25.9,3.9Z"/><path class="cls-7" d="M95.8,138.1s-4.6,20.1-6.6,23.6l2,1.1s3.7-11.1,6.3-24.3l-1.8-.3Z"/><path class="cls-7" d="M108.6,135.4c0,.3,0,8.4,0,8.4,0,0,3-1.4,2-8.2l-2-.2Z"/><path class="cls-11" d="M104.1,138.5s-2.5,7.3-7.9,7"/><path class="cls-11" d="M108.6,143.8s-.6,7.2-1.2,8.3"/><path class="cls-11" d="M122.2,143.5s-5.1,2-6.1,2-6.1,1.8-6.3,2.4"/><path class="cls-6" d="M96.7,82.7s.2,5.7-2.7,6.4c-3,.7,9.6,6.8,9.6,6.8l6.1-4.3,1.8-4.8-14.8-5.2v1.1Z"/><path class="cls-8" d="M95.5,101.1l-3,11.6s-6.4,1.8-10-3.4l3.2-13.4s4.8-5.5,8.2-6.8l6.8,4.8,6.8-.5,2.5-3.6.7-4.1s6.6-1.1,13.9,15.2l-7.5,3.2.2-3.9-.9,7.7s-.7,16.2,4.3,24.3c0,0-14.8,13.2-31.4,5,0,0,3.9-16.7,3.1-24.3l3-11.8Z"/><path class="cls-9" d="M95.7,88.2l-2.3,1.5s6.5,7.1,11.5,5.7c5-1.3,6.8-3.3,6.3-8.7l-1.5-1.1s1.6,8.5-4.8,7.6c-6.4-.9-8.7-3.4-9.2-5Z"/><path class="cls-4" d="M121.8,63.5s-5.1,10.4-1.6,24.8c0,0-7.1,1.6-19.4-2.2,0,0-20.5-13.7-4.6-32.2,0,0,17.7-1.9,25.6,9.6Z"/><path class="cls-6" d="M95.4,83.9s5.4,5,9,5,12.7-5.5,12.9-11.7c.2-6,0-5.4,0-5.4,0,0,1.4-5.3,1.1-6.6-.3-1.3-.9-9.2-6.9-9.8-5.9-.7-13.3-5.3-17.1,8.2-3.8,13.5,1.1,20.4.9,20.4Z"/><path class="cls-4" d="M125.1,68.9s-7.3-29.7-20.5-19.8c0,0-7.8-6.9-16.4,4.9-11,14.9-4.5,31.8-2.3,34.7,0,0,9.4.8,11-1.5,0,0-6.6-10-2.6-23.7h7.8c0,.1,2-4.2.5-7.1,0,0,2.7,3.1,2.2,7.4,0,0,9.1-.3,15.8,2.4,1.7.7,3.3,1.6,4.5,2.8Z"/><path class="cls-13" d="M95.2,52.7s-4.7,4-4,10.6h3.5"/><path class="cls-2" d="M112.7,72.9c-.7,0-1.2-.9-1.2-2.1s.5-2.1,1.2-2.1,1.2.9,1.2,2.1-.5,2.1-1.2,2.1"/><path class="cls-2" d="M99.9,73.1c-.7,0-1.2-.9-1.2-2.1s.5-2.1,1.2-2.1,1.2.9,1.2,2.1-.5,2.1-1.2,2.1"/><path class="cls-13" d="M114.8,67.3s-.9-2-2.3-.5"/><path class="cls-13" d="M100.9,67s-1.3-2-2.7.3"/><path class="cls-12" d="M112.3,79.9s-1.4,1.2-12.3-.1c-1.7-.2,3.9,10.8,12.3.1Z"/><path class="cls-16" d="M100.7,76.9c0,1.3-1.3,2.3-3,2.3s-3-1-3-2.3,1.4-2.3,3-2.3,3,1,3,2.3Z"/><path class="cls-16" d="M115.8,76.7c0,1.3-1.3,2.3-3,2.3s-3-1-3-2.3,1.3-2.3,3-2.3,3,1,3,2.3Z"/><path class="cls-11" d="M106.6,74.2s.6.9,1.3.9c0,0-.2.9-1.3,1.5"/></g></svg>