<?xml version="1.0" encoding="UTF-8"?><svg xmlns="http://www.w3.org/2000/svg" width="300" height="300" viewBox="0 0 300 300"><defs><style>.cls-1{stroke:#58595b;stroke-width:.2px;}.cls-1,.cls-2,.cls-3,.cls-4,.cls-5,.cls-6,.cls-7,.cls-8,.cls-9,.cls-10,.cls-11{stroke-miterlimit:10;}.cls-1,.cls-12{fill:#fff;}.cls-13,.cls-2,.cls-3,.cls-4,.cls-5,.cls-6,.cls-7,.cls-8,.cls-9,.cls-12,.cls-11{stroke-width:.5px;}.cls-13,.cls-2,.cls-4,.cls-6,.cls-12,.cls-11{stroke:#231f20;}.cls-13,.cls-10,.cls-11{fill:none;}.cls-2{fill:#010101;}.cls-3{fill:#ef3a37;}.cls-3,.cls-5,.cls-7,.cls-8,.cls-9,.cls-10{stroke:#000;}.cls-4{fill:#987447;}.cls-5{fill:#ababab;}.cls-6{fill:#ddbda2;}.cls-7{fill:#ccc;}.cls-8{fill:#cd3543;}.cls-9{fill:#83424f;}.cls-14,.cls-15,.cls-16{stroke-width:0px;}.cls-15{fill:#27b04b;}.cls-16{fill:#dcb1a3;}</style></defs><g id="Grid"><rect class="cls-1" x="29.3" y="29.3" width="241.5" height="241.5"/><line class="cls-1" x1="29.3" y1="258.6" x2="270.7" y2="258.6"/><line class="cls-1" x1="29.3" y1="246.6" x2="270.7" y2="246.6"/><line class="cls-1" x1="29.3" y1="234.5" x2="270.7" y2="234.5"/><line class="cls-1" x1="29.3" y1="222.5" x2="270.7" y2="222.5"/><line class="cls-1" x1="29.3" y1="210.4" x2="270.7" y2="210.4"/><line class="cls-1" x1="29.3" y1="198.3" x2="270.7" y2="198.3"/><line class="cls-1" x1="29.3" y1="186.2" x2="270.7" y2="186.2"/><line class="cls-1" x1="29.3" y1="174.2" x2="270.7" y2="174.2"/><line class="cls-1" x1="29.3" y1="162.1" x2="270.7" y2="162.1"/><line class="cls-1" x1="29.3" y1="150" x2="270.7" y2="150"/><line class="cls-1" x1="29.3" y1="137.9" x2="270.7" y2="137.9"/><line class="cls-1" x1="29.3" y1="125.8" x2="270.7" y2="125.8"/><line class="cls-1" x1="29.3" y1="113.8" x2="270.7" y2="113.8"/><line class="cls-1" x1="29.3" y1="101.7" x2="270.7" y2="101.7"/><line class="cls-1" x1="29.3" y1="89.6" x2="270.7" y2="89.6"/><line class="cls-1" x1="29.3" y1="77.5" x2="270.7" y2="77.5"/><line class="cls-1" x1="29.3" y1="65.5" x2="270.7" y2="65.5"/><line class="cls-1" x1="29.3" y1="53.4" x2="270.7" y2="53.4"/><line class="cls-1" x1="29.3" y1="41.4" x2="270.7" y2="41.4"/><line class="cls-1" x1="258.6" y1="29.3" x2="258.6" y2="270.7"/><line class="cls-1" x1="246.6" y1="29.3" x2="246.6" y2="270.7"/><line class="cls-1" x1="234.5" y1="29.3" x2="234.5" y2="270.7"/><line class="cls-1" x1="222.5" y1="29.3" x2="222.5" y2="270.7"/><line class="cls-1" x1="210.4" y1="29.3" x2="210.4" y2="270.7"/><line class="cls-1" x1="198.3" y1="29.3" x2="198.3" y2="270.7"/><line class="cls-1" x1="186.2" y1="29.3" x2="186.2" y2="270.7"/><line class="cls-1" x1="174.2" y1="29.3" x2="174.2" y2="270.7"/><line class="cls-1" x1="162.1" y1="29.3" x2="162.1" y2="270.7"/><line class="cls-1" x1="150" y1="29.3" x2="150" y2="270.7"/><line class="cls-1" x1="137.9" y1="29.3" x2="137.9" y2="270.7"/><line class="cls-1" x1="125.8" y1="29.3" x2="125.8" y2="270.7"/><line class="cls-1" x1="113.8" y1="29.3" x2="113.8" y2="270.7"/><line class="cls-1" x1="101.7" y1="29.3" x2="101.7" y2="270.7"/><line class="cls-1" x1="89.6" y1="29.3" x2="89.6" y2="270.7"/><line class="cls-1" x1="77.5" y1="29.3" x2="77.5" y2="270.7"/><line class="cls-1" x1="65.5" y1="29.3" x2="65.5" y2="270.7"/><line class="cls-1" x1="53.4" y1="29.3" x2="53.4" y2="270.7"/><line class="cls-1" x1="41.4" y1="29.3" x2="41.4" y2="270.7"/><line class="cls-10" x1="23.9" y1="150" x2="276.1" y2="150"/><polygon class="cls-14" points="24.7 152.5 20.4 150 24.7 147.5 24.7 152.5"/><polygon class="cls-14" points="275.3 152.5 279.6 150 275.3 147.5 275.3 152.5"/><line class="cls-10" x1="150" y1="23.9" x2="150" y2="276.1"/><polygon class="cls-14" points="147.5 24.7 150 20.4 152.5 24.7 147.5 24.7"/><polygon class="cls-14" points="147.5 275.3 150 279.6 152.5 275.3 147.5 275.3"/></g><g id="Lines"><polygon class="cls-15" points="300.1 54.9 285.1 46.6 285.1 52.5 14.9 52.5 14.9 46.6 0 54.9 14.9 63.2 14.9 57.4 285.1 57.4 285.1 63.2 300.1 54.9"/></g><g id="USA"><path class="cls-3" d="M126.2,217.1c6.1,0,5,11.2,4.1,14.3-.9,3.2,0,10.2-6.6,10-6.6-.2-5.7-7.5-5.5-12.5.2-5,3-5.7,3-5.7l5-6.1Z"/><path class="cls-3" d="M143,216.7c-6.1,0-5,11.1-4.1,14.3.9,3.2,0,10.2,6.6,10,6.6-.2,5.7-7.5,5.5-12.5-.2-5-3-5.7-3-5.7l-5-6.1Z"/><path class="cls-6" d="M117.4,184.1s1.1,6.8,1.6,10.7c.5,3.9-.9,7.5-.5,10.7s2.3,8.4,1.6,17.1c0,0,.5,4.8,3.9,5,3.4.2,4.1-3,4.1-8.4s2-11.6,1.8-16.6c-.2-5-1.4-7.1-1.4-7.1,0,0,2.7-7.5,2.3-13,0,0-11.6-3.9-13.4,1.6Z"/><path class="cls-6" d="M151.3,184.1s-1.1,6.8-1.6,10.7c-.5,3.9.9,7.5.5,10.7s-2.3,8.4-1.6,17.1c0,0-.5,4.8-3.9,5-3.4.2-4.1-3-4.1-8.4s-2-11.6-1.8-16.6c.2-5,1.4-7.1,1.4-7.1,0,0-2.7-7.5-2.3-13,0,0,11.6-3.9,13.4,1.6Z"/><path class="cls-5" d="M149.9,153.4l3.9,29.8s-6.1,8.9-19.1,1.4l-1.4-17.7-1.1,18.7s-8.9,7.5-19.6-1.4l5.2-32.5s22.1-10.9,32.1,1.8Z"/><path class="cls-7" d="M132.8,153.2l.2,14.8s4.1-1.1,3.2-14.1l-3.4-.7Z"/><polygon class="cls-7" points="118.3 155.2 112.8 185 114.2 185.9 119.9 155.5 118.3 155.2"/><path class="cls-11" d="M125.3,155.7s0,10-7.3,10"/><path class="cls-11" d="M143.3,155s1.4,9.8,7.7,8.6"/><path class="cls-6" d="M116.2,56.9s.5,7.3.5,10.5-1.1,20.9-1.1,20.9l11.4-12.5s-2.3-11.2-2.5-18.9h-8.1Z"/><path class="cls-6" d="M147.2,72.2l-.2-16.4,10.2,2.3s-1.1,3.9-1.1,6.6.9,17.3.9,17.3c0,0,.7,10.7-1.6,17.3-2.3,6.6-11.6,1.1-11.6,1.1l3.4-28.2Z"/><path class="cls-8" d="M117.8,95.8l-6.8,1.1s6.6,16.2,6.6,19.1,3.4,30.5-3.9,39.4c0,0,20.5,6.6,37.5,0,0,0-2.7-32.3-.9-39.4,0,0,6.6-17.1,8.6-18.4,0,0-8-2.5-9.6-.5-1.6,2-5.7,8.4-5.7,8.4l-25.9-9.8Z"/><path class="cls-9" d="M126.7,100.2s-5,8,6.1,15.5c0,0,10.9,3,11.1-10.9.2-13.9-17.3-4.6-17.3-4.6Z"/><path class="cls-6" d="M127.4,105.9s3,8.6,8.2,8.2c5.2-.5,8-8.9,7.5-10-.5-1.1-14.1-3.9-14.1-3.9l-1.6,5.7Z"/><path class="cls-4" d="M155,83.3s-5.1,10.4-1.6,24.8c0,0-7.1,1.6-19.4-2.2,0,0-20.5-13.7-4.6-32.2,0,0,17.7-1.9,25.6,9.6Z"/><path class="cls-6" d="M128.6,103.6s5.4,5,9,5,12.7-5.5,12.9-11.7c.2-6,0-5.4,0-5.4,0,0,1.4-5.3,1.1-6.6-.3-1.3-.9-9.2-6.9-9.8-5.9-.7-13.3-5.3-17.1,8.2-3.8,13.5,1.1,20.4.9,20.4Z"/><path class="cls-4" d="M158.3,88.7s-7.3-29.7-20.5-19.8c0,0-7.8-6.9-16.4,4.9-11,14.9-4.5,31.8-2.3,34.7,0,0,9.4.8,11-1.5,0,0-6.6-10-2.6-23.7h7.8c0,.1,2-4.2.5-7.1,0,0,2.7,3.1,2.2,7.4,0,0,9.1-.3,15.8,2.4,1.7.7,3.3,1.6,4.5,2.8Z"/><path class="cls-13" d="M128.4,72.5s-4.7,4-4,10.6h3.5"/><path class="cls-2" d="M145.9,92.7c-.7,0-1.2-.9-1.2-2.1s.5-2.1,1.2-2.1,1.2.9,1.2,2.1-.5,2.1-1.2,2.1"/><path class="cls-2" d="M133.1,92.9c-.7,0-1.2-.9-1.2-2.1s.5-2.1,1.2-2.1,1.2.9,1.2,2.1-.5,2.1-1.2,2.1"/><path class="cls-13" d="M148,87.1s-.9-2-2.3-.5"/><path class="cls-13" d="M134.1,86.8s-1.3-2-2.7.3"/><path class="cls-12" d="M144.7,100.2s-6.7,1.9-12.3-.7c-1.5-.7,5,10.8,12.3.7Z"/><path class="cls-16" d="M133.9,96.7c0,1.3-1.3,2.3-3,2.3s-3-1-3-2.3,1.3-2.3,3-2.3,3,1,3,2.3Z"/><path class="cls-16" d="M149,96.5c0,1.3-1.3,2.3-3,2.3s-3-1-3-2.3,1.3-2.3,3-2.3,3,1,3,2.3Z"/><path class="cls-11" d="M139.8,94s.6.9,1.3.9c0,0-.2.9-1.3,1.5"/><path class="cls-6" d="M131.5,50.6s2.5-3,3.2,2.3c.7,5.2-3,.9-3.2-2.3Z"/><path class="cls-6" d="M116.2,52.8s3.6-6.6,14.1-5c0,0,2.5.9,2.5,5s-8.2,8.9-11.6,1.8c0,0-3-3-5-1.8Z"/><path class="cls-6" d="M144.7,49.4s6.6-5.7,14.8-2c0,0,5.2,4.1,0,9.1-5.2,5-12.7-.7-13.4-5,0,0-1.4,4.3-2.5,3.9-1.1-.5-1.4-5.5,1.1-5.9Z"/></g></svg>