<?xml version="1.0" encoding="UTF-8"?><svg xmlns="http://www.w3.org/2000/svg" width="300" height="300" viewBox="0 0 300 300"><defs><style>.cls-1{fill:#755f50;}.cls-1,.cls-2,.cls-3,.cls-4,.cls-5,.cls-6,.cls-7,.cls-8,.cls-9,.cls-10,.cls-11{stroke-linecap:round;stroke-linejoin:round;stroke-width:.5px;}.cls-1,.cls-2,.cls-3,.cls-4,.cls-5,.cls-6,.cls-7,.cls-8,.cls-9,.cls-10,.cls-11,.cls-12{stroke:#000;}.cls-2{fill:#3d3733;}.cls-3{fill:#2e2e3a;}.cls-4{fill:#616880;}.cls-13{stroke-width:.2px;}.cls-13,.cls-8,.cls-14{fill:#fff;}.cls-13,.cls-14{stroke:#58595b;}.cls-13,.cls-14,.cls-12{stroke-miterlimit:10;}.cls-5{fill:#98979c;}.cls-6{fill:#8a7c52;}.cls-7{fill:#a7936b;}.cls-9{fill:#e3deda;}.cls-10,.cls-12{fill:none;}.cls-15,.cls-16{stroke-width:0px;}.cls-16{fill:#27b04b;}</style></defs><g id="Grid"><rect class="cls-13" x="30" y="29.3" width="241.5" height="241.5"/><line class="cls-13" x1="30" y1="258.6" x2="271.5" y2="258.6"/><line class="cls-13" x1="30" y1="246.6" x2="271.5" y2="246.6"/><line class="cls-13" x1="30" y1="234.5" x2="271.5" y2="234.5"/><line class="cls-13" x1="30" y1="222.5" x2="271.5" y2="222.5"/><line class="cls-13" x1="30" y1="210.4" x2="271.5" y2="210.4"/><line class="cls-13" x1="30" y1="198.3" x2="271.5" y2="198.3"/><line class="cls-13" x1="30" y1="186.2" x2="271.5" y2="186.2"/><line class="cls-13" x1="30" y1="174.2" x2="271.5" y2="174.2"/><line class="cls-13" x1="30" y1="162.1" x2="271.5" y2="162.1"/><line class="cls-14" x1="30" y1="150" x2="271.5" y2="150"/><line class="cls-13" x1="30" y1="137.9" x2="271.5" y2="137.9"/><line class="cls-13" x1="30" y1="125.8" x2="271.5" y2="125.8"/><line class="cls-13" x1="30" y1="113.8" x2="271.5" y2="113.8"/><line class="cls-13" x1="30" y1="101.7" x2="271.5" y2="101.7"/><line class="cls-13" x1="30" y1="89.6" x2="271.5" y2="89.6"/><line class="cls-13" x1="30" y1="77.5" x2="271.5" y2="77.5"/><line class="cls-13" x1="30" y1="65.5" x2="271.5" y2="65.5"/><line class="cls-13" x1="30" y1="53.4" x2="271.5" y2="53.4"/><line class="cls-13" x1="30" y1="41.4" x2="271.5" y2="41.4"/><line class="cls-13" x1="259.4" y1="29.3" x2="259.4" y2="270.7"/><line class="cls-13" x1="247.3" y1="29.3" x2="247.3" y2="270.7"/><line class="cls-13" x1="235.3" y1="29.3" x2="235.3" y2="270.7"/><line class="cls-13" x1="223.2" y1="29.3" x2="223.2" y2="270.7"/><line class="cls-13" x1="211.1" y1="29.3" x2="211.1" y2="270.7"/><line class="cls-13" x1="199" y1="29.3" x2="199" y2="270.7"/><line class="cls-13" x1="186.9" y1="29.3" x2="186.9" y2="270.7"/><line class="cls-13" x1="174.9" y1="29.3" x2="174.9" y2="270.7"/><line class="cls-13" x1="162.8" y1="29.3" x2="162.8" y2="270.7"/><line class="cls-14" x1="150.8" y1="29.3" x2="150.8" y2="270.7"/><line class="cls-13" x1="138.7" y1="29.3" x2="138.7" y2="270.7"/><line class="cls-13" x1="126.6" y1="29.3" x2="126.6" y2="270.7"/><line class="cls-13" x1="114.6" y1="29.3" x2="114.6" y2="270.7"/><line class="cls-13" x1="102.5" y1="29.3" x2="102.5" y2="270.7"/><line class="cls-13" x1="90.4" y1="29.3" x2="90.4" y2="270.7"/><line class="cls-13" x1="78.3" y1="29.3" x2="78.3" y2="270.7"/><line class="cls-13" x1="66.2" y1="29.3" x2="66.2" y2="270.7"/><line class="cls-13" x1="54.2" y1="29.3" x2="54.2" y2="270.7"/><line class="cls-13" x1="42.1" y1="29.3" x2="42.1" y2="270.7"/><line class="cls-12" x1="24.7" y1="150" x2="276.8" y2="150"/><polygon class="cls-15" points="25.4 152.5 21.1 150 25.4 147.5 25.4 152.5"/><polygon class="cls-15" points="276.1 152.5 280.4 150 276.1 147.5 276.1 152.5"/><line class="cls-12" x1="150.8" y1="23.9" x2="150.8" y2="276.1"/><polygon class="cls-15" points="148.3 24.7 150.8 20.4 153.2 24.7 148.3 24.7"/><polygon class="cls-15" points="148.3 275.3 150.8 279.6 153.2 275.3 148.3 275.3"/></g><g id="Lines"><polygon class="cls-16" points="300 234.3 285.1 226 285.1 231.9 14.8 231.9 14.8 226 -.2 234.3 14.8 242.6 14.8 236.7 285.1 236.7 285.1 242.6 300 234.3"/></g><g id="Latin"><path class="cls-9" d="M96.6,117.5c0,1.8-.4,3.6-.9,5.4-2.3,9.1-4.6,18.2-7.4,27.1,0,0,0,0,0,0-1.1-.2-2.2-.5-3.2-.9-3.3-6.3-5.3-10-7.3-15.4.3-2.5.4-1.9.8-2.5-2.6-2.7-5.8-4.9-9.2-6.5h-.3c.3-.8.7-1.5,1-2.1,3-5.8,2.5-6.9,6-12.5,1-1.6,2.6-4.2,4.7-6h0c3.8.3,7.6,1.4,10.6,3.7,3,2.3,5.2,5.9,5.2,9.6Z"/><path class="cls-9" d="M105.5,136.5c-.3,4.9-1,9.2-2.1,13.4h0c0,.1,0,.2,0,.3-3.4.6-7,.8-10.6.5,0,0,0,0,0-.1h0c1.5-3.4,6.1-23.9,6.9-26.4,1.3-4.5-.4-11.9-3.3-15.6,1.3,1.1,2.8,2.5,3.8,2.1.7-.3,1.3-1.2,1.6-2.2,0,.1,1.3,1.2,2,1.5,1.3,3.6,1.8,8,1.9,10,.2,6.4.2,11.8,0,16.5Z"/><path class="cls-1" d="M111.7,89c-.4-.9-.7-1.5-1.4-3.2,1-2.2,1.4-4.7,1.3-6.8-.1-1.9-.7-3.4-1.8-4.3-1.4.5-3.8.4-5.1.7-2.2.5-6.5,4.1-6.8,6,0,.7-.8,1.7-1.3,2.2-.5.5-2.2.5-2.4-.1-1.3-1-3.4-.3-4.2,1.2-.8,1.5-.5,3.5.5,4.9.3.4.6.7,1,1h0c-.8,2.5-1.9,2.8-4.5,3.7.4,1.2.4,3.3.1,4.6h0c.7.2,1.3.7,2.2,1.3,1.9,1.2,2.8,1.6,5.4,2.5,1.9.6,3.9,1,5.6,1.9h0s-.3-1.6-.4-2.8c0-.5,0-.9,0-1.1h0c.6.1,1.3.4,2.2.6,3.7.9,5.3.9,6.6-4.8,0,.2-1.5,1.2-4-2.8,1.3.6,3.1,1.1,4.6,1.1.3-.2.5-1.2.5-1.9.8.1,1.7,0,2.1-.5.6-.8.2-2.6-.2-3.5ZM107.2,88.7c-.3,0-.5-.9-.5-1.9,0-1,.3-1.9.6-1.9.3,0,.5.9.5,1.9,0,1-.3,1.9-.5,1.9ZM109.8,83.2c-.6.4-1.7.4-2.7.2-1.2-.1-1.7-.2-2.8-.5,2.1-1.4,2.2-1.8,4.3-1.4,0,0,.2,0,.3.1,0,0,0,0,0,0,.2.1.4.2.5.3.2.1.3.2.4.3.3.3.3.7,0,.9Z"/><path class="cls-10" d="M79.9,132.9c3.8-5.3,7.2-10.9,9.6-17.3"/><path class="cls-4" d="M85.5,154.8c-1.3.9-3.3,1.8-4.8,2.2-1.1.2-1.9.2-2.2-.2-.9-1.4-1.8-3.1-2.8-4.9-1.8-3.6-3.7-7.6-4.9-10.5-1.8-4.1-3.4-7.8-3.4-11.1s.7-3.7,1.5-5.5h.3c3.4,1.7,6.6,3.9,9.2,6.6-.4.6-.4,0-.8,2.5,2,5.3,4,9.1,7.3,15.4.6,1.1,1.2,2.3,1.9,3.6.3.5-.4,1.3-1.5,2.1Z"/><path class="cls-10" d="M77.7,133.8c-.3-.9-.7-1.9-1-2.9"/><path class="cls-9" d="M90.7,174.7c-.6-.1-1.2-.3-1.8-.4-4.4-.9-9.1-.6-13.4.6-1.4.4-2.8,1-4.2,1.6,1.7-11.5.6-14.8,4.3-24.7h0c.9,1.8,1.9,3.5,2.8,4.9.3.5,1.1.5,2.2.2.7,3.4,1.4,5,2,8.4.2,1.1,1.7.9,2.9,1.3.9.3,3.9-1.2,4.2-2,2-4.6-.4-6.4-4.4-9.9,1.1-.8,1.8-1.5,1.5-2.1-.7-1.3-1.3-2.5-1.9-3.6,1.1.3,2.2.6,3.2.9.4,1.5,1.1,2.9,1.6,4.3,2.5,6.3,2.9,14,.8,20.4Z"/><path class="cls-10" d="M110.5,189.3s0,0,0,0"/><path class="cls-10" d="M103.4,149.9s0,0,0,0"/><path class="cls-3" d="M94,175.4h0c-1.7,6.1-1.8,9.3-6.6,20.9-6.1,11.2-9,19.4-13,29.4h-1c-1.2-.3-2.5-.7-3.4-.9-3.6-.9-8.5-1.9-11.7-3.1-.2,0-.5-.2-.7-.3,3-7.8,7-19.1,15.4-33.3,2.2-3.8,1.7-8.9,2.6-13.2,4.3-1.3,9-1.5,13.4-.6.6.1,1.2.3,1.8.4,1.1.2,2.2.5,3.3.7Z"/><path class="cls-10" d="M71.6,225.2c-.5-.1-1.1-.3-1.6-.4"/><line class="cls-10" x1="75.5" y1="175" x2="75.5" y2="175"/><path class="cls-3" d="M129,224.3c-4.6,1.1-8.6,1.8-13.2,2.3-.5,0-1,.1-1.5.2-2.5-12-3-25.9-4-37.4h.2q-6.8-10.3-10.2-14.7c5.3-2.2,9.7-7.7,15.5-7.6,3.5,5.9,6.7,12,10,18.2,1.8,13.2,5.4,36.2,3.3,39Z"/><path class="cls-4" d="M113.3,154.5s0,0-.1.1c-1,1-2.4,2.1-3.7,2.9h0c-1.9-2.6-3.9-5.1-6-7.6h0c1.1-4.2,1.8-8.5,2.1-13.5h0c1,3.2,0,5.5,7.7,16.5.3.5.3,1.1,0,1.5Z"/><path class="cls-1" d="M114,164h-.1c-1.4-2.1-2.9-4.3-4.4-6.4h0c1.2-.8,2.7-1.9,3.7-2.9,0,0,0,0,.1-.1,7.5,10.2,1.4,10.5.7,9.5Z"/><path class="cls-10" d="M113.3,154.5h0"/><path class="cls-1" d="M89.9,164.8c-.3.8-3.4,2.3-4.2,2-1.2-.4-2.7-.3-2.9-1.3-.7-3.4-1.4-5-2-8.4,1.5-.4,3.5-1.2,4.8-2.2,4,3.5,6.4,5.3,4.4,9.9Z"/><line class="cls-10" x1="80.7" y1="157" x2="80.7" y2="157"/><path class="cls-5" d="M77.6,230.4c-.2.7-1,1.2-1.8,1.5s-1.7.2-2.6.3c-4.9,0-9.9,0-14.5-1.2-1.1-.3-2.3-.7-2.7-1.6-.3-.5-.2-1.2,0-1.7.4-1.9,1.1-3.8,2.1-5.5v-.4c3.4,1.2,8.2,2.2,11.9,3.1.8.2,2.1.6,3.4,1,1.2.4,2.4.8,3,1,1.2.5,1.6,2.6,1.3,3.7Z"/><path class="cls-5" d="M138,231.9c-3.8,0-18.7.5-20,.3-1.4-.2-2.9-4.5-2.2-5.5h0c4.6-.5,8.6-1.2,13.2-2.3v.2c1.5.2,7.3,1.8,8.3,2.7,1,.9,1.4,3.7.7,4.8Z"/><path class="cls-2" d="M104.7,75.4c-2.2.5-6.5,4.1-6.8,6,0,.7-.8,1.7-1.3,2.2-.5.5-2.2.5-2.4-.1-1.3-1-3.4-.3-4.2,1.2-.8,1.5-.5,3.5.5,4.9.3.4.6.7,1,1h0c-.8,2.5-1.9,2.8-4.5,3.7-.8.5-4.7-.9-5.4-2.1-.5-.9-.9-1.6-1.1-2.2h0c-.5-1.3-.6-2.3-.7-4.7h0c3.8-2.2,8.4-4.2,12.5-5.8,3.3-1.3,7.8-2.8,12.4-4Z"/><path class="cls-10" d="M109.8,74.7h0"/><path class="cls-10" d="M109.8,92.9s0,0,0,0"/><path class="cls-10" d="M99.9,100.7c-2.7-.9-2.4-1.1-5.7-3.2"/><line class="cls-10" x1="78.5" y1="131.3" x2="78.5" y2="131.3"/><path class="cls-10" d="M94.7,91.8c-1.1-.1-2.3-.5-3.2-1.2"/><path class="cls-2" d="M109.8,83.2c-.6.4-1.7.4-2.7.2-1.2-.1-1.7-.2-2.8-.5,2.1-1.4,2.2-1.8,4.3-1.4-.4,0,0,0,.3.1.4.2.7.4,1,.7.3.3.3.7,0,.9Z"/><path class="cls-10" d="M108.9,81.7s0,0,0,0"/><path class="cls-10" d="M109.8,93c-.3,0-.6-.1-.8-.2"/><path class="cls-11" d="M107.7,86.8c0,1-.3,1.9-.5,1.9s-.5-.9-.5-1.9c0-1,.3-1.9.6-1.9.3,0,.5.9.5,1.9Z"/><path class="cls-8" d="M109.2,94.9l-.6,1.7c0,.2-1.5,1.2-4-2.8,1.3.6,3.1,1.1,4.6,1.1Z"/><path class="cls-10" d="M94,85.4c-.8-.3-1.8,0-2.4.6s-.7,1.6-.3,2.3"/><path class="cls-10" d="M91.6,86.2c.9.5,1.6,1.3,2.1,2.2"/><path class="cls-9" d="M115.7,167.1c-5.8-.2-10.1,5.4-15.5,7.6-1,.4-2.1.7-3.2.8-.5,0-1,0-1.6,0,.5-4.1.8-8.9.6-13-.2-4.1-1.1-8.3-3.3-11.8,3.6.3,7.2.1,10.6-.5,0,0,0-.2,0-.3,2.2,2.4,4.2,5,6,7.6,1.5,2.1,3,4.3,4.4,6.5.6,1,1.3,2.1,1.9,3.1Z"/><path class="cls-10" d="M115.9,167.1h-.1"/><path class="cls-10" d="M79.9,132.9c-.4-.5-.9-1-1.4-1.5"/><path class="cls-2" d="M101.8,108.5s0,0,0,0c-.3,1-.9,2-1.6,2.2-1,.4-2.5-1-3.8-2.1-.6-.5-1.1-.9-1.5-1.1-3.3-1.6-3.7-2.1-7.4-3.5-1.1-.4-3.1-.7-3.8-1.5-.2-.2-.3-.4-.3-.7,0-1,.8-1.9,1.7-2.4.9-.5,1.6-.6,2.2-.4.7.2,1.3.6,2.2,1.2,1.9,1.2,2.8,1.6,5.4,2.5,1.9.6,3.9,1,5.6,1.9.5.2,1,.5,1.4.9.4.7.4,1.9,0,3Z"/><path class="cls-2" d="M103.7,110c-.6-.3-1.9-1.3-2-1.5t0,0c.3-1.1.4-2.3,0-3-.4-.3-.9-.6-1.4-.9h0s-.3-1.6-.4-2.8h0c1.8,1.5,3.8,2.9,4.4,4.1.6,1.2,0,4.4-.6,4Z"/><path class="cls-8" d="M99.6,124.2c-.7,2.5-5.3,23-6.9,26.3h0c0,.1,0,.2,0,.2-1.5-.1-2.9-.3-4.4-.7,2.8-9,5.1-18,7.4-27.1.5-1.8.9-3.6.9-5.4,0-3.8-2.2-7.3-5.2-9.6-3-2.3-6.8-3.3-10.6-3.6h0c.8-.8,1.6-1.3,2.6-1.7h.3c.7.7,2.7,1,3.8,1.4,3.7,1.3,4.2,1.9,7.4,3.5.4.2,1,.6,1.5,1.1,2.9,3.7,4.6,11.1,3.3,15.6Z"/><path class="cls-10" d="M88.3,150s0,0,0,0"/><path class="cls-8" d="M95.4,175.6c-.5,0-1,0-1.5-.2-1.1-.2-2.2-.4-3.3-.7,2.1-6.4,1.7-14.1-.8-20.4-.6-1.4-1.2-2.8-1.6-4.3,0,0,0,0,0,0,1.5.3,2.9.5,4.4.7,2.2,3.5,3.1,7.7,3.3,11.8.2,4.2,0,8.9-.6,13Z"/><path class="cls-7" d="M110.6,71.6c-6.4,1.1-14.2,3.1-19.2,5-4.1,1.6-8.7,3.6-12.5,5.7-1.4-2.7-3.4-7.7.6-11.9,4.5-4.7,7.8-9.4,10.6-9.8,13.6-1.9,19.2,9,20.5,10.9Z"/><path class="cls-10" d="M110.8,71.9c0,0,0-.1-.2-.2"/><path class="cls-10" d="M78.9,82.4s0,0,0-.1"/><path class="cls-6" d="M118.4,75.9c-1.2.9-5.1,2.4-6.8,3.1h0c-.1-1.9-.7-3.4-1.8-4.3.2,0,.7-.7.8-.8,2.2-.5,4.3-.8,6.1-1,1.4-.1,2.6-.4,3.5,0,.1,0,.2.1.3.2.4.6-1,1.9-2.1,2.7Z"/><path class="cls-6" d="M80.5,89.9c-2.6.7-6.8,1.8-7.5,1.4,0,0,0-.5-.2-1.1.2-.4.7-.9,1.2-1.3,1.5-1.3,3.5-2.6,5.8-3.8h0c0,2.6.1,3.6.7,4.8Z"/><path class="cls-10" d="M73,91.3c-.5-.2-.4-.6-.2-1.1"/><path class="cls-2" d="M110.6,74c-.1,0-.7.7-.8.8-1.4.5-3.8.4-5.1.7,2-.5,4-1,5.9-1.4Z"/><path class="cls-7" d="M120.5,73.1h0s-.1,0-.3-.1c-.8-.4-2-.2-3.5,0-1.8.2-3.9.5-6.1,1-1.9.4-3.9.9-5.9,1.4-4.5,1.2-9,2.7-12.4,4-4.1,1.6-8.7,3.6-12.5,5.7-2.2,1.2-4.2,2.5-5.8,3.8-.5.4-1,.9-1.2,1.3-.2-1.3-.4-3.5.3-4,1.5-1.3,3.5-2.6,5.8-3.8,3.8-2.1,8.4-4.1,12.5-5.7,5-1.9,12.8-3.9,19.2-5,2-.3,3.8-.6,5.4-.8,1.4-.1,3.7.9,4.6,2.3Z"/><path class="cls-10" d="M120.5,73.2s0,0,0,0c0,0,0,.1.1.2"/></g></svg>