<?xml version="1.0" encoding="UTF-8"?><svg xmlns="http://www.w3.org/2000/svg" width="300" height="300" viewBox="0 0 300 300"><defs><style>.cls-1{fill:#572669;}.cls-1,.cls-2,.cls-3,.cls-4,.cls-5,.cls-6,.cls-7,.cls-8,.cls-9,.cls-10{stroke-linecap:round;stroke-linejoin:round;stroke-width:.5px;}.cls-1,.cls-2,.cls-3,.cls-4,.cls-5,.cls-6,.cls-7,.cls-8,.cls-9,.cls-10,.cls-11{stroke:#000;}.cls-2{fill:#282725;}.cls-12{stroke:#58595b;stroke-width:.2px;}.cls-12,.cls-8{fill:#fff;}.cls-12,.cls-11{stroke-miterlimit:10;}.cls-3{fill:#374f75;}.cls-4{fill:#bd957c;}.cls-5{fill:#c3afcf;}.cls-6{fill:#a8a7a9;}.cls-7{fill:#64554c;}.cls-9,.cls-11{fill:none;}.cls-13,.cls-14{stroke-width:0px;}.cls-14{fill:#27b04b;}</style></defs><g id="Grid"><rect class="cls-12" x="29.3" y="29.3" width="241.5" height="241.5"/><line class="cls-12" x1="29.3" y1="258.6" x2="270.7" y2="258.6"/><line class="cls-12" x1="29.3" y1="246.6" x2="270.7" y2="246.6"/><line class="cls-12" x1="29.3" y1="234.5" x2="270.7" y2="234.5"/><line class="cls-12" x1="29.3" y1="222.5" x2="270.7" y2="222.5"/><line class="cls-12" x1="29.3" y1="210.4" x2="270.7" y2="210.4"/><line class="cls-12" x1="29.3" y1="198.3" x2="270.7" y2="198.3"/><line class="cls-12" x1="29.3" y1="186.2" x2="270.7" y2="186.2"/><line class="cls-12" x1="29.3" y1="174.2" x2="270.7" y2="174.2"/><line class="cls-12" x1="29.3" y1="162.1" x2="270.7" y2="162.1"/><line class="cls-12" x1="29.3" y1="150" x2="270.7" y2="150"/><line class="cls-12" x1="29.3" y1="137.9" x2="270.7" y2="137.9"/><line class="cls-12" x1="29.3" y1="125.8" x2="270.7" y2="125.8"/><line class="cls-12" x1="29.3" y1="113.8" x2="270.7" y2="113.8"/><line class="cls-12" x1="29.3" y1="101.7" x2="270.7" y2="101.7"/><line class="cls-12" x1="29.3" y1="89.6" x2="270.7" y2="89.6"/><line class="cls-12" x1="29.3" y1="77.5" x2="270.7" y2="77.5"/><line class="cls-12" x1="29.3" y1="65.5" x2="270.7" y2="65.5"/><line class="cls-12" x1="29.3" y1="53.4" x2="270.7" y2="53.4"/><line class="cls-12" x1="29.3" y1="41.4" x2="270.7" y2="41.4"/><line class="cls-12" x1="258.6" y1="29.3" x2="258.6" y2="270.7"/><line class="cls-12" x1="246.6" y1="29.3" x2="246.6" y2="270.7"/><line class="cls-12" x1="234.5" y1="29.3" x2="234.5" y2="270.7"/><line class="cls-12" x1="222.5" y1="29.3" x2="222.5" y2="270.7"/><line class="cls-12" x1="210.4" y1="29.3" x2="210.4" y2="270.7"/><line class="cls-12" x1="198.3" y1="29.3" x2="198.3" y2="270.7"/><line class="cls-12" x1="186.2" y1="29.3" x2="186.2" y2="270.7"/><line class="cls-12" x1="174.2" y1="29.3" x2="174.2" y2="270.7"/><line class="cls-12" x1="162.1" y1="29.3" x2="162.1" y2="270.7"/><line class="cls-12" x1="150" y1="29.3" x2="150" y2="270.7"/><line class="cls-12" x1="137.9" y1="29.3" x2="137.9" y2="270.7"/><line class="cls-12" x1="125.8" y1="29.3" x2="125.8" y2="270.7"/><line class="cls-12" x1="113.8" y1="29.3" x2="113.8" y2="270.7"/><line class="cls-12" x1="101.7" y1="29.3" x2="101.7" y2="270.7"/><line class="cls-12" x1="89.6" y1="29.3" x2="89.6" y2="270.7"/><line class="cls-12" x1="77.5" y1="29.3" x2="77.5" y2="270.7"/><line class="cls-12" x1="65.5" y1="29.3" x2="65.5" y2="270.7"/><line class="cls-12" x1="53.4" y1="29.3" x2="53.4" y2="270.7"/><line class="cls-12" x1="41.4" y1="29.3" x2="41.4" y2="270.7"/><line class="cls-11" x1="23.9" y1="150" x2="276.1" y2="150"/><polygon class="cls-13" points="24.7 152.5 20.4 150 24.7 147.5 24.7 152.5"/><polygon class="cls-13" points="275.3 152.5 279.6 150 275.3 147.5 275.3 152.5"/><line class="cls-11" x1="150" y1="23.9" x2="150" y2="276.1"/><polygon class="cls-13" points="147.5 24.7 150 20.4 152.5 24.7 147.5 24.7"/><polygon class="cls-13" points="147.5 275.3 150 279.6 152.5 275.3 147.5 275.3"/></g><g id="Lines"><polygon class="cls-14" points="192.2 25.7 197.7 27.9 195.6 10.9 182.3 21.6 187.7 23.9 86.1 274.3 80.7 272.1 82.7 289.1 96 278.4 90.6 276.1 192.2 25.7"/></g><g id="Latin"><path class="cls-4" d="M141.7,149.4c-.3,1.8-.8,3.7-2,5.2s-3.5,1-5.4.3c-2.1-.7-7.4-7.4-7.4-7.4,1.1-1.7,1.7-2.6,4.8-4.2,1.8.9,1.4-.5,3.5-.6,2.1,0,4.4-.7,5.8.7,1.4,1.5,1.3,3.8.9,5.8Z"/><path class="cls-4" d="M175.4,66.4c-.3,2-4.6,2.2-6.7,2.9-.3-1.4-1-2.6-2.8-3.5,1.4-1.7-.3-2.9,1.9-4.8,1.2-1.1,5.5-1.1,6.8.5.8,1,1,3.6.8,4.8Z"/><path class="cls-1" d="M117.9,107.3c-.7,2.1-1.4,4.1-2,5.8-.7,2-1.3,3.7-1.6,4.7h-.3c-4-1-8.2-.5-11.8,1.4h-.2c.2-2.8,1.1-7.5,2.1-12.6,0-.5.2-.9.3-1.3,4.1,2.1,8.9,2.9,13.5,2.1h0Z"/><path class="cls-6" d="M117.6,123.7l-.5.2c-4.6,1.8-7.7,4-8.1,7.8-3.1-3.4-5.5-6.7-6.6-9.2-.2-.5-.3-.9-.4-1.3,0-.4,0-1.1,0-2.1h.2c3.6-1.8,7.9-2.3,11.8-1.4h.3c0,.4-.1.7,0,.9.1.7,1.5,2.7,3.4,5.2Z"/><path class="cls-1" d="M132.9,102.9c-.2,3.5-.9,6.9-1.8,10.2-4.9,2-10.2,1.7-15.2,0,.6-1.7,1.3-3.7,2-5.8.3-1.1.7-2.1,1-3.2,4,.6,8.2.2,12.1-1,.3.2.7.3,1.1.2.3,0,.6-.2.8-.3Z"/><path class="cls-1" d="M114.1,137.1c-4.8-1.5-9.4-2.9-14.3-4.4h-.1c.4-1.6.9-3.2,1.8-4.7,0-.3.9-5.1.9-5.4h0s.1,0,.1,0c1.1,2.5,3.5,5.8,6.6,9.2,1.6,1.8,3.3,3.6,5,5.4Z"/><path class="cls-3" d="M125.6,168.2c-.4,1.4-.8,2.8-1.2,4.1-3.8,11.6-10,18.7-15.3,29.8-4.8-.2-6.4,0-9.9-3,2.6-11.9,10-19.5,11.8-31.6-1.7-7.3-5.2-11.2-8.5-18-2.5-5.3-4-11.3-2.8-16.8h.1c4.8,1.5,9.4,2.9,14.3,4.4h0c1.2,1.2,2.4,2.4,3.5,3.6.4.4.8.8,1.3,1.3,1.7,5.3,3.5,11.7,4.9,17.5.7,3.1,1.4,6.1,1.8,8.7Z"/><path class="cls-9" d="M101.5,127.9s0,0,0,0"/><path class="cls-9" d="M102.3,122.6s0,0,0,0"/><path class="cls-7" d="M110,214.4c0,1.8-1.2,2.1-3,2.8-1.4.5-3,0-4.3-.5-1.2-.5-5.1-4.5-5.2-6.2-.5-4.7.5-6.8,1.6-11.4,3.5,3,5.2,2.8,9.9,3-.9,1.5,1,10.6,1,12.3Z"/><path class="cls-1" d="M127.6,124.6c-1,3.1-1.9,6.1-2.4,9.2-.3-.4-.6-.8-.9-1.2-1.8-2.4-3.6-4.8-5.2-6.9,3.2.4,5.5,0,8.5-1Z"/><path class="cls-3" d="M147.7,123.2c-1.2,5.3-5.7,15-6.9,20.3-1.4-1.4-3.7-.8-5.8-.7-2.1,0-1.6,1.4-3.5.6-1-2.1-3.6-5.8-6.4-9.6.6-3,1.4-6.1,2.4-9.2.8-2.4,1.6-4.9,2.4-7.4,0,0,0,0,0,0,1.9-2.8,9.9-7.9,13.4-7.8,1.7,0,4.3,3,5.3,4.3.8,1,0,6.6-1,9.5Z"/><path class="cls-6" d="M137.9,90.5h0c-1.1.5-2.2.9-3.4,1.3.2-.7.3-1.4,0-2.3-.4-2-.4-5-.1-6.3.3-1.5.2-2.5-.2-3.2h.1c1.6,1.1,2.9,2.8,3.5,4.7.6,1.9.6,4,0,5.9Z"/><path class="cls-1" d="M147,86.3h0c-.6.3-1,.6-1.4.9-1.7,1.1-4.4,2.2-7.6,3.4h0c.7-2,.7-4.1,0-6-.6-1.9-1.9-3.6-3.5-4.7h-.1s0,0,0-.1c6.1-2.4,5.9-1.3,7.7-2.3,1.8.7,3.2,1.9,4.1,3.6.9,1.7,1.4,3.3.9,5.2Z"/><path class="cls-6" d="M154.2,82c-2.9,1.8-5.5,3.2-7.2,4.3.5-1.9,0-3.5-.9-5.2-.9-1.8-2.3-3-4.1-3.6,2-1.1,4.7-2.4,7.6-3.9,3.8,1.5,4.8,8.5,4.6,8.4Z"/><path class="cls-1" d="M162.1,76.9h0c-2.6,1.8-5.4,3.6-7.9,5.1.2,0-.8-7-4.6-8.4,2.7-1.3,5.7-2.7,8.6-4.2v.2c2.7,1.4,4.2,4.5,3.8,7.4Z"/><path class="cls-6" d="M168.9,71.8c-2,1.7-4.3,3.4-6.8,5.1h0c.4-2.9-1.2-6-3.7-7.4v-.2c2.3-1.2,4.7-2.5,6.9-3.8.2,0,.4.2.6.2,1.8.9,2.5,2.1,2.8,3.5.2.8.2,1.7.2,2.5Z"/><path class="cls-6" d="M131.5,143.4c-3.1,1.5-3.6,2.5-4.8,4.2-.3.4-.6.9-1,1.4-1.9-2.1-4.4-4.5-6.9-7-.4-.4-.8-.8-1.3-1.3h0c.5-1.8,1-3.5,2-4.9,1-1.5,2.5-2.7,4.3-3l.3-.2c.3.4.6.8.9,1.2,2.8,3.9,5.4,7.5,6.4,9.6Z"/><path class="cls-3" d="M134.2,155c-.5,2.1-4,9.3-4.9,9-2.6-.7-3.8-2.8-5.6-4.5-1.4-5.9-3.2-12.3-4.9-17.5,2.5,2.5,5,5,6.9,7,.4-.5.7-1,1-1.4,0,0,5.4,6.7,7.4,7.4Z"/><path class="cls-7" d="M129.9,169.4c-.7,2.1-3.3,2.1-5.5,2.9h0c.4-1.3.8-2.7,1.2-4.1-.5-2.6-1.1-5.6-1.8-8.7,1.8,1.7,3,3.8,5.6,4.5,1.4,1.8,1.2,3.3.6,5.5Z"/><path class="cls-9" d="M137.5,121.7c-3.4,7-4.7,9.2-9.2,16.5"/><path class="cls-9" d="M149.6,73.6s0,0,0,0"/><path class="cls-4" d="M130.9,63.1c-1-1.5-3-2.9-3.8-5.3-.5-1.4-.8-1.9-2.1-3.4,0-.2-.2-.4-.3-.7h0c-2.1-1.3-4.6-2.1-7.1-2.1.7,1.6,1,3.4,1,5.1.2,0,.3.1.5.2.5.2.8.7.8,1.2,0,.4-.4.7-.7.9-.2.1-.5.2-.8.3-.2.9-.6,1.8-1,2.7-1.6,3.2-4.6,5.6-8.1,6.4-.6-.3-1.4,0-1.8.4-.5.4-.7,1.1-.6,1.7,0,.6.3,1.2.7,1.8.6.9,2.7,2.4,3.8,2.6.4,0,.8,0,1.1,0h0c.6,1.5.3,1.1,0,2.7.4-.2.8-.2,1.3-.2,2.5,1.4,12.2,1.5,13.9,1.2,1.4-.3,3.1-.5,4.2-2,.4-.5.7-1.1,1-1.9,1-3-.1-9.3-1.8-11.9ZM125.8,58.8c.3-.2.9.3,1.3,1,.4.7.6,1.5.3,1.6-.3.2-.9-.3-1.3-1-.4-.7-.6-1.5-.3-1.7ZM120.8,65.5c-.3.2-1-.2-1.4-1-.5-.7-.5-1.5-.2-1.7.3-.2,1,.2,1.4,1,.4.7.5,1.5.2,1.7ZM123.7,56.5c-.5.2-1.1-.2-1.4-.7-.3-.4-.6-1-.4-1.4.5-1.5,3.5-.5,3.2.6,0,.2-.3.3-.4.4-.4.3-.5.9-1,1.1ZM129.2,72.8c-1.8,1.2-4.7-.6-4.8-1.1,1.6-.4,5.4-2.5,6.5-3.5.6.9.6,3.1-1.6,4.5Z"/><path class="cls-2" d="M117.6,51.7c.7,1.6,1,3.4,1,5.1,0,.9-.1,1.8-.3,2.7-.2.9-.6,1.8-1,2.7-1.6,3.2-4.6,5.6-8.1,6.4-.6-.3-1.4,0-1.8.4-.5.4-.7,1.1-.6,1.7,0,.6.3,1.2.7,1.8.6.9,2.7,2.4,3.8,2.6.4,0,.8,0,1.1,0h0c.6,1.5.3,1.1,0,2.7-.6.2-1.1.6-1.6,1.1-1.3,0-2.2-.2-3.1-.4-1.9-.4-3.3-1.3-5.9-3.4-2.4-2-4.8-7.3-4.8-10.6,0-3.8,2.1-7.5,4.2-10.6,2.5-3.6,9.1-6.9,13.5-6.5,4,.3,8.5,3.6,9.9,6.2-2.1-1.3-4.6-2.1-7.1-2Z"/><path class="cls-9" d="M110.9,79c0,0-.1,0-.2,0"/><path class="cls-9" d="M128.5,64.1c2,2.2-.8,3.4-1.4,3.4"/><path class="cls-10" d="M120.8,65.5c-.3.2-1-.2-1.4-1-.5-.7-.5-1.5-.2-1.7.3-.2,1,.2,1.4,1,.4.7.5,1.5.2,1.7Z"/><path class="cls-10" d="M127.4,61.5c-.3.2-.9-.3-1.3-1-.4-.7-.6-1.5-.3-1.7.3-.2.9.3,1.3,1,.4.7.6,1.5.3,1.6Z"/><path class="cls-8" d="M129.2,72.8c-1.8,1.2-4.7-.6-4.8-1.1,1.6-.4,5.4-2.5,6.5-3.5.6.9.6,3.1-1.6,4.5Z"/><path class="cls-9" d="M113.8,74.1c-.3.6-.8,1-1.4,1.1"/><path class="cls-9" d="M109.3,68.6s0,0,0,0"/><path class="cls-2" d="M119.8,58.2c0,.4-.4.7-.7.9-.2.1-.5.2-.8.3.2-.9.3-1.8.3-2.7.2,0,.3.1.5.2.5.2.8.7.8,1.2Z"/><path class="cls-9" d="M118.3,59.5c-.1,0-.2,0-.3.1"/><path class="cls-9" d="M118.6,56.8s0,0-.1,0"/><path class="cls-2" d="M125.1,55c0,.2-.3.3-.4.4-.4.3-.5.9-1,1.1-.5.2-1.1-.2-1.4-.7-.3-.4-.6-1-.4-1.4.5-1.5,3.5-.5,3.2.6Z"/><path class="cls-9" d="M125,53.9c-.1,0-.2-.2-.4-.2"/><path class="cls-9" d="M109.2,68.6c0,0-.1,0-.2,0"/><path class="cls-2" d="M110.3,88h0c-1.2,1.6-2.1,3.5-2.9,5.4-.3.7-.6,1.4-.8,2.2-.7,2.9-1.4,6.3-2.1,9.5h0c0,.5-.2.9-.3,1.4h-.3c-7.9-8.9,4.6-13.2,3.9-27.9.9.2,1.8.3,3.1.4-2.8,2.9-2.8,9.5-.5,9Z"/><path class="cls-9" d="M107.7,78.6c0-.1,0-.2,0-.4"/><path class="cls-5" d="M134.6,91.8c-.3,1.3-.9,2.5,0,5.4.2.8-.3,3.6-.6,4.4-.2.5-.5,1-1,1.2-.2.2-.5.3-.8.3-.4,0-.8,0-1.1-.2,0,0,0,0,0,0,0,0-.2,0-.3,0-.8-.5-1.4-1.5-1.8-2.4-1.1-2.5-2.2-5.1-3.4-7.6-.8-1.9-1.7-3.8-2.5-5.7h0c-1.1-2.9-8.9-4-10.3-2.1-.4.4-.8.9-1.2,1.3-.5.5-.9,1.1-1.3,1.7h0c-2.3.5-2.3-6.2.5-9.1.4-.5,1-.9,1.6-1.1.4-.2.8-.2,1.3-.2,2.5,1.4,12.2,1.5,13.9,1.2,1.4-.3,3.1-.5,4.2-2,.9,1.2,2,1.8,2.5,2.9,0,0,0,.1,0,.2.3.7.4,1.7.2,3.2-.2,1.3-.3,4.3.1,6.3.2,1,.1,1.7,0,2.3Z"/><path class="cls-9" d="M123.1,87.2c0-.1-.1-.2-.2-.3"/><path class="cls-9" d="M131.7,76.9s0,0,0-.1"/><path class="cls-9" d="M147,86.4h0"/><path class="cls-9" d="M104.4,105.1s0,0,0,0"/><path class="cls-1" d="M125.7,92.9c-1.8.5-3.4.4-5.3,0,0-1-.3-2.1-.8-3-.7-1.3-2.1-2.3-3.5-2.8-1.4-.5-3-.6-4.5-.8.4-.5.8-.9,1.2-1.3,1.4-1.9,9.2-.7,10.3,2.2h0c.8,1.9,1.7,3.8,2.5,5.7Z"/><path class="cls-9" d="M120.4,92.9s0,0-.1,0"/><path class="cls-9" d="M130.8,102.9c0,0-.1,0-.2,0"/><path class="cls-1" d="M120.3,96.9h-.2c-4.4.7-9.2-.5-12.6-3.4h0c.8-2,1.8-3.8,2.9-5.4.4-.6.8-1.2,1.3-1.7,1.5.2,3.1.3,4.5.8,1.4.5,2.8,1.4,3.5,2.8.5.9.7,2,.8,3,0,.3,0,.7,0,1,0,1-.1,2-.2,3Z"/><path class="cls-6" d="M120.3,96.9c0,.3,0,.6,0,1-.3,2-.8,4.1-1.4,6.2-.3,1.1-.6,2.2-1,3.2h0c-4.6.8-9.4,0-13.5-2.1h0c.7-3.2,1.4-6.6,2.1-9.5.3-.8.5-1.5.8-2.2h0c3.5,2.9,8.2,4.2,12.6,3.4h.2Z"/><path class="cls-6" d="M131,103c-3.9,1.3-8.1,1.6-12.1,1,.6-2.1,1.1-4.2,1.4-6.2,0-.3,0-.7,0-1,0-1,.2-1.9.2-3,0-.3,0-.7,0-1,1.8.4,3.5.4,5.3,0,1.1,2.5,2.2,5.1,3.4,7.6.4.9,1,1.9,1.8,2.4,0,0,.1,0,.2.1Z"/><path class="cls-9" d="M118.9,104.1s0,0,0,0"/><path class="cls-1" d="M124.2,132.5l-.3.2c-1.8.3-3.3,1.5-4.3,3-1,1.5-1.6,3.2-2,4.9h0c-1.2-1.1-2.4-2.4-3.5-3.6h0c-1.8-1.8-3.5-3.6-5-5.4.4-3.8,3.5-6,8.1-7.8l.5-.2c.4.6.9,1.2,1.4,1.9,1.6,2.1,3.4,4.5,5.2,6.9Z"/><path class="cls-6" d="M131.1,113.1s0,0,0,0c-.4,1.3-.8,2.7-1.2,4,0,0,0,0,0,0-.8,2.5-1.6,5-2.4,7.4-3.1,1.1-5.3,1.5-8.5,1-.5-.7-1-1.3-1.4-1.9-1.9-2.6-3.2-4.5-3.4-5.2,0-.2,0-.4,0-.8.2-1,.8-2.6,1.6-4.7,5,1.8,10.3,2.1,15.2,0Z"/><path class="cls-9" d="M130.9,113.3c0,0,.2,0,.2-.1,0,0,.2,0,.3-.1,0,0-.2,0-.2,0"/><line class="cls-9" x1="115.9" y1="113" x2="115.9" y2="113"/><line class="cls-9" x1="119" y1="125.6" x2="119" y2="125.6"/><path class="cls-9" d="M127.6,86.1c1.8,0,3.6-.5,5-1.6"/><path class="cls-9" d="M129.3,93.6c.8,0,1.7-.3,2.2-.9"/></g></svg>