<?xml version="1.0" encoding="UTF-8"?><svg xmlns="http://www.w3.org/2000/svg" width="300" height="300" viewBox="0 0 300 300"><defs><style>.cls-1{fill:#5c71a4;}.cls-1,.cls-2,.cls-3,.cls-4,.cls-5,.cls-6,.cls-7,.cls-8,.cls-9,.cls-10,.cls-11,.cls-12{stroke-linecap:round;stroke-linejoin:round;stroke-width:.5px;}.cls-1,.cls-2,.cls-3,.cls-4,.cls-5,.cls-6,.cls-7,.cls-8,.cls-9,.cls-10,.cls-11,.cls-12,.cls-13{stroke:#000;}.cls-14{fill:#fff;stroke:#58595b;stroke-width:.2px;}.cls-14,.cls-13{stroke-miterlimit:10;}.cls-2{fill:#dc8044;}.cls-3{fill:#251f1e;}.cls-4{fill:#b3233c;}.cls-5{fill:#2e5951;}.cls-6{fill:#957561;}.cls-7{fill:#7fad80;}.cls-8{fill:#b5b842;}.cls-9{fill:#6630a2;}.cls-10{fill:#7eac80;}.cls-11,.cls-13{fill:none;}.cls-15,.cls-16{stroke-width:0px;}.cls-16{fill:#27b04b;}</style></defs><g id="Grid"><rect class="cls-14" x="29.3" y="29.3" width="241.5" height="241.5"/><line class="cls-14" x1="29.3" y1="258.6" x2="270.7" y2="258.6"/><line class="cls-14" x1="29.3" y1="246.6" x2="270.7" y2="246.6"/><line class="cls-14" x1="29.3" y1="234.5" x2="270.7" y2="234.5"/><line class="cls-14" x1="29.3" y1="222.5" x2="270.7" y2="222.5"/><line class="cls-14" x1="29.3" y1="210.4" x2="270.7" y2="210.4"/><line class="cls-14" x1="29.3" y1="198.3" x2="270.7" y2="198.3"/><line class="cls-14" x1="29.3" y1="186.2" x2="270.7" y2="186.2"/><line class="cls-14" x1="29.3" y1="174.2" x2="270.7" y2="174.2"/><line class="cls-14" x1="29.3" y1="162.1" x2="270.7" y2="162.1"/><line class="cls-14" x1="29.3" y1="150" x2="270.7" y2="150"/><line class="cls-14" x1="29.3" y1="137.9" x2="270.7" y2="137.9"/><line class="cls-14" x1="29.3" y1="125.8" x2="270.7" y2="125.8"/><line class="cls-14" x1="29.3" y1="113.8" x2="270.7" y2="113.8"/><line class="cls-14" x1="29.3" y1="101.7" x2="270.7" y2="101.7"/><line class="cls-14" x1="29.3" y1="89.6" x2="270.7" y2="89.6"/><line class="cls-14" x1="29.3" y1="77.5" x2="270.7" y2="77.5"/><line class="cls-14" x1="29.3" y1="65.5" x2="270.7" y2="65.5"/><line class="cls-14" x1="29.3" y1="53.4" x2="270.7" y2="53.4"/><line class="cls-14" x1="29.3" y1="41.4" x2="270.7" y2="41.4"/><line class="cls-14" x1="258.6" y1="29.3" x2="258.6" y2="270.7"/><line class="cls-14" x1="246.6" y1="29.3" x2="246.6" y2="270.7"/><line class="cls-14" x1="234.5" y1="29.3" x2="234.5" y2="270.7"/><line class="cls-14" x1="222.5" y1="29.3" x2="222.5" y2="270.7"/><line class="cls-14" x1="210.4" y1="29.3" x2="210.4" y2="270.7"/><line class="cls-14" x1="198.3" y1="29.3" x2="198.3" y2="270.7"/><line class="cls-14" x1="186.2" y1="29.3" x2="186.2" y2="270.7"/><line class="cls-14" x1="174.2" y1="29.3" x2="174.2" y2="270.7"/><line class="cls-14" x1="162.1" y1="29.3" x2="162.1" y2="270.7"/><line class="cls-14" x1="150" y1="29.3" x2="150" y2="270.7"/><line class="cls-14" x1="137.9" y1="29.3" x2="137.9" y2="270.7"/><line class="cls-14" x1="125.8" y1="29.3" x2="125.8" y2="270.7"/><line class="cls-14" x1="113.8" y1="29.3" x2="113.8" y2="270.7"/><line class="cls-14" x1="101.7" y1="29.3" x2="101.7" y2="270.7"/><line class="cls-14" x1="89.6" y1="29.3" x2="89.6" y2="270.7"/><line class="cls-14" x1="77.5" y1="29.3" x2="77.5" y2="270.7"/><line class="cls-14" x1="65.5" y1="29.3" x2="65.5" y2="270.7"/><line class="cls-14" x1="53.4" y1="29.3" x2="53.4" y2="270.7"/><line class="cls-14" x1="41.4" y1="29.3" x2="41.4" y2="270.7"/><line class="cls-13" x1="23.9" y1="150" x2="276.1" y2="150"/><polygon class="cls-15" points="24.7 152.5 20.4 150 24.7 147.5 24.7 152.5"/><polygon class="cls-15" points="275.3 152.5 279.6 150 275.3 147.5 275.3 152.5"/><line class="cls-13" x1="150" y1="23.9" x2="150" y2="276.1"/><polygon class="cls-15" points="147.5 24.7 150 20.4 152.5 24.7 147.5 24.7"/><polygon class="cls-15" points="147.5 275.3 150 279.6 152.5 275.3 147.5 275.3"/></g><g id="Lines"><polygon class="cls-16" points="300.1 54.9 285.1 46.6 285.1 52.5 14.9 52.5 14.9 46.6 0 54.9 14.9 63.2 14.9 57.4 285.1 57.4 285.1 63.2 300.1 54.9"/></g><g id="Latin"><path class="cls-6" d="M151.8,76.6c0-2.1-1.9-2.3-3.9-3.1-2.4-.9-5-.8-7.6-.6-2.6.2-5.7-1-8.2-.1-2.4.9-4.8,1.9-5.7,4.3-1.3,2.3-.8,3.5-.3,10.4,0,4.1-2.1,1.3-1.8-.2,0-2-1.3-2.9-2.8-2.3-.6.3-.9.9-.9,1.7,0,.5,0,1.1.2,1.8.2,1,.6,2,.9,2.7h0c0,.2.2.4.2.6.2.8.5,1.2.8,1.5.4,0,.8,0,1.3,0h.3c-.4,2.5.3,4.8,2,6.6.2.3.6.5.9.8.4.3.8.7,1.3,1,.4.3.9.7,1.4,1,2,1.3,4.2,2.6,5.5,3.2,2.5,1.3,5.5,1.4,8,0,0,0,.5-.6,1.1-1.5.3-.4.6-.8,1-1.3.3-.4.7-.9,1-1.4.3-.4.6-.8.8-1.1.7-.9,1.2-1.8,1.6-2.5.9-1.6,1.4-3.3,1.8-5.1.5-3.1.6-6,.6-6,.6-2.8.8-7.4.3-10.3ZM131.9,89.3c-.6,0-1-1-1-2.2s.5-2.2,1-2.2,1,1,1,2.2-.5,2.2-1,2.2ZM135.7,83.5s0,0,0,0c-2-.5-5.9-.7-6.9-.4-.3-1.7.8-1.4,1.3-1.8,1.3-.9,5.1.3,6.3,1.2-.2.9,0,1.3-.7,1ZM146,88.8c-.5,0-.9-.8-.9-1.9s.4-1.9.9-1.9.8.9.8,1.9-.4,1.9-.8,1.9ZM148.7,83c-2.2-.6-5,.2-6.9.6-.7-1.2,2.1-2.2,4.2-2.2,2.2,0,2.4.5,2.8,1.6h0Z"/><path class="cls-11" d="M150.8,93.6c0,.4-.1.7-.2,1.1"/><path class="cls-11" d="M141.8,83.5c0,0-.1,0-.2,0"/><path class="cls-11" d="M136,83.6c0,0-.2,0-.3,0"/><path class="cls-11" d="M142.3,91.9c1.2,1.2.5,3.6-4.8,3.2"/><path class="cls-3" d="M152.4,85.8c-.2,1.3-.5,2.7-1,4.3-.2,1-.4,1.9-.6,2.9.5-3.1.6-6,.6-6,.6-2.8.8-7.4.3-10.3,0-2.1-1.9-2.3-3.9-3.1-2.4-.9-5-.8-7.6-.6-2.6.2-5.7-1-8.2-.1-2.4.9-4.8,1.9-5.7,4.3-1.3,2.3-.8,3.5-.3,10.4,0,4.1-2.1,1.3-1.8-.2,0-2-1.3-2.9-2.8-2.3-.6.3-.9.9-.9,1.7h-.3c-.4-2.1-.6-5.9-.5-8.1.3-4.3,1.1-6.5,4.1-9.4,3-2.9,6.9-4.7,10.7-6.2,2.6-1.1,5.5-2.1,8.3-1.7,3.7.5,6.7,3.5,8.3,6.9,1.5,3.4,1.5,5.5,1.6,9.2,0,2.3,0,4.9-.5,8.4Z"/><line class="cls-11" x1="141.8" y1="83.6" x2="141.8" y2="83.5"/><path class="cls-11" d="M143.2,98.6c-2.9.7-5.7,1.1-7.3-.3"/><path class="cls-2" d="M153,137.2c0,.9,0,1.9,0,2.9h-.2c-8,2.2-20.7.8-31-.3,0-1.2,0-2.4,0-3.6h0c10.9,2.1,20.8,3.1,31.3,1Z"/><path class="cls-4" d="M152.5,151.5c0,1.7-.2,3.5-.2,5.1h0c-.4.6-1.3.4-1.8,0-.5-.4-.3-1.5-.9-1.9,0,0-2.5,0-3.5,0,.1,1.5-1.2,3-2.8,3-1.5,0-2.9-1.4-2.9-2.9-1.4,0-2.7,0-4.1,0,0,.9-.5,1.8-1.4,2.2-.8.4-1.8.2-2.6-.2-.8-.5-1.3-1.3-1.6-2.1-1.1-.4-2.9-.7-3.5-.5-.6.2-.9,1.3-1.5,1.6-.6.3-4.2,1-4.6-2.3h-.1c.1-1.4.2-2.4.2-2.4,10.1,1.9,25.2,2.9,31.2.4h0Z"/><path class="cls-1" d="M152.2,156.6c0,1.3-.1,2.6-.2,3.8h-.2c-.9,0-1.4,0-1.4,0-.3-1-.7-2.4-2.6-2.3-1.8,0-3.1,1.3-3.2,2.3-1.5,0-2.1-.2-3.5,0,0-1-.8-2.6-3-2.6s-3,1.4-2.9,2.4c-1.6-.3-2.3-.1-4.1-.3,0-.9-1.2-2.8-3.1-2.8-1.6,0-2.6.9-2.8,2.3,0,0-4.2-.3-4.7-.5h-.2c.2-1.9.4-3.9.6-5.3h.1c.4,3.3,4,2.6,4.6,2.3.6-.3.9-1.4,1.5-1.6.6-.2,2.5.2,3.5.5.3.9.9,1.7,1.6,2.1.8.5,1.8.6,2.6.2.8-.4,1.4-1.3,1.4-2.2,1.3,0,2.7,0,4.1,0,0,1.5,1.4,2.9,2.9,2.9,1.5,0,2.9-1.5,2.8-3,1-.1,3.5,0,3.5,0,.6.4.4,1.5.9,1.9.5.4,1.4.6,1.8,0h0Z"/><path class="cls-7" d="M152.1,160.4c0,.7,0,1.4,0,2-2.3.8-11.2.6-13.5.5-7.8-.5-10.2-.8-18.1-1.8h-.3c0-.8.2-1.5.3-2.3h.2c.6.3,4.7.6,4.7.6.2-1.4,1.3-2.3,2.8-2.3,1.9,0,3,1.8,3.1,2.8,1.8.2,2.4,0,4.1.3,0-1,1-2.4,2.9-2.4s3,1.5,3,2.6c1.5-.1,2.1,0,3.5,0,.1-1,1.3-2.2,3.2-2.3,1.9,0,2.3,1.3,2.6,2.3,0,0,.5,0,1.4,0h.2Z"/><path class="cls-1" d="M152,162.4c0,.6,0,1.3,0,1.8-2,0-5.6.3-7.7.6-3.1.4-6-.1-9.1-.3-2.8-.1-12.6-.6-14.9-2.1h-.3c0-.5.1-.9.2-1.4h.3c7.9,1.1,10.2,1.4,18.1,1.9,2.3.1,11.2.3,13.5-.5Z"/><path class="cls-8" d="M153,140.1c0,1,0,2.2-.1,3.3-8.7,2.5-15.7,1.3-31.3,0,0-1,0-1.9.2-2.8,0-.2,0-.5,0-.7,10.3,1.1,23,2.5,31,.3h.2Z"/><path class="cls-2" d="M152.8,143.4c0,1.1,0,2.3-.1,3.5-5.9,2.7-20.9,2.2-31.3,0,0-1.1.1-2.3.2-3.5,15.6,1.3,22.6,2.5,31.3,0Z"/><path class="cls-1" d="M152.7,146.9c0,1.5-.1,3.1-.2,4.6h0c-6,2.5-21.1,1.5-31.2-.4,0-1.3.2-2.7.2-4.2,10.4,2.2,25.4,2.8,31.3,0Z"/><path class="cls-11" d="M135.8,176.1c0,.3,0,.8,0,1.6h0"/><path class="cls-5" d="M154.4,236.6c-.5.2-.9.5-1.2.7-2.8,1.5-4.3,2.1-8.7,1.7-.7,0-1.5-.2-2.3-.3,0-1.5-3.1-31.9-4.2-41.3-1-8.4-1.8-16.1-2-19.6-.5,6.2-1.1,15.5-2.3,22.9-1.6,10.4-3.1,38-3.2,38.6-1,.3-2.2.4-3.4.5-3.1.2-6.3-.4-8.2-1.3-.7-.3-1.2-.7-1.5-1.1,0,0,.3-28.5,1-41.4.7-12.7-.6-24.7,1.1-31.1.2-.5.3-1.4.5-2.5h.3c2.3,1.6,12.1,2,14.9,2.1,3.2.2,6,.7,9.1.3,2.1-.2,5.7-.5,7.7-.6.3,5.8.5,6.3,1.1,11.7.7,6.2.3,54.6,1.3,60.6Z"/><path class="cls-11" d="M136.7,171.5c-.3,1-.5,3.2-.8,6.2h0"/><path class="cls-11" d="M130.4,239.2h0"/><path class="cls-11" d="M139.8,168.6c-1.4,1.3-2.4,1.7-3.2,2.5"/><path class="cls-6" d="M153.2,88.6c0,.6-.1,1.2-.2,1.9-.1.6-.3,1.2-.4,1.8,0,.2-.1.3-.2.4,0,.3-.2.5-.4.7-.3.3-.8.4-1.2.1h0c0-.2,0-.4.1-.7.2-.9.4-1.9.6-2.9.4-1.6.8-3,1-4.3.2,0,.6,0,.8,0,0,1,0,1.9,0,2.8Z"/><path class="cls-2" d="M153.1,137.2s0,0,0,0"/><path class="cls-2" d="M152.7,146.9s0,0,0,0"/><path class="cls-11" d="M124.5,92.9c0,0,0,.1,0,.2"/><path class="cls-2" d="M147,115c-1.4,1.3-2,1.3-2.9,2.9-.6,1-.6,2.2-1,3.3-.4,1.1-1.6,3.1-2.9,3.2-1.3,0-3.4-1.9-3.9-2.9-.5-1-1.4-2-2.9-3.1-1.6-1.1-1.9-1.4-3.8-2.4-3.9-2.2-6.2-9.9-.8-14.5.4.3.9.7,1.4,1-3.1,3-2.4,9.2.8,10.9,1.5.8,3.7,1.5,5,2.3,1.2.8,1.6,1.6,2.1,2.3.4.8.6,1.7,1.6,1.6,1.1,0,1-.8,1.3-1.6.3-.8.4-1.7.9-2.5.7-1.2,2.3-1.9,3.4-2.9,1.9-1.6.5-6.3-.5-8.4h0c.3-.4.6-.8,1-1.3,2.3,3.1,3.7,9.9,1.3,12.1Z"/><path class="cls-1" d="M148.9,117.8c-1.7,1.6-2.5,1.6-3.6,3.6-.7,1.2-.8,2.7-1.3,4-.5,1.3-1.9,3.8-3.6,3.9-1.6,0-4.1-2.3-4.8-3.5-.6-1.2-1.7-2.4-3.6-3.7-1.9-1.4-2.4-1.7-4.6-2.9-4.8-2.7-7-14.7,0-18.5.4.3.8.7,1.3,1-5.4,4.6-3.1,12.3.8,14.5,1.8,1,2.2,1.3,3.8,2.4,1.5,1.1,2.4,2,2.9,3.1.5,1,2.6,3,3.9,2.9,1.3,0,2.5-2.1,2.9-3.2.4-1.1.5-2.3,1-3.3.9-1.6,1.5-1.6,2.9-2.9,2.3-2.2,1-9-1.3-12.1.3-.4.7-.9,1-1.4h.2c3.1,3.6,4.9,13.5,2,16.2Z"/><path class="cls-9" d="M152.9,116.6c-.3,1.7-.9,3-1.8,3.8-2.1,1.8-3,1.8-4.4,4.1-.9,1.4-1,3.1-1.6,4.6-.6,1.5-2.4,4.4-4.3,4.4-1.9,0-5-2.6-5.8-4.1-.8-1.4-2.1-2.7-4.4-4.3-2.3-1.6-2.9-1.9-5.6-3.4-5.9-3.1-6.1-20.1,1.4-22.2.2.3.6.5.9.8-7,3.8-4.7,15.8,0,18.5,2.2,1.2,2.7,1.6,4.6,2.9,1.9,1.4,3,2.5,3.6,3.7.6,1.3,3.2,3.6,4.8,3.5,1.6,0,3.1-2.5,3.6-3.9.5-1.3.6-2.7,1.3-4,1.1-2,1.8-2,3.6-3.6,2.9-2.7,1.1-12.6-2-16h-.2c.3-.5.6-.9.8-1.2,4.4,3.7,6.2,11.2,5.4,16.1Z"/><path class="cls-1" d="M161.7,101.6c-1.2,3-2.8,6.1-4,9.1-2,8.4-3.7,15.2-4.1,17.6,0,.2,0,.3,0,.4-.2,1.9-.4,3.9-.4,6s0,1.5,0,2.4c-10.5,2.1-20.3,1.1-31.3-1h0c0-1.1-.2-2.1-.2-3.2,0-1.3-2.7-7.1-3.3-8.6,0,0,0,0,0,0-.5-2.5-1.9-8.9-1.9-7.9-1.3-5.4-3.2-9.8-4.9-14.8-.3-.8-.6-1.9-.9-3,3.9-2.2,8-5,12.4-5.5.4.3.9.2,1.3,0h.3c-.4,2.5.3,4.8,2,6.6-7.5,2.1-7.3,19.1-1.4,22.2,2.7,1.4,3.3,1.8,5.6,3.4,2.3,1.5,3.6,2.8,4.4,4.3.8,1.4,3.9,4.1,5.8,4.1,2,0,3.7-2.9,4.3-4.4.6-1.5.7-3.2,1.6-4.6,1.3-2.3,2.3-2.2,4.4-4.1.9-.8,1.5-2.1,1.8-3.8.8-4.9-1-12.4-5.4-16.1.7-.9,1.2-1.8,1.6-2.5.9-1.6,1.4-3.3,1.8-5.1,0,.2,0,.4-.1.7h0c.3.3.9.2,1.2-.1.2-.2.3-.4.4-.7,1.1.1,2,.9,2.8,1.6,2.4,2.2,4.5,4.7,6.5,7.2Z"/><path class="cls-1" d="M118.3,125.3c0-.2,0-.5-.1-.9"/><path class="cls-6" d="M163.6,94.2c-1.8-1.5-3.7-3-5.7-4.2-.9-.5-1.8-1.1-2.8-1.3,1.6-5.4,1.6-24.8,1.8-28.7-1.6-.9-3.8-7.9-2.7-9.2,1.1-1.3,3.2-1.8,5.2-1.7,1.3.1,2.6.6,3.4,1.5,1,1.3,1.2,7.1.2,8.5,2.1,12.7,2.9,19.6.7,35.2Z"/><path class="cls-1" d="M163.6,94.2c0,.4-.1.8-.2,1.3,0,.5-.2,1-.3,1.5-2.5-3.2-6.2-5.6-10.2-6.5.1-.6.2-1.2.2-1.9.6-.1,1.3-.1,1.9,0,1,.2,2,.8,2.8,1.3,2,1.3,3.9,2.7,5.7,4.2Z"/><path class="cls-10" d="M163.2,97c-.3,1.5-.9,3.1-1.5,4.6-2-2.6-4.1-5-6.5-7.2-.8-.8-1.7-1.5-2.8-1.6,0-.1.1-.3.2-.4.2-.6.3-1.2.4-1.8,4,.9,7.7,3.3,10.2,6.5Z"/><path class="cls-1" d="M121.9,91.1c-4.3-.2-8.7,1-12.3,3.4-.2-1-.4-1.9-.5-2.9,2.9-2,6.4-3.1,9.9-3.3.7,0,1.3,0,2,0,.2,1,.6,2,.9,2.7Z"/><path class="cls-6" d="M145.2,112.6c-1.1,1-2.7,1.7-3.4,2.9-.5.8-.5,1.6-.9,2.5-.3.8-.2,1.6-1.3,1.6-1.1,0-1.2-.9-1.6-1.6-.4-.8-.8-1.5-2.1-2.3-1.3-.8-3.5-1.5-5-2.3-3.2-1.6-3.9-7.9-.8-10.9,2,1.3,4.2,2.6,5.5,3.2,2.5,1.3,5.5,1.4,8,0,0,0,.5-.6,1.1-1.5h0c.9,2.1,2.4,6.7.5,8.4Z"/><path class="cls-6" d="M119,88.3c-3.5.2-7,1.3-9.9,3.3-.2-1.5-.3-2.9-.3-4,.3-8.4,1.1-17.6,2.8-28.8l-.2-.2c-.6-.9-.7-6.1-.9-7.2-.2-1,.2-2.2,1.3-2.8.7-.4,1.5-.4,2.3-.4,1.8,0,3.3-.4,4.8.4,1.3.7,2.1,1.9,2.2,3.2.1,1.3-1.7,7.1-2.8,8-.1,3.2-.6,24.2.7,28.4Z"/><path class="cls-11" d="M119,88.4s0,0,0,0"/><path class="cls-11" d="M121.1,88.4c0,0-.1,0-.2,0"/><path class="cls-11" d="M153.2,88.7s0,0,0,0"/><path class="cls-12" d="M132.9,87.1c0,1.2-.5,2.2-1,2.2s-1-1-1-2.2.5-2.2,1-2.2,1,1,1,2.2Z"/><path class="cls-12" d="M146.8,86.9c0,1-.4,1.9-.8,1.9s-.9-.8-.9-1.9.4-1.9.9-1.9.8.9.8,1.9Z"/><path class="cls-3" d="M148.7,82.9h0c-2.2-.5-5,.2-6.9.6-.7-1.2,2.1-2.2,4.2-2.2,2.2,0,2.4.5,2.8,1.6Z"/><path class="cls-3" d="M136.4,82.5c-.2.9,0,1.3-.7,1,0,0,0,0,0,0-2-.5-5.9-.7-6.9-.4-.3-1.7.8-1.4,1.3-1.8,1.3-.9,5.1.3,6.3,1.2Z"/><path class="cls-10" d="M122.9,93.1c-4.4.5-8.5,3.3-12.4,5.5-.3-1.3-.7-2.8-1-4.2,3.6-2.4,8-3.6,12.3-3.4h0c0,.2.2.4.2.6.2.8.5,1.2.8,1.5Z"/><path class="cls-11" d="M161.7,101.7s0,0,0,0"/><path class="cls-2" d="M128,251.4c-1,4.8-7.1,5.3-10.8,1.9-1.1-1,.5-10.4.8-11.6.2-.8.5-2.1.8-3.3,1.9.9,5.2,1.5,8.2,1.3.6,4.2,1.2,10.8,1,11.7Z"/><path class="cls-2" d="M155.1,253c-4.1,3.4-10.8,2.8-11.9-2-.2-.9.5-7.9,1.2-12.1h0c4.4.5,5.9-.2,8.7-1.7h0c.5,1.3,1,3.1,1.2,4.1.2,1.2,2,10.6.8,11.6Z"/><path class="cls-1" d="M154.8,116.8c.3,3.7-.9,7.8-1.4,13"/></g></svg>